<?xml version="1.0" encoding="UTF-8" standalone="no"?>
<!DOCTYPE svg PUBLIC "-//W3C//DTD SVG 1.1//EN"
 "http://www.w3.org/Graphics/SVG/1.1/DTD/svg11.dtd">
<!-- Generated by graphviz version 2.40.1 (20161225.0304)
 -->
<!-- Title: models_diagram Pages: 1 -->
<svg width="964pt" height="346pt"
 viewBox="0.00 0.00 964.00 346.00" xmlns="http://www.w3.org/2000/svg" xmlns:xlink="http://www.w3.org/1999/xlink">
<g id="graph0" class="graph" transform="scale(1 1) rotate(0) translate(4 342)">
<title>models_diagram</title>
<polygon fill="transparent" stroke="transparent" points="-4,4 -4,-342 960,-342 960,4 -4,4"/>
<g id="clust1" class="cluster">
<title>cluster_user</title>
<polygon fill="transparent" stroke="#000000" points="8,-8 8,-330 948,-330 948,-8 8,-8"/>
<text text-anchor="middle" x="478" y="-314.8" font-family="Times,serif" font-size="14.00" fill="#000000">User</text>
</g>
<!-- user_idle -->
<g id="node1" class="node">
<title>user_idle</title>
<ellipse fill="none" stroke="#000000" cx="468" cy="-278" rx="27" ry="18"/>
<ellipse fill="none" stroke="#000000" cx="468" cy="-278" rx="31" ry="22"/>
<text text-anchor="middle" x="468" y="-273.8" font-family="Times,serif" font-size="14.00" fill="#000000">idle</text>
</g>
<!-- user_idle&#45;&gt;user_idle -->
<g id="edge6" class="edge">
<title>user_idle&#45;&gt;user_idle</title>
<path fill="none" stroke="#000000" d="M499.102,-279.4996C509.0865,-279.4843 517,-278.9844 517,-278 517,-277.3848 513.9088,-276.9588 509.1528,-276.7221"/>
<polygon fill="#000000" stroke="#000000" points="509.1768,-273.2218 499.102,-276.5004 509.0223,-280.2201 509.1768,-273.2218"/>
<text text-anchor="middle" x="567.2637" y="-275" font-family="Times,serif" font-size="10.00" fill="#000000">show_undone_feedbacks</text>
</g>
<!-- user_idle&#45;&gt;user_idle -->
<g id="edge8" class="edge">
<title>user_idle&#45;&gt;user_idle</title>
<path fill="none" stroke="#000000" d="M499.0337,-280.1903C544.1054,-281.7691 617.5273,-281.0391 617.5273,-278 617.5273,-275.1806 554.3337,-274.3484 509.2109,-275.5036"/>
<polygon fill="#000000" stroke="#000000" points="508.9239,-272.0106 499.0337,-275.8097 509.1344,-279.0074 508.9239,-272.0106"/>
<text text-anchor="middle" x="644.1851" y="-275" font-family="Times,serif" font-size="10.00" fill="#000000">get_activities</text>
</g>
<!-- user_idle&#45;&gt;user_idle -->
<g id="edge18" class="edge">
<title>user_idle&#45;&gt;user_idle</title>
<path fill="none" stroke="#000000" d="M498.9408,-280.829C557.8441,-283.7711 670.8428,-282.8281 670.8428,-278 670.8428,-273.4359 569.8654,-272.3436 509.0626,-274.7232"/>
<polygon fill="#000000" stroke="#000000" points="508.7763,-271.2323 498.9408,-275.171 509.0858,-278.2255 508.7763,-271.2323"/>
<text text-anchor="middle" x="698.3354" y="-275" font-family="Times,serif" font-size="10.00" fill="#000000">get_messages</text>
</g>
<!-- user_idle&#45;&gt;user_idle -->
<g id="edge21" class="edge">
<title>user_idle&#45;&gt;user_idle</title>
<path fill="none" stroke="#000000" d="M498.852,-281.3229C570.3808,-285.7795 725.8281,-284.6719 725.8281,-278 725.8281,-271.6278 584.0331,-270.3312 508.978,-274.1102"/>
<polygon fill="#000000" stroke="#000000" points="508.6407,-270.6235 498.852,-274.6771 509.032,-277.6125 508.6407,-270.6235"/>
<text text-anchor="middle" x="765.8184" y="-275" font-family="Times,serif" font-size="10.00" fill="#000000">start_questionnaires</text>
</g>
<!-- user_idle&#45;&gt;user_idle -->
<g id="edge27" class="edge">
<title>user_idle&#45;&gt;user_idle</title>
<path fill="none" stroke="#000000" d="M498.7285,-281.6255C586.1156,-287.8022 805.8086,-286.5938 805.8086,-278 805.8086,-269.7252 602.1184,-268.2976 508.9858,-273.7174"/>
<polygon fill="#000000" stroke="#000000" points="508.4843,-270.2422 498.7285,-274.3745 508.9319,-277.2279 508.4843,-270.2422"/>
<text text-anchor="middle" x="825.5254" y="-275" font-family="Times,serif" font-size="10.00" fill="#000000">no_action</text>
</g>
<!-- user_messages -->
<g id="node2" class="node">
<title>user_messages</title>
<ellipse fill="none" stroke="#000000" cx="60" cy="-154" rx="43.5146" ry="18"/>
<text text-anchor="middle" x="60" y="-149.8" font-family="Times,serif" font-size="14.00" fill="#000000">messages</text>
</g>
<!-- user_idle&#45;&gt;user_messages -->
<g id="edge17" class="edge">
<title>user_idle&#45;&gt;user_messages</title>
<path fill="none" stroke="#000000" d="M437.1603,-274.5735C383.8722,-268.0127 271.6594,-251.3643 182.0146,-219 150.1862,-207.509 116.4077,-188.9599 92.4809,-174.6123"/>
<polygon fill="#000000" stroke="#000000" points="94.1802,-171.5493 83.8177,-169.3426 90.5423,-177.5298 94.1802,-171.5493"/>
<text text-anchor="middle" x="209.4927" y="-211" font-family="Times,serif" font-size="10.00" fill="#000000">get_messages</text>
</g>
<!-- user_activities -->
<g id="node3" class="node">
<title>user_activities</title>
<ellipse fill="none" stroke="#000000" cx="164" cy="-154" rx="42.0611" ry="18"/>
<text text-anchor="middle" x="164" y="-149.8" font-family="Times,serif" font-size="14.00" fill="#000000">activities</text>
</g>
<!-- user_idle&#45;&gt;user_activities -->
<g id="edge7" class="edge">
<title>user_idle&#45;&gt;user_activities</title>
<path fill="none" stroke="#000000" d="M441.5499,-266.3938C402.1794,-249.213 325.7383,-216.219 260,-190 242.3092,-182.9442 222.6358,-175.4975 205.7276,-169.2193"/>
<polygon fill="#000000" stroke="#000000" points="206.7211,-165.855 196.1278,-165.6696 204.2933,-172.4206 206.7211,-165.855"/>
<text text-anchor="middle" x="356.6577" y="-211" font-family="Times,serif" font-size="10.00" fill="#000000">get_activities</text>
</g>
<!-- user_feedbacks -->
<g id="node4" class="node">
<title>user_feedbacks</title>
<ellipse fill="none" stroke="#000000" cx="331" cy="-154" rx="45.4182" ry="18"/>
<text text-anchor="middle" x="331" y="-149.8" font-family="Times,serif" font-size="14.00" fill="#000000">feedbacks</text>
</g>
<!-- user_idle&#45;&gt;user_feedbacks -->
<g id="edge5" class="edge">
<title>user_idle&#45;&gt;user_feedbacks</title>
<path fill="none" stroke="#000000" d="M474.4537,-256.3671C477.4751,-242.3491 479.2049,-223.98 473,-209 468.4299,-197.9668 464.2731,-196.0893 454,-190 432.4085,-177.2019 405.9623,-168.6925 383.1324,-163.1773"/>
<polygon fill="#000000" stroke="#000000" points="383.7907,-159.7375 373.2622,-160.9213 382.2309,-166.5616 383.7907,-159.7375"/>
<text text-anchor="middle" x="525.2637" y="-211" font-family="Times,serif" font-size="10.00" fill="#000000">show_undone_feedbacks</text>
</g>
<!-- user_questionnaires -->
<g id="node7" class="node">
<title>user_questionnaires</title>
<ellipse fill="none" stroke="#000000" cx="606" cy="-154" rx="61.3804" ry="18"/>
<text text-anchor="middle" x="606" y="-149.8" font-family="Times,serif" font-size="14.00" fill="#000000">questionnaires</text>
</g>
<!-- user_idle&#45;&gt;user_questionnaires -->
<g id="edge20" class="edge">
<title>user_idle&#45;&gt;user_questionnaires</title>
<path fill="none" stroke="#000000" d="M498.0418,-272.5526C544.3625,-263.4633 629.702,-243.737 647,-219 656.3316,-205.6554 647.4468,-190.2612 635.5939,-177.8046"/>
<polygon fill="#000000" stroke="#000000" points="638.0128,-175.275 628.3874,-170.8476 633.151,-180.3111 638.0128,-175.275"/>
<text text-anchor="middle" x="689.9902" y="-211" font-family="Times,serif" font-size="10.00" fill="#000000">start_questionnaires</text>
</g>
<!-- user_messages&#45;&gt;user_idle -->
<g id="edge12" class="edge">
<title>user_messages&#45;&gt;user_idle</title>
<path fill="none" stroke="#000000" d="M50.5226,-171.6291C44.4639,-185.5306 39.3007,-204.8647 48.4678,-219 59.733,-236.3705 70.9832,-232.7116 91,-238 171.2977,-259.2147 194.4096,-247.2479 277,-256 328.7307,-261.4819 388.2632,-268.4427 426.9264,-273.0502"/>
<polygon fill="#000000" stroke="#000000" points="426.9095,-276.573 437.2541,-274.2841 427.74,-269.6224 426.9095,-276.573"/>
<text text-anchor="middle" x="61.7661" y="-211" font-family="Times,serif" font-size="10.00" fill="#000000">cancel</text>
</g>
<!-- user_messages&#45;&gt;user_idle -->
<g id="edge19" class="edge">
<title>user_messages&#45;&gt;user_idle</title>
<path fill="none" stroke="#000000" d="M71.6724,-171.3603C82.8292,-186.487 101.0676,-207.7172 122.3398,-219 148.9929,-233.1368 341.6292,-260.757 427.2114,-272.5025"/>
<polygon fill="#000000" stroke="#000000" points="426.9596,-276.0005 437.3415,-273.8872 427.9077,-269.065 426.9596,-276.0005"/>
<text text-anchor="middle" x="137.8301" y="-211" font-family="Times,serif" font-size="10.00" fill="#000000">respond</text>
</g>
<!-- user_activities&#45;&gt;user_idle -->
<g id="edge9" class="edge">
<title>user_activities&#45;&gt;user_idle</title>
<path fill="none" stroke="#000000" d="M197.0131,-165.1732C204.5299,-167.5601 212.5087,-169.9709 220,-172 293.378,-191.8754 318.9411,-175.1275 387,-209 408.4064,-219.6539 428.8734,-237.1738 443.8785,-251.8931"/>
<polygon fill="#000000" stroke="#000000" points="441.678,-254.6449 451.2033,-259.2838 446.6499,-249.7173 441.678,-254.6449"/>
<text text-anchor="middle" x="415.7661" y="-211" font-family="Times,serif" font-size="10.00" fill="#000000">cancel</text>
</g>
<!-- user_activities&#45;&gt;user_idle -->
<g id="edge15" class="edge">
<title>user_activities&#45;&gt;user_idle</title>
<path fill="none" stroke="#000000" d="M183.7545,-170.2262C202.3449,-184.791 231.4698,-205.8445 259.6797,-219 315.2278,-244.9045 384.5277,-261.7455 427.5262,-270.5597"/>
<polygon fill="#000000" stroke="#000000" points="427.1108,-274.0459 437.6033,-272.5768 428.4848,-267.182 427.1108,-274.0459"/>
<text text-anchor="middle" x="280.6602" y="-211" font-family="Times,serif" font-size="10.00" fill="#000000">get_details</text>
</g>
<!-- user_feedbacks&#45;&gt;user_idle -->
<g id="edge10" class="edge">
<title>user_feedbacks&#45;&gt;user_idle</title>
<path fill="none" stroke="#000000" d="M375.8647,-157.3286C440.5101,-163.1629 554.8754,-177.7202 580,-209 603.9146,-238.7734 548.8049,-259.0903 507.7015,-269.6018"/>
<polygon fill="#000000" stroke="#000000" points="506.7565,-266.2296 497.872,-272.0017 508.4168,-273.0299 506.7565,-266.2296"/>
<text text-anchor="middle" x="596.7661" y="-211" font-family="Times,serif" font-size="10.00" fill="#000000">cancel</text>
</g>
<!-- user_feedbacks&#45;&gt;user_feedbacks -->
<g id="edge4" class="edge">
<title>user_feedbacks&#45;&gt;user_feedbacks</title>
<path fill="none" stroke="#000000" d="M375.771,-157.3155C386.5054,-157.0563 394.4591,-155.9512 394.4591,-154 394.4591,-152.75 391.1949,-151.8473 386.0266,-151.2917"/>
<polygon fill="#000000" stroke="#000000" points="385.9604,-147.7818 375.771,-150.6845 385.5467,-154.7695 385.9604,-147.7818"/>
<text text-anchor="middle" x="429.9986" y="-151" font-family="Times,serif" font-size="10.00" fill="#000000">start_feedbacking</text>
</g>
<!-- user_feedbacks&#45;&gt;user_feedbacks -->
<g id="edge16" class="edge">
<title>user_feedbacks&#45;&gt;user_feedbacks</title>
<path fill="none" stroke="#000000" d="M374.2358,-159.8008C414.7819,-162.1211 465.5382,-160.1875 465.5382,-154 465.5382,-148.3201 422.7676,-146.2248 384.3864,-147.7141"/>
<polygon fill="#000000" stroke="#000000" points="384.0573,-144.2257 374.2358,-148.1992 384.3916,-151.2177 384.0573,-144.2257"/>
<text text-anchor="middle" x="487.1984" y="-151" font-family="Times,serif" font-size="10.00" fill="#000000">get_details</text>
</g>
<!-- user_feedbacking -->
<g id="node5" class="node">
<title>user_feedbacking</title>
<ellipse fill="none" stroke="#000000" cx="279" cy="-34" rx="53.1367" ry="18"/>
<text text-anchor="middle" x="279" y="-29.8" font-family="Times,serif" font-size="14.00" fill="#000000">feedbacking</text>
</g>
<!-- user_feedbacks&#45;&gt;user_feedbacking -->
<g id="edge3" class="edge">
<title>user_feedbacks&#45;&gt;user_feedbacking</title>
<path fill="none" stroke="#000000" d="M333.7129,-135.9354C334.9674,-122.4951 335.0527,-103.9673 329,-89 324.3227,-77.4338 316.0471,-66.7594 307.558,-57.9528"/>
<polygon fill="#000000" stroke="#000000" points="309.7347,-55.1872 300.1281,-50.719 304.8516,-60.2027 309.7347,-55.1872"/>
<text text-anchor="middle" x="366.5396" y="-91" font-family="Times,serif" font-size="10.00" fill="#000000">start_feedbacking</text>
</g>
<!-- user_feedbacking&#45;&gt;user_idle -->
<g id="edge11" class="edge">
<title>user_feedbacking&#45;&gt;user_idle</title>
<path fill="none" stroke="#000000" d="M267.2047,-51.8949C249.941,-80.5534 222.794,-137.0639 251.4678,-172 277.4946,-203.711 301.8022,-181.8076 342,-190 382.4844,-198.2508 400.1988,-183.8775 433,-209 445.185,-218.3326 453.4655,-233.0807 458.8994,-246.5506"/>
<polygon fill="#000000" stroke="#000000" points="455.6468,-247.8473 462.3681,-256.0372 462.2211,-245.4434 455.6468,-247.8473"/>
<text text-anchor="middle" x="263.7661" y="-151" font-family="Times,serif" font-size="10.00" fill="#000000">cancel</text>
</g>
<!-- user_feedbacking&#45;&gt;user_feedbacks -->
<g id="edge1" class="edge">
<title>user_feedbacking&#45;&gt;user_feedbacks</title>
<path fill="none" stroke="#000000" d="M280.9504,-52.2415C282.8398,-65.6054 286.4098,-83.9595 292.916,-99 297.3888,-109.3399 303.9398,-119.7405 310.3519,-128.6712"/>
<polygon fill="#000000" stroke="#000000" points="307.5911,-130.8237 316.3847,-136.7333 313.1957,-126.6298 307.5911,-130.8237"/>
<text text-anchor="middle" x="310.042" y="-91" font-family="Times,serif" font-size="10.00" fill="#000000">feedback</text>
</g>
<!-- user_feedbacking&#45;&gt;user_feedbacking -->
<g id="edge2" class="edge">
<title>user_feedbacking&#45;&gt;user_feedbacking</title>
<path fill="none" stroke="#000000" d="M328.6605,-40.6573C341.0543,-40.1918 350.318,-37.9727 350.318,-34 350.318,-31.2067 345.7382,-29.2804 338.7106,-28.221"/>
<polygon fill="#000000" stroke="#000000" points="338.9273,-24.7266 328.6605,-27.3427 338.3178,-31.7001 338.9273,-24.7266"/>
<text text-anchor="middle" x="368.36" y="-31" font-family="Times,serif" font-size="10.00" fill="#000000">feedback</text>
</g>
<!-- user_experiment -->
<g id="node6" class="node">
<title>user_experiment</title>
<ellipse fill="none" stroke="#000000" cx="218" cy="-278" rx="49.7706" ry="18"/>
<text text-anchor="middle" x="218" y="-273.8" font-family="Times,serif" font-size="14.00" fill="#000000">experiment</text>
</g>
<!-- user_questionnaires&#45;&gt;user_idle -->
<g id="edge13" class="edge">
<title>user_questionnaires&#45;&gt;user_idle</title>
<path fill="none" stroke="#000000" d="M613.6911,-171.9172C618.3267,-185.6218 621.949,-204.5566 614,-219 603.2382,-238.5543 546.807,-257.167 507.3439,-268.0839"/>
<polygon fill="#000000" stroke="#000000" points="506.2048,-264.7661 497.4653,-270.7554 508.0322,-271.5234 506.2048,-264.7661"/>
<text text-anchor="middle" x="629.7661" y="-211" font-family="Times,serif" font-size="10.00" fill="#000000">cancel</text>
</g>
<!-- user_questionnaires&#45;&gt;user_questionnaires -->
<g id="edge23" class="edge">
<title>user_questionnaires&#45;&gt;user_questionnaires</title>
<path fill="none" stroke="#000000" d="M663.3036,-160.5683C675.9671,-159.9512 685.1899,-157.7617 685.1899,-154 685.1899,-151.355 680.6303,-149.4874 673.521,-148.3971"/>
<polygon fill="#000000" stroke="#000000" points="673.5885,-144.8879 663.3036,-147.4317 672.93,-151.8569 673.5885,-144.8879"/>
<text text-anchor="middle" x="718.5176" y="-151" font-family="Times,serif" font-size="10.00" fill="#000000">start_responding</text>
</g>
<!-- user_responding -->
<g id="node8" class="node">
<title>user_responding</title>
<ellipse fill="none" stroke="#000000" cx="675" cy="-34" rx="49.3119" ry="18"/>
<text text-anchor="middle" x="675" y="-29.8" font-family="Times,serif" font-size="14.00" fill="#000000">responding</text>
</g>
<!-- user_questionnaires&#45;&gt;user_responding -->
<g id="edge22" class="edge">
<title>user_questionnaires&#45;&gt;user_responding</title>
<path fill="none" stroke="#000000" d="M616.33,-136.0348C627.8288,-116.0369 646.5265,-83.5191 659.7186,-60.5763"/>
<polygon fill="#000000" stroke="#000000" points="662.874,-62.1101 664.8246,-51.6963 656.8057,-58.6207 662.874,-62.1101"/>
<text text-anchor="middle" x="675.3276" y="-91" font-family="Times,serif" font-size="10.00" fill="#000000">start_responding</text>
</g>
<!-- user_responding&#45;&gt;user_idle -->
<g id="edge14" class="edge">
<title>user_responding&#45;&gt;user_idle</title>
<path fill="none" stroke="#000000" d="M695.4386,-50.6159C716.2467,-68.9793 747.2091,-100.6709 760,-136 773.1596,-172.3476 764.9625,-195.856 734,-219 698.7552,-245.3449 574.2481,-264.5591 508.8355,-273.0927"/>
<polygon fill="#000000" stroke="#000000" points="508.3413,-269.6273 498.8673,-274.3701 509.2311,-276.5706 508.3413,-269.6273"/>
<text text-anchor="middle" x="778.7661" y="-151" font-family="Times,serif" font-size="10.00" fill="#000000">cancel</text>
</g>
<!-- user_responding&#45;&gt;user_idle -->
<g id="edge24" class="edge">
<title>user_responding&#45;&gt;user_idle</title>
<path fill="none" stroke="#000000" d="M705.032,-48.4519C748.0588,-71.3491 819.6018,-118.8538 796,-172 783.3562,-200.4711 770.4014,-202.4641 744,-219 724.905,-230.9597 718.6627,-231.8048 697,-238 632.4259,-256.4671 555.0364,-267.8278 508.78,-273.5175"/>
<polygon fill="#000000" stroke="#000000" points="508.3493,-270.044 498.8382,-274.7118 509.1842,-276.9941 508.3493,-270.044"/>
<text text-anchor="middle" x="845.2661" y="-151" font-family="Times,serif" font-size="10.00" fill="#000000">respond_questionnaire</text>
</g>
<!-- user_responding&#45;&gt;user_responding -->
<g id="edge25" class="edge">
<title>user_responding&#45;&gt;user_responding</title>
<path fill="none" stroke="#000000" d="M723.7764,-37.2842C734.5554,-36.9756 742.4058,-35.8809 742.4058,-34 742.4058,-32.7951 739.184,-31.9128 734.0344,-31.3531"/>
<polygon fill="#000000" stroke="#000000" points="733.9742,-27.8427 723.7764,-30.7158 733.5401,-34.8293 733.9742,-27.8427"/>
<text text-anchor="middle" x="787.6719" y="-31" font-family="Times,serif" font-size="10.00" fill="#000000">respond_questionnaire</text>
</g>
<!-- user_responding&#45;&gt;user_responding -->
<g id="edge26" class="edge">
<title>user_responding&#45;&gt;user_responding</title>
<path fill="none" stroke="#000000" d="M722.2305,-39.6993C769.9927,-42.1752 832.9381,-40.2754 832.9381,-34 832.9381,-28.1658 778.5332,-26.1136 732.5034,-27.8433"/>
<polygon fill="#000000" stroke="#000000" points="732.0649,-24.3593 722.2305,-28.3007 732.3763,-31.3524 732.0649,-24.3593"/>
<text text-anchor="middle" x="878.2042" y="-31" font-family="Times,serif" font-size="10.00" fill="#000000">respond_questionnaire</text>
</g>
</g>
</svg>
