<?xml version="1.0" encoding="utf-8"?>
<!-- Generator: Adobe Illustrator 19.0.0, SVG Export Plug-In . SVG Version: 6.00 Build 0)  -->
<svg version="1.1" id="Layer_1" xmlns="http://www.w3.org/2000/svg" xmlns:xlink="http://www.w3.org/1999/xlink" x="0px" y="0px"
	 viewBox="150 51 1200 800" style="enable-background:new 150 51 1200 800;" xml:space="preserve">
<style type="text/css">
	.st0{fill:#4C72B8;stroke:#4C72B8;stroke-width:14;stroke-linejoin:round;stroke-miterlimit:1;}
	.st1{fill:#4C75BA;stroke:#4C75BA;stroke-width:14;stroke-linejoin:round;stroke-miterlimit:1;}
	.st2{fill:#4F71B7;stroke:#4F71B7;stroke-width:14;stroke-linejoin:round;stroke-miterlimit:1;}
	.st3{fill:#5375B9;stroke:#5375B9;stroke-width:14;stroke-linejoin:round;stroke-miterlimit:1;}
	.st4{fill:#484C86;stroke:#484C86;stroke-width:14;stroke-linejoin:round;stroke-miterlimit:1;}
	.st5{fill:#49508D;stroke:#49508D;stroke-width:14;stroke-linejoin:round;stroke-miterlimit:1;}
	.st6{fill:#4E508E;stroke:#4E508E;stroke-width:14;stroke-linejoin:round;stroke-miterlimit:1;}
	.st7{fill:#4661AD;stroke:#4661AD;stroke-width:14;stroke-linejoin:round;stroke-miterlimit:1;}
	.st8{fill:#495FAB;stroke:#495FAB;stroke-width:14;stroke-linejoin:round;stroke-miterlimit:1;}
	.st9{fill:#455494;stroke:#455494;stroke-width:14;stroke-linejoin:round;stroke-miterlimit:1;}
	.st10{fill:#465CA5;stroke:#465CA5;stroke-width:14;stroke-linejoin:round;stroke-miterlimit:1;}
	.st11{fill:#4965AF;stroke:#4965AF;stroke-width:14;stroke-linejoin:round;stroke-miterlimit:1;}
	.st12{fill:#465290;stroke:#465290;stroke-width:14;stroke-linejoin:round;stroke-miterlimit:1;}
	.st13{fill:#4B67B0;stroke:#4B67B0;stroke-width:14;stroke-linejoin:round;stroke-miterlimit:1;}
	.st14{fill:#4B579B;stroke:#4B579B;stroke-width:14;stroke-linejoin:round;stroke-miterlimit:1;}
	.st15{fill:#4A5BA4;stroke:#4A5BA4;stroke-width:14;stroke-linejoin:round;stroke-miterlimit:1;}
	.st16{fill:#4759A1;stroke:#4759A1;stroke-width:14;stroke-linejoin:round;stroke-miterlimit:1;}
	.st17{fill:#4E67B0;stroke:#4E67B0;stroke-width:14;stroke-linejoin:round;stroke-miterlimit:1;}
	.st18{fill:#5479BC;stroke:#5479BC;stroke-width:14;stroke-linejoin:round;stroke-miterlimit:1;}
	.st19{fill:#52579C;stroke:#52579C;stroke-width:14;stroke-linejoin:round;stroke-miterlimit:1;}
	.st20{fill:#5066AF;stroke:#5066AF;stroke-width:14;stroke-linejoin:round;stroke-miterlimit:1;}
	.st21{fill:#505DA9;stroke:#505DA9;stroke-width:14;stroke-linejoin:round;stroke-miterlimit:1;}
	.st22{fill:#526DB4;stroke:#526DB4;stroke-width:14;stroke-linejoin:round;stroke-miterlimit:1;}
	.st23{fill:#5274B9;stroke:#5274B9;stroke-width:14;stroke-linejoin:round;stroke-miterlimit:1;}
	.st24{fill:#5163AD;stroke:#5163AD;stroke-width:14;stroke-linejoin:round;stroke-miterlimit:1;}
	.st25{fill:#515495;stroke:#515495;stroke-width:14;stroke-linejoin:round;stroke-miterlimit:1;}
	.st26{fill:#506AB2;stroke:#506AB2;stroke-width:14;stroke-linejoin:round;stroke-miterlimit:1;}
	.st27{fill:#505FAB;stroke:#505FAB;stroke-width:14;stroke-linejoin:round;stroke-miterlimit:1;}
	.st28{fill:#4E60AC;stroke:#4E60AC;stroke-width:14;stroke-linejoin:round;stroke-miterlimit:1;}
	.st29{fill:#5172B7;stroke:#5172B7;stroke-width:14;stroke-linejoin:round;stroke-miterlimit:1;}
	.st30{fill:#5363AD;stroke:#5363AD;stroke-width:14;stroke-linejoin:round;stroke-miterlimit:1;}
	.st31{fill:#5169B1;stroke:#5169B1;stroke-width:14;stroke-linejoin:round;stroke-miterlimit:1;}
	.st32{fill:#536EB5;stroke:#536EB5;stroke-width:14;stroke-linejoin:round;stroke-miterlimit:1;}
	.st33{fill:#5160AC;stroke:#5160AC;stroke-width:14;stroke-linejoin:round;stroke-miterlimit:1;}
	.st34{fill:#595596;stroke:#595596;stroke-width:14;stroke-linejoin:round;stroke-miterlimit:1;}
	.st35{fill:#5B5192;stroke:#5B5192;stroke-width:14;stroke-linejoin:round;stroke-miterlimit:1;}
	.st36{fill:#534F8D;stroke:#534F8D;stroke-width:14;stroke-linejoin:round;stroke-miterlimit:1;}
	.st37{fill:#555BA4;stroke:#555BA4;stroke-width:14;stroke-linejoin:round;stroke-miterlimit:1;}
	.st38{fill:#57599F;stroke:#57599F;stroke-width:14;stroke-linejoin:round;stroke-miterlimit:1;}
	.st39{fill:#566BB2;stroke:#566BB2;stroke-width:14;stroke-linejoin:round;stroke-miterlimit:1;}
	.st40{fill:#5566AF;stroke:#5566AF;stroke-width:14;stroke-linejoin:round;stroke-miterlimit:1;}
	.st41{fill:#5760AB;stroke:#5760AB;stroke-width:14;stroke-linejoin:round;stroke-miterlimit:1;}
	.st42{fill:#5A5CA7;stroke:#5A5CA7;stroke-width:14;stroke-linejoin:round;stroke-miterlimit:1;}
	.st43{fill:#5564AE;stroke:#5564AE;stroke-width:14;stroke-linejoin:round;stroke-miterlimit:1;}
	.st44{fill:#5766AF;stroke:#5766AF;stroke-width:14;stroke-linejoin:round;stroke-miterlimit:1;}
	.st45{fill:#5867AF;stroke:#5867AF;stroke-width:14;stroke-linejoin:round;stroke-miterlimit:1;}
	.st46{fill:#5961AC;stroke:#5961AC;stroke-width:14;stroke-linejoin:round;stroke-miterlimit:1;}
	.st47{fill:#546FB5;stroke:#546FB5;stroke-width:14;stroke-linejoin:round;stroke-miterlimit:1;}
	.st48{fill:#5863AD;stroke:#5863AD;stroke-width:14;stroke-linejoin:round;stroke-miterlimit:1;}
	.st49{fill:#5E579C;stroke:#5E579C;stroke-width:14;stroke-linejoin:round;stroke-miterlimit:1;}
	.st50{fill:#4F6BB3;stroke:#4F6BB3;stroke-width:14;stroke-linejoin:round;stroke-miterlimit:1;}
	.st51{fill:#5C65AE;stroke:#5C65AE;stroke-width:14;stroke-linejoin:round;stroke-miterlimit:1;}
	.st52{fill:#625294;stroke:#625294;stroke-width:14;stroke-linejoin:round;stroke-miterlimit:1;}
	.st53{fill:#5869B1;stroke:#5869B1;stroke-width:14;stroke-linejoin:round;stroke-miterlimit:1;}
	.st54{fill:#556DB4;stroke:#556DB4;stroke-width:14;stroke-linejoin:round;stroke-miterlimit:1;}
	.st55{fill:#576BB2;stroke:#576BB2;stroke-width:14;stroke-linejoin:round;stroke-miterlimit:1;}
	.st56{fill:#5A63AD;stroke:#5A63AD;stroke-width:14;stroke-linejoin:round;stroke-miterlimit:1;}
	.st57{fill:#655BA7;stroke:#655BA7;stroke-width:14;stroke-linejoin:round;stroke-miterlimit:1;}
	.st58{fill:#6759A0;stroke:#6759A0;stroke-width:14;stroke-linejoin:round;stroke-miterlimit:1;}
	.st59{fill:#5B63AD;stroke:#5B63AD;stroke-width:14;stroke-linejoin:round;stroke-miterlimit:1;}
	.st60{fill:#5D61AC;stroke:#5D61AC;stroke-width:14;stroke-linejoin:round;stroke-miterlimit:1;}
	.st61{fill:#556CB3;stroke:#556CB3;stroke-width:14;stroke-linejoin:round;stroke-miterlimit:1;}
	.st62{fill:#665396;stroke:#665396;stroke-width:14;stroke-linejoin:round;stroke-miterlimit:1;}
	.st63{fill:#5069B2;stroke:#5069B2;stroke-width:14;stroke-linejoin:round;stroke-miterlimit:1;}
	.st64{fill:#6760AA;stroke:#6760AA;stroke-width:14;stroke-linejoin:round;stroke-miterlimit:1;}
	.st65{fill:#6263AD;stroke:#6263AD;stroke-width:14;stroke-linejoin:round;stroke-miterlimit:1;}
	.st66{fill:#6B61AB;stroke:#6B61AB;stroke-width:14;stroke-linejoin:round;stroke-miterlimit:1;}
	.st67{fill:#536CB3;stroke:#536CB3;stroke-width:14;stroke-linejoin:round;stroke-miterlimit:1;}
	.st68{fill:#6F5EA9;stroke:#6F5EA9;stroke-width:14;stroke-linejoin:round;stroke-miterlimit:1;}
	.st69{fill:#6D589D;stroke:#6D589D;stroke-width:14;stroke-linejoin:round;stroke-miterlimit:1;}
	.st70{fill:#5968B0;stroke:#5968B0;stroke-width:14;stroke-linejoin:round;stroke-miterlimit:1;}
	.st71{fill:#675597;stroke:#675597;stroke-width:14;stroke-linejoin:round;stroke-miterlimit:1;}
	.st72{fill:#5369B2;stroke:#5369B2;stroke-width:14;stroke-linejoin:round;stroke-miterlimit:1;}
	.st73{fill:#5F5190;stroke:#5F5190;stroke-width:14;stroke-linejoin:round;stroke-miterlimit:1;}
	.st74{fill:#615190;stroke:#615190;stroke-width:14;stroke-linejoin:round;stroke-miterlimit:1;}
	.st75{fill:#6065AE;stroke:#6065AE;stroke-width:14;stroke-linejoin:round;stroke-miterlimit:1;}
	.st76{fill:#6662AC;stroke:#6662AC;stroke-width:14;stroke-linejoin:round;stroke-miterlimit:1;}
	.st77{fill:#5866AF;stroke:#5866AF;stroke-width:14;stroke-linejoin:round;stroke-miterlimit:1;}
	.st78{fill:#5665AE;stroke:#5665AE;stroke-width:14;stroke-linejoin:round;stroke-miterlimit:1;}
	.st79{fill:#5B66AF;stroke:#5B66AF;stroke-width:14;stroke-linejoin:round;stroke-miterlimit:1;}
	.st80{fill:#5E65AE;stroke:#5E65AE;stroke-width:14;stroke-linejoin:round;stroke-miterlimit:1;}
	.st81{fill:#795AA1;stroke:#795AA1;stroke-width:14;stroke-linejoin:round;stroke-miterlimit:1;}
	.st82{fill:#79569B;stroke:#79569B;stroke-width:14;stroke-linejoin:round;stroke-miterlimit:1;}
	.st83{fill:#7F59A0;stroke:#7F59A0;stroke-width:14;stroke-linejoin:round;stroke-miterlimit:1;}
	.st84{fill:#6362AC;stroke:#6362AC;stroke-width:14;stroke-linejoin:round;stroke-miterlimit:1;}
	.st85{fill:#5D62AC;stroke:#5D62AC;stroke-width:14;stroke-linejoin:round;stroke-miterlimit:1;}
	.st86{fill:#675394;stroke:#675394;stroke-width:14;stroke-linejoin:round;stroke-miterlimit:1;}
	.st87{fill:#665192;stroke:#665192;stroke-width:14;stroke-linejoin:round;stroke-miterlimit:1;}
	.st88{fill:#5560AB;stroke:#5560AB;stroke-width:14;stroke-linejoin:round;stroke-miterlimit:1;}
	.st89{fill:#6F5598;stroke:#6F5598;stroke-width:14;stroke-linejoin:round;stroke-miterlimit:1;}
	.st90{fill:#6F5498;stroke:#6F5498;stroke-width:14;stroke-linejoin:round;stroke-miterlimit:1;}
	.st91{fill:#685191;stroke:#685191;stroke-width:14;stroke-linejoin:round;stroke-miterlimit:1;}
	.st92{fill:#815EA8;stroke:#815EA8;stroke-width:14;stroke-linejoin:round;stroke-miterlimit:1;}
	.st93{fill:#705394;stroke:#705394;stroke-width:14;stroke-linejoin:round;stroke-miterlimit:1;}
	.st94{fill:#875DA7;stroke:#875DA7;stroke-width:14;stroke-linejoin:round;stroke-miterlimit:1;}
	.st95{fill:#6A5FAA;stroke:#6A5FAA;stroke-width:14;stroke-linejoin:round;stroke-miterlimit:1;}
	.st96{fill:#7560AA;stroke:#7560AA;stroke-width:14;stroke-linejoin:round;stroke-miterlimit:1;}
	.st97{fill:#765395;stroke:#765395;stroke-width:14;stroke-linejoin:round;stroke-miterlimit:1;}
	.st98{fill:#7160AA;stroke:#7160AA;stroke-width:14;stroke-linejoin:round;stroke-miterlimit:1;}
	.st99{fill:#825FA9;stroke:#825FA9;stroke-width:14;stroke-linejoin:round;stroke-miterlimit:1;}
	.st100{fill:#5A5EAA;stroke:#5A5EAA;stroke-width:14;stroke-linejoin:round;stroke-miterlimit:1;}
	.st101{fill:#8F5FA7;stroke:#8F5FA7;stroke-width:14;stroke-linejoin:round;stroke-miterlimit:1;}
	.st102{fill:#745FA9;stroke:#745FA9;stroke-width:14;stroke-linejoin:round;stroke-miterlimit:1;}
	.st103{fill:#945CA6;stroke:#945CA6;stroke-width:14;stroke-linejoin:round;stroke-miterlimit:1;}
	.st104{fill:#6F5FA9;stroke:#6F5FA9;stroke-width:14;stroke-linejoin:round;stroke-miterlimit:1;}
	.st105{fill:#83559A;stroke:#83559A;stroke-width:14;stroke-linejoin:round;stroke-miterlimit:1;}
	.st106{fill:#605EAA;stroke:#605EAA;stroke-width:14;stroke-linejoin:round;stroke-miterlimit:1;}
	.st107{fill:#825EA8;stroke:#825EA8;stroke-width:14;stroke-linejoin:round;stroke-miterlimit:1;}
	.st108{fill:#88579E;stroke:#88579E;stroke-width:14;stroke-linejoin:round;stroke-miterlimit:1;}
	.st109{fill:#645EAA;stroke:#645EAA;stroke-width:14;stroke-linejoin:round;stroke-miterlimit:1;}
	.st110{fill:#A060A7;stroke:#A060A7;stroke-width:14;stroke-linejoin:round;stroke-miterlimit:1;}
	.st111{fill:#695CA8;stroke:#695CA8;stroke-width:14;stroke-linejoin:round;stroke-miterlimit:1;}
	.st112{fill:#965EA6;stroke:#965EA6;stroke-width:14;stroke-linejoin:round;stroke-miterlimit:1;}
	.st113{fill:#595BA4;stroke:#595BA4;stroke-width:14;stroke-linejoin:round;stroke-miterlimit:1;}
	.st114{fill:#665AA4;stroke:#665AA4;stroke-width:14;stroke-linejoin:round;stroke-miterlimit:1;}
	.st115{fill:#9F5DA5;stroke:#9F5DA5;stroke-width:14;stroke-linejoin:round;stroke-miterlimit:1;}
	.st116{fill:#725DA8;stroke:#725DA8;stroke-width:14;stroke-linejoin:round;stroke-miterlimit:1;}
	.st117{fill:#985AA2;stroke:#985AA2;stroke-width:14;stroke-linejoin:round;stroke-miterlimit:1;}
	.st118{fill:#5D59A1;stroke:#5D59A1;stroke-width:14;stroke-linejoin:round;stroke-miterlimit:1;}
	.st119{fill:#7F5DA7;stroke:#7F5DA7;stroke-width:14;stroke-linejoin:round;stroke-miterlimit:1;}
	.st120{fill:#AB61A7;stroke:#AB61A7;stroke-width:14;stroke-linejoin:round;stroke-miterlimit:1;}
	.st121{fill:#805396;stroke:#805396;stroke-width:14;stroke-linejoin:round;stroke-miterlimit:1;}
	.st122{fill:#855DA7;stroke:#855DA7;stroke-width:14;stroke-linejoin:round;stroke-miterlimit:1;}
	.st123{fill:#B060A6;stroke:#B060A6;stroke-width:14;stroke-linejoin:round;stroke-miterlimit:1;}
	.st124{fill:#AC62A7;stroke:#AC62A7;stroke-width:14;stroke-linejoin:round;stroke-miterlimit:1;}
	.st125{fill:#B362A7;stroke:#B362A7;stroke-width:14;stroke-linejoin:round;stroke-miterlimit:1;}
	.st126{fill:#905CA6;stroke:#905CA6;stroke-width:14;stroke-linejoin:round;stroke-miterlimit:1;}
	.st127{fill:#875398;stroke:#875398;stroke-width:14;stroke-linejoin:round;stroke-miterlimit:1;}
	.st128{fill:#98579E;stroke:#98579E;stroke-width:14;stroke-linejoin:round;stroke-miterlimit:1;}
	.st129{fill:#A25BA4;stroke:#A25BA4;stroke-width:14;stroke-linejoin:round;stroke-miterlimit:1;}
	.st130{fill:#6F59A2;stroke:#6F59A2;stroke-width:14;stroke-linejoin:round;stroke-miterlimit:1;}
	.st131{fill:#A860A7;stroke:#A860A7;stroke-width:14;stroke-linejoin:round;stroke-miterlimit:1;}
	.st132{fill:#5A569B;stroke:#5A569B;stroke-width:14;stroke-linejoin:round;stroke-miterlimit:1;}
	.st133{fill:#B463A7;stroke:#B463A7;stroke-width:14;stroke-linejoin:round;stroke-miterlimit:1;}
	.st134{fill:#7859A1;stroke:#7859A1;stroke-width:14;stroke-linejoin:round;stroke-miterlimit:1;}
	.st135{fill:#6F579F;stroke:#6F579F;stroke-width:14;stroke-linejoin:round;stroke-miterlimit:1;}
	.st136{fill:#9E5EA6;stroke:#9E5EA6;stroke-width:14;stroke-linejoin:round;stroke-miterlimit:1;}
	.st137{fill:#5F5497;stroke:#5F5497;stroke-width:14;stroke-linejoin:round;stroke-miterlimit:1;}
	.st138{fill:#69559B;stroke:#69559B;stroke-width:14;stroke-linejoin:round;stroke-miterlimit:1;}
	.st139{fill:#585191;stroke:#585191;stroke-width:14;stroke-linejoin:round;stroke-miterlimit:1;}
	.st140{fill:#B15EA5;stroke:#B15EA5;stroke-width:14;stroke-linejoin:round;stroke-miterlimit:1;}
	.st141{fill:#BD63A7;stroke:#BD63A7;stroke-width:14;stroke-linejoin:round;stroke-miterlimit:1;}
	.st142{fill:#BA63A7;stroke:#BA63A7;stroke-width:14;stroke-linejoin:round;stroke-miterlimit:1;}
	.st143{fill:#BD62A6;stroke:#BD62A6;stroke-width:14;stroke-linejoin:round;stroke-miterlimit:1;}
	.st144{fill:#B660A5;stroke:#B660A5;stroke-width:14;stroke-linejoin:round;stroke-miterlimit:1;}
	.st145{fill:#7A589F;stroke:#7A589F;stroke-width:14;stroke-linejoin:round;stroke-miterlimit:1;}
	.st146{fill:#96559C;stroke:#96559C;stroke-width:14;stroke-linejoin:round;stroke-miterlimit:1;}
	.st147{fill:#A559A3;stroke:#A559A3;stroke-width:14;stroke-linejoin:round;stroke-miterlimit:1;}
	.st148{fill:#BB61A6;stroke:#BB61A6;stroke-width:14;stroke-linejoin:round;stroke-miterlimit:1;}
	.st149{fill:#B55EA5;stroke:#B55EA5;stroke-width:14;stroke-linejoin:round;stroke-miterlimit:1;}
	.st150{fill:#AA5FA6;stroke:#AA5FA6;stroke-width:14;stroke-linejoin:round;stroke-miterlimit:1;}
	.st151{fill:#AF60A6;stroke:#AF60A6;stroke-width:14;stroke-linejoin:round;stroke-miterlimit:1;}
	.st152{fill:#B35FA5;stroke:#B35FA5;stroke-width:14;stroke-linejoin:round;stroke-miterlimit:1;}
	.st153{fill:#9F5CA5;stroke:#9F5CA5;stroke-width:14;stroke-linejoin:round;stroke-miterlimit:1;}
	.st154{fill:#75579E;stroke:#75579E;stroke-width:14;stroke-linejoin:round;stroke-miterlimit:1;}
	.st155{fill:#6F5599;stroke:#6F5599;stroke-width:14;stroke-linejoin:round;stroke-miterlimit:1;}
	.st156{fill:#8558A0;stroke:#8558A0;stroke-width:14;stroke-linejoin:round;stroke-miterlimit:1;}
	.st157{fill:#7C569D;stroke:#7C569D;stroke-width:14;stroke-linejoin:round;stroke-miterlimit:1;}
	.st158{fill:#A558A2;stroke:#A558A2;stroke-width:14;stroke-linejoin:round;stroke-miterlimit:1;}
	.st159{fill:#6A5295;stroke:#6A5295;stroke-width:14;stroke-linejoin:round;stroke-miterlimit:1;}
	.st160{fill:#6E5397;stroke:#6E5397;stroke-width:14;stroke-linejoin:round;stroke-miterlimit:1;}
	.st161{fill:#755399;stroke:#755399;stroke-width:14;stroke-linejoin:round;stroke-miterlimit:1;}
	.st162{fill:#8D59A0;stroke:#8D59A0;stroke-width:14;stroke-linejoin:round;stroke-miterlimit:1;}
	.st163{fill:#98559D;stroke:#98559D;stroke-width:14;stroke-linejoin:round;stroke-miterlimit:1;}
	.st164{fill:#AF5DA5;stroke:#AF5DA5;stroke-width:14;stroke-linejoin:round;stroke-miterlimit:1;}
	.st165{fill:#B75EA5;stroke:#B75EA5;stroke-width:14;stroke-linejoin:round;stroke-miterlimit:1;}
	.st166{fill:#584E8E;stroke:#584E8E;stroke-width:14;stroke-linejoin:round;stroke-miterlimit:1;}
	.st167{fill:#B25CA4;stroke:#B25CA4;stroke-width:14;stroke-linejoin:round;stroke-miterlimit:1;}
	.st168{fill:#B35DA4;stroke:#B35DA4;stroke-width:14;stroke-linejoin:round;stroke-miterlimit:1;}
	.st169{fill:#A55AA4;stroke:#A55AA4;stroke-width:14;stroke-linejoin:round;stroke-miterlimit:1;}
	.st170{fill:#584C8B;stroke:#584C8B;stroke-width:14;stroke-linejoin:round;stroke-miterlimit:1;}
	.st171{fill:#87549C;stroke:#87549C;stroke-width:14;stroke-linejoin:round;stroke-miterlimit:1;}
	.st172{fill:#A95AA3;stroke:#A95AA3;stroke-width:14;stroke-linejoin:round;stroke-miterlimit:1;}
	.st173{fill:#A057A2;stroke:#A057A2;stroke-width:14;stroke-linejoin:round;stroke-miterlimit:1;}
	.st174{fill:#5F4E8E;stroke:#5F4E8E;stroke-width:14;stroke-linejoin:round;stroke-miterlimit:1;}
	.st175{fill:#97569F;stroke:#97569F;stroke-width:14;stroke-linejoin:round;stroke-miterlimit:1;}
	.st176{fill:#8C549C;stroke:#8C549C;stroke-width:14;stroke-linejoin:round;stroke-miterlimit:1;}
	.st177{fill:#99559E;stroke:#99559E;stroke-width:14;stroke-linejoin:round;stroke-miterlimit:1;}
	.st178{fill:#685092;stroke:#685092;stroke-width:14;stroke-linejoin:round;stroke-miterlimit:1;}
	.st179{fill:#8A5198;stroke:#8A5198;stroke-width:14;stroke-linejoin:round;stroke-miterlimit:1;}
	.st180{fill:#A358A2;stroke:#A358A2;stroke-width:14;stroke-linejoin:round;stroke-miterlimit:1;}
	.st181{fill:#885097;stroke:#885097;stroke-width:14;stroke-linejoin:round;stroke-miterlimit:1;}
	.st182{fill:#90539B;stroke:#90539B;stroke-width:14;stroke-linejoin:round;stroke-miterlimit:1;}
	.st183{fill:#785196;stroke:#785196;stroke-width:14;stroke-linejoin:round;stroke-miterlimit:1;}
	.st184{fill:#604E8E;stroke:#604E8E;stroke-width:14;stroke-linejoin:round;stroke-miterlimit:1;}
	.st185{fill:#9C569F;stroke:#9C569F;stroke-width:14;stroke-linejoin:round;stroke-miterlimit:1;}
	.st186{fill:#7D4D93;stroke:#7D4D93;stroke-width:14;stroke-linejoin:round;stroke-miterlimit:1;}
	.st187{fill:#715094;stroke:#715094;stroke-width:14;stroke-linejoin:round;stroke-miterlimit:1;}
	.st188{fill:#754B90;stroke:#754B90;stroke-width:14;stroke-linejoin:round;stroke-miterlimit:1;}
	.st189{fill:#5D4B8A;stroke:#5D4B8A;stroke-width:14;stroke-linejoin:round;stroke-miterlimit:1;}
	.st190{fill:#93549D;stroke:#93549D;stroke-width:14;stroke-linejoin:round;stroke-miterlimit:1;}
	.st191{fill:#835198;stroke:#835198;stroke-width:14;stroke-linejoin:round;stroke-miterlimit:1;}
	.st192{fill:#794C92;stroke:#794C92;stroke-width:14;stroke-linejoin:round;stroke-miterlimit:1;}
	.st193{fill:#875199;stroke:#875199;stroke-width:14;stroke-linejoin:round;stroke-miterlimit:1;}
	.st194{fill:#865097;stroke:#865097;stroke-width:14;stroke-linejoin:round;stroke-miterlimit:1;}
	.st195{fill:#604B8A;stroke:#604B8A;stroke-width:14;stroke-linejoin:round;stroke-miterlimit:1;}
	.st196{fill:#6C4F92;stroke:#6C4F92;stroke-width:14;stroke-linejoin:round;stroke-miterlimit:1;}
	.st197{fill:#734A90;stroke:#734A90;stroke-width:14;stroke-linejoin:round;stroke-miterlimit:1;}
	.st198{fill:#724F92;stroke:#724F92;stroke-width:14;stroke-linejoin:round;stroke-miterlimit:1;}
	.st199{fill:#8A5199;stroke:#8A5199;stroke-width:14;stroke-linejoin:round;stroke-miterlimit:1;}
	.st200{fill:#885098;stroke:#885098;stroke-width:14;stroke-linejoin:round;stroke-miterlimit:1;}
	.st201{fill:#674D8E;stroke:#674D8E;stroke-width:14;stroke-linejoin:round;stroke-miterlimit:1;}
	.st202{fill:#864F97;stroke:#864F97;stroke-width:14;stroke-linejoin:round;stroke-miterlimit:1;}
	.st203{fill:#654B8C;stroke:#654B8C;stroke-width:14;stroke-linejoin:round;stroke-miterlimit:1;}
	.st204{fill:#714D91;stroke:#714D91;stroke-width:14;stroke-linejoin:round;stroke-miterlimit:1;}
	.st205{fill:#784F94;stroke:#784F94;stroke-width:14;stroke-linejoin:round;stroke-miterlimit:1;}
	.st206{fill:#6A4C8E;stroke:#6A4C8E;stroke-width:14;stroke-linejoin:round;stroke-miterlimit:1;}
	.st207{fill:#7D4D94;stroke:#7D4D94;stroke-width:14;stroke-linejoin:round;stroke-miterlimit:1;}
	.st208{fill:#774B92;stroke:#774B92;stroke-width:14;stroke-linejoin:round;stroke-miterlimit:1;}
	.st209{fill:#554885;stroke:#554885;stroke-width:14;stroke-linejoin:round;stroke-miterlimit:1;}
	.st210{fill:#815097;stroke:#815097;stroke-width:14;stroke-linejoin:round;stroke-miterlimit:1;}
	.st211{opacity:0.76;fill:#F4FBFD;enable-background:new    ;}
	.st212{font-family:'BodoniSvtyTwoSCITCTT-Book';}
	.st213{font-size:30px;}
	.st214{opacity:0.91;fill:#F9FCFA;enable-background:new    ;}
	.st215{font-family:'CooperBlackStd';}
	.st216{font-size:24px;}
	.st217{fill:#965EA6;stroke:#965EA6;stroke-width:2.3973;stroke-linejoin:round;stroke-miterlimit:1;}
</style>
<g id="Layer_3">
	<polygon class="st0" points="1597.2,821.7 1403.1,565.2 1290.5,958.2 	"/>
	<polygon class="st1" points="1597.2,821.7 1290.5,958.2 1451.1,994.2 	"/>
	<polygon class="st2" points="1403.1,565.2 1249.7,598.7 1290.5,958.2 	"/>
	<polygon class="st3" points="1290.5,958.2 1249.7,598.7 1151.3,761.7 	"/>
	<polygon class="st4" points="1422.2,140.9 1266.5,-192.6 1175.3,-53.4 	"/>
	<polygon class="st5" points="1422.2,140.9 1175.3,-53.4 1271.2,159.8 	"/>
	<polygon class="st6" points="1271.2,159.8 1175.3,-53.4 1180.2,92.9 	"/>
	<polygon class="st7" points="1443.8,399.7 1252.1,452.4 1422.2,543.4 	"/>
	<polygon class="st8" points="1443.8,399.7 1252.1,426 1252.1,452.4 	"/>
	<polygon class="st9" points="1434.2,171.8 1271.2,159.8 1407.8,294.2 	"/>
	<polygon class="st10" points="1443.8,399.7 1407.8,346.8 1252.1,426 	"/>
	<polygon class="st11" points="1422.2,543.4 1252.1,452.4 1403.1,565.2 	"/>
	<polygon class="st12" points="1434.2,171.8 1422.2,140.9 1271.2,159.8 	"/>
	<polygon class="st13" points="1403.1,565.2 1252.1,452.4 1249.7,598.7 	"/>
	<polygon class="st14" points="1407.8,294.2 1271.2,159.8 1177.8,327.8 	"/>
	<polygon class="st15" points="1407.8,294.2 1177.8,327.8 1252.1,426 	"/>
	<polygon class="st16" points="1407.8,346.8 1407.8,294.2 1252.1,426 	"/>
	<polygon class="st17" points="1252.1,452.4 1232.8,586.7 1249.7,598.7 	"/>
	<polygon class="st18" points="1290.5,958.2 1151.3,761.7 1244.8,982.2 	"/>
	<polygon class="st19" points="1271.2,159.8 1110.7,253.4 1177.8,327.8 	"/>
	<polygon class="st20" points="1252.1,452.4 1158.6,526.7 1232.8,586.7 	"/>
	<polygon class="st21" points="1252.1,426 1177.8,327.8 1170.6,380.4 	"/>
	<polygon class="st22" points="1249.7,598.7 1165.8,589.2 1151.3,761.7 	"/>
	<polygon class="st23" points="1244.8,982.2 1151.3,761.7 1022,840.7 	"/>
	<polygon class="st24" points="1252.1,452.4 1218.5,442.8 1158.6,526.7 	"/>
	<polygon class="st25" points="1271.2,159.8 1180.2,92.9 1110.7,253.4 	"/>
	<polygon class="st26" points="1249.7,598.7 1232.8,586.7 1165.8,589.2 	"/>
	<polygon class="st27" points="1252.1,426 1170.6,380.4 1218.5,442.8 	"/>
	<polygon class="st28" points="1252.1,426 1218.5,442.8 1252.1,452.4 	"/>
	<polygon class="st29" points="1244.8,982.2 1022,840.7 1002.8,1023 	"/>
	<polygon class="st30" points="1218.5,442.8 1149,471.7 1158.6,526.7 	"/>
	<polygon class="st31" points="1232.8,586.7 1158.6,526.7 1165.8,589.2 	"/>
	<polygon class="st32" points="1165.8,589.2 1084.2,730.4 1151.3,761.7 	"/>
	<polygon class="st33" points="1218.5,442.8 1170.6,380.4 1149,471.7 	"/>
	<polygon class="st34" points="1180.2,92.9 950,159.8 1110.7,253.4 	"/>
	<polygon class="st35" points="1180.2,92.9 983.6,25.8 950,159.8 	"/>
	<polygon class="st36" points="1180.2,92.9 1175.3,-53.4 983.6,25.8 	"/>
	<polygon class="st37" points="1177.8,327.8 1065.1,277.4 1170.6,380.4 	"/>
	<polygon class="st38" points="1177.8,327.8 1110.7,253.4 1065.1,277.4 	"/>
	<polygon class="st39" points="1165.8,589.2 978.8,634.7 1084.2,730.4 	"/>
	<polygon class="st40" points="1165.8,589.2 1158.6,526.7 1084.2,514.7 	"/>
	<polygon class="st41" points="1170.6,380.4 1010,414.1 1149,471.7 	"/>
	<polygon class="st42" points="1170.6,380.4 1065.1,277.4 1010,414.1 	"/>
	<polygon class="st43" points="1158.6,526.7 1149,471.7 1084.2,514.7 	"/>
	<polygon class="st44" points="1165.8,589.2 1084.2,514.7 1062.7,514.7 	"/>
	<polygon class="st45" points="1165.8,589.2 1062.7,514.7 978.8,634.7 	"/>
	<polygon class="st46" points="1149,471.7 1010,414.1 1048.2,495.7 	"/>
	<polygon class="st47" points="1151.3,761.7 1084.2,730.4 1022,840.7 	"/>
	<polygon class="st48" points="1149,471.7 1048.2,495.7 1084.2,514.7 	"/>
	<polygon class="st22" points="1022,840.7 983.6,862.4 1002.8,1023 	"/>
	<polygon class="st49" points="1110.7,253.4 950,159.8 1065.1,277.4 	"/>
	<polygon class="st50" points="1002.8,1023 983.6,862.4 993.2,1018.2 	"/>
	<polygon class="st51" points="1062.7,514.7 1022,514.7 978.8,634.7 	"/>
	<polygon class="st52" points="983.6,25.8 940.3,59.2 950,159.8 	"/>
	<polygon class="st53" points="1084.2,730.4 978.8,634.7 954.8,725.7 	"/>
	<polygon class="st54" points="1084.2,730.4 957.2,783.2 1022,840.7 	"/>
	<polygon class="st55" points="1084.2,730.4 954.8,725.7 957.2,783.2 	"/>
	<polygon class="st56" points="1084.2,514.7 1048.2,495.7 1062.7,514.7 	"/>
	<polygon class="st57" points="1065.1,277.4 856.5,339.7 1010,414.1 	"/>
	<polygon class="st58" points="1065.1,277.4 950,159.8 856.5,339.7 	"/>
	<polygon class="st59" points="1062.7,514.7 1048.2,495.7 1022,514.7 	"/>
	<polygon class="st60" points="1048.2,495.7 1010,414.1 1022,514.7 	"/>
	<polygon class="st61" points="1022,840.7 957.2,783.2 969.2,836 	"/>
	<polygon class="st62" points="950,159.8 940.3,59.2 916.5,97.6 	"/>
	<polygon class="st63" points="993.2,1018.2 983.6,862.4 873.2,975 	"/>
	<polygon class="st64" points="1022,514.7 1010,414.1 799,495.7 	"/>
	<polygon class="st65" points="1022,514.7 813.4,584.4 978.8,634.7 	"/>
	<polygon class="st66" points="1022,514.7 799,495.7 813.4,584.4 	"/>
	<polygon class="st67" points="1022,840.7 969.2,836 983.6,862.4 	"/>
	<polygon class="st68" points="1010,414.1 856.5,339.7 799,495.7 	"/>
	<polygon class="st69" points="950,159.8 928.5,152.6 856.5,339.7 	"/>
	<polygon class="st70" points="957.2,783.2 954.8,725.7 940.3,752.2 	"/>
	<polygon class="st71" points="950,159.8 916.5,97.6 928.5,152.6 	"/>
	<polygon class="st72" points="983.6,862.4 969.2,836 873.2,975 	"/>
	<polygon class="st73" points="983.6,25.8 983.6,8.9 940.3,59.2 	"/>
	<polygon class="st74" points="983.6,8.9 892.5,-7.9 940.3,59.2 	"/>
	<polygon class="st75" points="978.8,634.7 813.4,584.4 954.8,725.7 	"/>
	<polygon class="st76" points="954.8,725.7 813.4,584.4 777.4,637 	"/>
	<polygon class="st77" points="969.2,836 957.2,783.2 755.9,809.7 	"/>
	<polygon class="st78" points="969.2,836 755.9,809.7 873.2,975 	"/>
	<polygon class="st79" points="957.2,783.2 940.3,752.2 755.9,809.7 	"/>
	<polygon class="st80" points="954.8,725.7 777.4,637 940.3,752.2 	"/>
	<polygon class="st81" points="928.5,152.6 741.5,303.8 856.5,339.7 	"/>
	<polygon class="st82" points="928.5,152.6 755.9,107.3 715.1,157.6 	"/>
	<polygon class="st83" points="928.5,152.6 715.1,157.6 741.5,303.8 	"/>
	<polygon class="st84" points="940.3,752.2 777.4,637 753.5,752.2 	"/>
	<polygon class="st85" points="940.3,752.2 753.5,752.2 755.9,809.7 	"/>
	<polygon class="st86" points="940.3,59.2 861.2,56.9 916.5,97.6 	"/>
	<polygon class="st87" points="940.3,59.2 892.5,-7.9 861.2,56.9 	"/>
	<polygon class="st88" points="873.2,975 755.9,809.7 736.7,922.2 	"/>
	<polygon class="st89" points="928.5,152.6 916.5,97.6 755.9,107.3 	"/>
	<polygon class="st90" points="916.5,97.6 861.2,56.9 755.9,107.3 	"/>
	<polygon class="st91" points="892.5,-7.9 835,-3.1 861.2,56.9 	"/>
	<polygon class="st92" points="856.5,339.7 710.2,359 799,495.7 	"/>
	<polygon class="st93" points="861.2,56.9 835,-3.1 755.9,107.3 	"/>
	<polygon class="st94" points="856.5,339.7 741.5,303.8 710.2,359 	"/>
	<polygon class="st95" points="777.4,637 724.7,689.7 753.5,752.2 	"/>
	<polygon class="st96" points="813.4,584.4 799,495.7 760.6,536.4 	"/>
	<polygon class="st97" points="835,-3.1 669.5,-10.2 755.9,107.3 	"/>
	<polygon class="st98" points="813.4,584.4 760.6,536.4 777.4,637 	"/>
	<polygon class="st99" points="799,495.7 710.2,359 760.6,536.4 	"/>
	<polygon class="st100" points="755.9,809.7 676.7,848 736.7,922.2 	"/>
	<polygon class="st101" points="749.8,527.9 699.4,350.5 565.2,489.5 	"/>
	<polygon class="st102" points="777.4,637 760.6,536.4 688.7,644.2 	"/>
	<polygon class="st103" points="741.5,303.8 715.1,157.6 648,291.8 	"/>
	<polygon class="st104" points="777.4,637 688.7,644.2 724.7,689.7 	"/>
	<polygon class="st105" points="755.9,107.3 669.5,-10.2 631.2,92.9 	"/>
	<polygon class="st106" points="755.9,809.7 753.5,752.2 676.7,848 	"/>
	<polygon class="st107" points="760.6,536.4 576.1,498 688.7,644.2 	"/>
	<polygon class="st108" points="755.9,107.3 631.2,92.9 715.1,157.6 	"/>
	<polygon class="st109" points="753.5,752.2 724.7,689.7 676.7,848 	"/>
	<polygon class="st110" points="710.2,335.4 626.4,323.2 576.1,474.4 	"/>
	<polygon class="st111" points="724.7,689.7 590.4,697 676.7,848 	"/>
	<polygon class="st112" points="723.4,309.8 629.9,297.8 692.2,365 	"/>
	<polygon class="st113" points="736.7,922.2 676.7,848 578.5,972.5 	"/>
	<polygon class="st114" points="676.7,848 590.4,697 578.5,824 	"/>
	<polygon class="st115" points="715.1,157.6 571.2,210.3 648,291.8 	"/>
	<polygon class="st116" points="724.7,689.7 688.7,644.2 590.4,697 	"/>
	<polygon class="st117" points="715.1,157.6 631.2,92.9 571.2,210.3 	"/>
	<polygon class="st118" points="676.7,848 578.5,824 578.5,972.5 	"/>
	<polygon class="st119" points="688.7,644.2 576.1,498 590.4,697 	"/>
	<polygon class="st120" points="626.4,346.8 552.1,356.4 576.1,498 	"/>
	<polygon class="st121" points="669.5,-10.2 578.5,-62.9 631.2,92.9 	"/>
	<polygon class="st122" points="590.4,697 576.1,498 468.2,641.7 	"/>
	<polygon class="st123" points="648,291.8 571.2,210.3 516.1,248.6 	"/>
	<polygon class="st124" points="648,291.8 552.1,356.4 626.4,346.8 	"/>
	<polygon class="st125" points="648,291.8 516.1,248.6 552.1,356.4 	"/>
	<polygon class="st126" points="576.1,498 453.8,555.4 468.2,641.7 	"/>
	<polygon class="st124" points="576.1,498 552.1,356.4 501.7,421.2 	"/>
	<polygon class="st127" points="631.2,92.9 578.5,-62.9 408.2,6.5 	"/>
	<polygon class="st128" points="631.2,92.9 408.2,6.5 508.9,164.6 	"/>
	<polygon class="st129" points="631.2,92.9 508.9,164.6 571.2,210.3 	"/>
	<polygon class="st130" points="590.4,697 485,716.2 578.5,824 	"/>
	<polygon class="st131" points="576.1,498 501.7,421.2 499.2,459.6 	"/>
	<polygon class="st132" points="578.5,824 506.5,999 578.5,972.5 	"/>
	<polygon class="st133" points="552.1,356.4 499.2,402.1 501.7,421.2 	"/>
	<polygon class="st134" points="590.4,697 468.2,641.7 485,716.2 	"/>
	<polygon class="st135" points="578.5,824 485,716.2 465.8,728.2 	"/>
	<polygon class="st136" points="576.1,498 499.2,459.6 453.8,555.4 	"/>
	<polygon class="st137" points="578.5,824 317.1,828.7 506.5,999 	"/>
	<polygon class="st138" points="578.5,824 465.8,728.2 317.1,828.7 	"/>
	<polygon class="st139" points="506.5,999 317.1,828.7 393.9,1011 	"/>
	<polygon class="st140" points="571.2,210.3 508.9,164.6 516.1,248.6 	"/>
	<polygon class="st141" points="552.1,356.4 516.1,248.6 415.4,320.7 	"/>
	<polygon class="st142" points="552.1,356.4 415.4,320.7 499.2,402.1 	"/>
	<polygon class="st143" points="516.1,248.6 415.4,263.1 415.4,320.7 	"/>
	<polygon class="st144" points="516.1,248.6 508.9,164.6 420.2,243.8 	"/>
	<polygon class="st145" points="485,716.2 468.2,641.7 446.6,685 	"/>
	<polygon class="st146" points="508.9,164.6 408.2,6.5 326.7,52.2 	"/>
	<polygon class="st147" points="508.9,164.6 326.7,52.2 398.7,224.6 	"/>
	<polygon class="st148" points="516.1,248.6 420.2,243.8 415.4,263.1 	"/>
	<polygon class="st149" points="508.9,164.6 398.7,224.6 420.2,243.8 	"/>
	<polygon class="st150" points="501.7,421.2 333.9,478.8 499.2,459.6 	"/>
	<polygon class="st151" points="501.7,421.2 499.2,402.1 333.9,478.8 	"/>
	<polygon class="st152" points="499.2,402.1 415.4,320.7 333.9,478.8 	"/>
	<polygon class="st153" points="499.2,459.6 333.9,478.8 453.8,555.4 	"/>
	<polygon class="st154" points="485,716.2 446.6,685 465.8,728.2 	"/>
	<polygon class="st155" points="465.8,728.2 446.6,685 317.1,828.7 	"/>
	<polygon class="st156" points="468.2,641.7 453.8,555.4 278.8,651.4 	"/>
	<polygon class="st157" points="468.2,641.7 278.8,651.4 446.6,685 	"/>
	<polygon class="st158" points="398.7,224.6 326.7,52.2 355.5,227.1 	"/>
	<polygon class="st159" points="446.6,685 290.8,812 317.1,828.7 	"/>
	<polygon class="st160" points="446.6,685 252.4,721 290.8,812 	"/>
	<polygon class="st161" points="446.6,685 278.8,651.4 252.4,721 	"/>
	<polygon class="st162" points="453.8,555.4 333.9,478.8 278.8,651.4 	"/>
	<polygon class="st163" points="355.5,227.1 326.7,52.2 269.2,128.9 	"/>
	<polygon class="st164" points="415.4,320.7 321.9,303.8 333.9,478.8 	"/>
	<polygon class="st165" points="415.4,320.7 415.4,263.1 321.9,303.8 	"/>
	<polygon class="st165" points="420.2,243.8 398.7,224.6 415.4,263.1 	"/>
	<polygon class="st166" points="393.9,1011 317.1,828.7 223.6,1011 	"/>
	<polygon class="st167" points="415.4,263.1 355.5,227.1 321.9,303.8 	"/>
	<polygon class="st168" points="415.4,263.1 398.7,224.6 355.5,227.1 	"/>
	<polygon class="st169" points="333.9,478.8 321.9,303.8 259.6,311.1 	"/>
	<polygon class="st170" points="317.1,828.7 156.5,944 223.6,1011 	"/>
	<polygon class="st171" points="333.9,478.8 187.7,495.7 278.8,651.4 	"/>
	<polygon class="st172" points="355.5,227.1 288.4,258.2 321.9,303.8 	"/>
	<polygon class="st173" points="355.5,227.1 269.2,128.9 288.4,258.2 	"/>
	<polygon class="st174" points="317.1,828.7 290.8,812 156.5,944 	"/>
	<polygon class="st175" points="333.9,478.8 259.6,311.1 154.1,390.1 	"/>
	<polygon class="st176" points="333.9,478.8 154.1,390.1 187.7,495.7 	"/>
	<polygon class="st177" points="288.4,258.2 269.2,128.9 228.4,241.4 	"/>
	<polygon class="st178" points="290.8,812 252.4,721 238,740.2 	"/>
	<polygon class="st179" points="326.7,52.2 283.6,1.8 269.2,128.9 	"/>
	<polygon class="st180" points="321.9,303.8 288.4,258.2 259.6,311.1 	"/>
	<polygon class="st181" points="283.6,1.8 199.7,109.6 269.2,128.9 	"/>
	<polygon class="st182" points="269.2,128.9 221.2,133.6 228.4,241.4 	"/>
	<polygon class="st183" points="278.8,651.4 187.7,495.7 178.1,673 	"/>
	<polygon class="st184" points="290.8,812 238,740.2 156.5,944 	"/>
	<polygon class="st185" points="288.4,258.2 228.4,241.4 259.6,311.1 	"/>
	<polygon class="st179" points="269.2,128.9 199.7,109.6 221.2,133.6 	"/>
	<polygon class="st186" points="283.6,1.8 226,-74.9 199.7,109.6 	"/>
	<polygon class="st187" points="278.8,651.4 178.1,673 252.4,721 	"/>
	<polygon class="st188" points="226,-74.9 103.8,-84.7 199.7,109.6 	"/>
	<polygon class="st189" points="238,740.2 -6.5,816.7 156.5,944 	"/>
	<polygon class="st190" points="259.6,311.1 228.4,241.4 154.1,390.1 	"/>
	<polygon class="st191" points="187.7,495.7 154.1,390.1 134.9,452.4 	"/>
	<polygon class="st192" points="199.7,109.6 103.8,-84.7 163.7,121.6 	"/>
	<polygon class="st193" points="228.4,241.4 79.8,323.1 154.1,390.1 	"/>
	<polygon class="st194" points="228.4,241.4 113.4,229.6 79.8,323.1 	"/>
	<polygon class="st195" points="238,740.2 15.1,737.7 -6.5,816.7 	"/>
	<polygon class="st196" points="252.4,721 178.1,673 238,740.2 	"/>
	<polygon class="st197" points="163.7,121.6 103.8,-84.7 36.7,47.2 	"/>
	<polygon class="st198" points="187.7,495.7 65.4,615.4 178.1,673 	"/>
	<polygon class="st199" points="228.4,241.4 221.2,133.6 163.7,121.6 	"/>
	<polygon class="st200" points="228.4,241.4 163.7,121.6 113.4,229.6 	"/>
	<polygon class="st201" points="238,740.2 178.1,673 15.1,737.7 	"/>
	<polygon class="st202" points="221.2,133.6 199.7,109.6 163.7,121.6 	"/>
	<polygon class="st203" points="178.1,673 48.6,663.4 15.1,737.7 	"/>
	<polygon class="st204" points="187.7,495.7 27.1,534 65.4,615.4 	"/>
	<polygon class="st205" points="187.7,495.7 134.9,452.4 27.1,534 	"/>
	<polygon class="st206" points="178.1,673 65.4,615.4 48.6,663.4 	"/>
	<polygon class="st207" points="163.7,121.6 46.2,186.3 113.4,229.6 	"/>
	<polygon class="st208" points="163.7,121.6 36.7,47.2 46.2,186.3 	"/>
	<polygon class="st209" points="156.5,944 -6.5,816.7 -71.2,908 	"/>
	<polygon class="st210" points="154.1,390.1 79.8,323.1 134.9,452.4 	"/>
	<polygon class="st210" points="120,416.7 72.1,328.7 81.2,469.2 	"/>
	<polygon class="st210" points="142.1,445.2 67.8,378.1 122.9,507.4 	"/>
	<polygon class="st210" points="109.3,471.4 35,404.4 90.1,533.9 	"/>
	<polygon class="st210" points="104.9,230.6 30.7,163.6 85.8,293 	"/>
</g>
<g>
	<text transform="matrix(1 0 0 1 345.9812 535.0799)" class="st211 st212 st213">Utilizzo di agenti conversazionali per potenziare i sistemi di telemedicina</text>
	<text transform="matrix(1 0 0 1 451.6312 502.9769)" class="st214 st215 st216">BENVENUTO AL PANNELLO DI AMMINISTRAZIONE</text>
	<g>
		
			<image style="overflow:visible;enable-background:new    ;" width="1985" height="3060" xlink:href="piano_logo.png"  transform="matrix(7.581867e-02 0 0 7.581867e-02 987.45 252.0975)">
		</image>
		
			<image style="overflow:visible;enable-background:new    ;" width="1966" height="556" xlink:href="90548544AA600FF3.png"  transform="matrix(0.2816 0 0 0.2816 438.9 332.0224)">
		</image>
	</g>
</g>
<polygon class="st217" points="624.3,363.2 718.5,368.2 651.3,306 "/>
</svg>
