<?xml version="1.0" encoding="utf-8"?>
<!-- Generator: Adobe Illustrator 19.0.0, SVG Export Plug-In . SVG Version: 6.00 Build 0)  -->
<svg version="1.1" id="Capa_1" xmlns="http://www.w3.org/2000/svg" xmlns:xlink="http://www.w3.org/1999/xlink" x="0px" y="0px"
	 viewBox="94 -4 800 800" style="enable-background:new 94 -4 800 800;" xml:space="preserve">
<style type="text/css">
	.st0{fill:#6EAA6F;}
	.st1{fill:#483224;}
	.st2{fill:#7AB098;}
	.st3{fill:#517C6B;}
	.st4{fill:#D58455;}
	.st5{fill:#463023;}
	.st6{fill:#80B0A5;}
	.st7{fill:#C85449;}
	.st8{fill:#76AADB;}
	.st9{fill:#A0BCDF;stroke:#DB9600;stroke-miterlimit:10;}
	.st10{fill:#533726;}
	.st11{fill:#E7C264;}
	.st12{fill:#AA4057;}
	.st13{fill:none;stroke:#99654B;stroke-miterlimit:10;}
	.st14{fill:#483125;}
	.st15{fill:#537E70;}
	.st16{fill:#D8D9DD;}
	.st17{fill:#E6C05C;}
	.st18{fill:#C65044;}
	.st19{fill:#E8C761;}
	.st20{fill:#B84E47;}
	.st21{fill:#402B25;}
	.st22{fill:#FFFDFC;}
	.st23{fill:#C2C3C9;}
	.st24{fill:#C64832;}
	.st25{fill:#CB6120;}
	.st26{fill:#C64832;stroke:#453124;stroke-miterlimit:10;}
	.st27{fill:none;stroke:#453124;stroke-miterlimit:10;}
	.st28{fill:#D17843;}
	.st29{fill:#A01127;}
	.st30{font-family:'MyriadPro-Regular';}
	.st31{font-size:78.1862px;}
</style>
<g>
	<g>
		<g>
			<path class="st0" d="M669.9,474.9c0,14-10.9,25.4-24.3,25.4H409.3c-13.4,0-24.3-11.4-24.3-25.4V330.5c0-14,10.9-25.4,24.3-25.4
				h236.3c13.4,0,24.3,11.4,24.3,25.4L669.9,474.9L669.9,474.9z"/>
			<g>
				<rect x="590.9" y="54.5" class="st1" width="3.8" height="96.8"/>
				<g>
					<g>
						<path class="st2" d="M564.4,28.1c-0.9-0.7-1-2-0.3-2.9l0,0c6.6-8.2,16.8-13.4,28.1-13.4l0,0c9.5,0,18.1,3.7,24.6,9.7l0,0
							c0.8,0.8,0.9,2.1,0.1,2.9l0,0c-0.8,0.8-2.1,0.9-2.9,0.1l0,0c-5.7-5.3-13.4-8.5-21.8-8.5l0,0c-10,0-19,4.6-24.9,11.9l0,0
							c-0.4,0.5-1,0.8-1.6,0.8l0,0C565.2,28.5,564.8,28.4,564.4,28.1L564.4,28.1z"/>
					</g>
					<g>
						<path class="st2" d="M570,32.9c-0.9-0.7-1-2-0.3-2.9l0,0c5.3-6.6,13.4-10.9,22.5-10.9l0,0c7.6,0,14.5,3,19.7,7.8l0,0
							c0.8,0.8,0.9,2.1,0.1,2.9l0,0c-0.8,0.8-2.1,0.9-2.9,0.1l0,0c-4.4-4.1-10.3-6.6-16.8-6.6l0,0c-7.8,0-14.8,3.6-19.3,9.3l0,0v0
							c-0.4,0.5-1,0.8-1.6,0.8l0,0C570.8,33.3,570.4,33.2,570,32.9L570,32.9z"/>
					</g>
					<g>
						<path class="st2" d="M575.7,37.5c-0.9-0.7-1-2-0.3-2.9l0,0c3.9-5,10-8.2,16.9-8.2l0,0c5.8,0,11.1,2.3,14.9,6l0,0
							c0.8,0.8,0.8,2.1,0.1,2.9l0,0c-0.8,0.8-2.1,0.8-2.9,0l0,0c-3.1-3-7.4-4.9-12.1-4.9l0,0c-5.5,0-10.4,2.6-13.6,6.6l0,0h0
							c-0.4,0.5-1,0.8-1.6,0.8l0,0C576.5,37.9,576,37.8,575.7,37.5L575.7,37.5z"/>
					</g>
					<circle class="st1" cx="592.2" cy="47.9" r="12.1"/>
				</g>
			</g>
			<ellipse class="st3" cx="590.4" cy="120" rx="22.7" ry="17"/>
			<path class="st4" d="M367.3,391c0,5.2-4.2,9.4-9.4,9.4l0,0c-5.2,0-9.4-4.2-9.4-9.4v-55.6c0-5.2,4.2-9.4,9.4-9.4l0,0
				c5.2,0,9.4,4.2,9.4,9.4V391z"/>
			<path class="st4" d="M397.6,473.1c2.5,4.6,0.8,10.3-3.8,12.8l0,0c-4.6,2.5-10.3,0.8-12.8-3.8l-26.5-48.9
				c-2.5-4.6-0.8-10.3,3.8-12.8l0,0c4.6-2.5,10.3-0.8,12.8,3.8L397.6,473.1z"/>
			<path class="st5" d="M343.4,411.9c0-7.3,5.9-13.2,13.2-13.2c7.3,0,13.2,5.9,13.2,13.2c0,7.3-5.9,13.2-13.2,13.2
				C349.3,425,343.4,419.1,343.4,411.9z"/>
			<path class="st6" d="M377.3,498.5c0,0-14.6-26.2,1.4-34.8c16-8.7,26.9,1.7,35.9,18.3c0,0,1.7,6.8-2.4,9
				c-4.1,2.2-5.6-11.4-10.2-12.7c-4.6-1.4-4.1,6.7,0.1,14.5c4.2,7.8-5.6,11.4-11.8,14.8C384.1,510.9,382.3,507.5,377.3,498.5z"/>
			<path class="st7" d="M384.2,356.8c0,5-4.1,9.1-9.1,9.1l0,0c-5,0-9.1-4.1-9.1-9.1V332c0-5,4.1-9.1,9.1-9.1l0,0
				c5,0,9.1,4.1,9.1,9.1V356.8z"/>
			<polygon class="st8" points="642.7,291.4 405.4,291.4 421,117.5 624.2,117.5 			"/>
			<path class="st9" d="M645.3,295.7c0,5.5-7.3,9.9-16.2,9.9H414.7c-9,0-16.2-4.4-16.2-9.9v-4.5c0-5.5,7.3-9.9,16.2-9.9H629
				c9,0,16.2,4.4,16.2,9.9L645.3,295.7L645.3,295.7z"/>
			<g>
				<path class="st10" d="M474.7,363.1c-0.3-0.3-5.2-6.6-1.4-14.4l0.5-1.1c4.3-8.8,14.2-29.5,49.8-29.8l0.7,0l0.1,0
					c35.6,0.3,45.5,21,49.8,29.8l0.5,1.1c3.8,7.7-1.1,14.1-1.3,14.3l-17.3,24.9l-32-0.1l-32.1,0.1L474.7,363.1z"/>
				<path class="st11" d="M523.9,318.8l0.6,0c35,0.3,44.7,20.6,48.9,29.3c0.2,0.4,0.4,0.8,0.5,1.1c3.5,7.1-1,13-1.2,13.3l0,0.1
					l0,0.1l-17,24.4l-31.5-0.1l-31.5,0.1l-17-24.4l0-0.1l0-0.1c0-0.1-4.8-6-1.2-13.3c0.2-0.3,0.3-0.7,0.5-1.1
					c4.2-8.7,13.9-29,48.9-29.3L523.9,318.8 M524.5,316.7c-0.1,0-0.3,0-0.4,0c-0.1,0-0.3,0-0.4,0v0c-37.8,0.3-47.1,23.2-51.2,31.5
					c-4.1,8.4,1.5,15.4,1.5,15.4l17.6,25.3l32.6-0.1l32.6,0.1l17.6-25.3c0,0,5.6-7,1.5-15.4C571.6,339.9,562.3,317.1,524.5,316.7
					L524.5,316.7L524.5,316.7z"/>
			</g>
			<path class="st12" d="M411.7,211.7c-0.5,5.1-5.1,8.8-10.3,8.3l0,0c-5.2-0.5-9-5-8.5-10.1l3.8-40.2c0.5-5.1,5.1-8.8,10.3-8.3l0,0
				c5.2,0.5,9,5,8.5,10.1L411.7,211.7z"/>
			<path class="st12" d="M652.5,209.2c0.4,5.1-3.5,9.5-8.7,9.9l0,0c-5.2,0.4-9.7-3.4-10.1-8.5l-3-40.3c-0.4-5.1,3.5-9.5,8.7-9.9l0,0
				c5.2-0.4,9.7,3.4,10.1,8.5L652.5,209.2z"/>
			<path class="st13" d="M555.8-298.5"/>
			<polyline class="st11" points="518.3,384.3 510,352.8 535.2,384.5 			"/>
			<path class="st14" d="M571.5,473.5c0,4.7-3.8,8.5-8.5,8.5h-82.1c-4.7,0-8.5-3.8-8.5-8.5l0,0c0-4.7,3.8-8.5,8.5-8.5h82.1
				C567.7,465,571.5,468.8,571.5,473.5L571.5,473.5z"/>
			<rect x="427.7" y="502.4" class="st15" width="54.8" height="168.9"/>
			<path class="st16" d="M614.3,192c0,13.4-10.9,24.3-24.3,24.3H456.6c-13.4,0-24.3-10.9-24.3-24.3v-8.6c0-13.4,10.9-24.3,24.3-24.3
				H590c13.4,0,24.3,10.9,24.3,24.3L614.3,192L614.3,192z"/>
			<path class="st17" d="M495,577.4c0,10.5-8.5,18.9-18.9,18.9h-43.3c-10.5,0-18.9-8.5-18.9-18.9l0,0c0-10.5,8.5-18.9,18.9-18.9
				h43.3C486.5,558.5,495,567,495,577.4L495,577.4z"/>
			<path class="st18" d="M455.4,652.1c24,0,43.5,15.9,43.5,39.9h-87.1C411.8,668,431.3,652.1,455.4,652.1z"/>
			<rect x="573.3" y="502.4" class="st15" width="54.8" height="168.9"/>
			<path class="st17" d="M640.6,577.4c0,10.5-8.5,18.9-18.9,18.9h-43.3c-10.5,0-18.9-8.5-18.9-18.9l0,0c0-10.5,8.5-18.9,18.9-18.9
				h43.3C632.1,558.5,640.6,567,640.6,577.4L640.6,577.4z"/>
			<path class="st18" d="M601,652.1c24.1,0,43.5,15.9,43.5,39.9h-87.1C557.4,668,576.9,652.1,601,652.1z"/>
			<g>
				<path class="st19" d="M445,188.8c0-11.4,9.3-20.7,20.7-20.7c11.4,0,20.7,9.3,20.7,20.7c0,11.4-9.3,20.7-20.7,20.7
					C454.3,209.5,445,200.3,445,188.8z"/>
				<path class="st20" d="M450.7,189.1c0-8.6,7-15.6,15.6-15.6c8.6,0,15.6,7,15.6,15.6c0,8.6-7,15.6-15.6,15.6
					C457.7,204.7,450.7,197.7,450.7,189.1z"/>
				<path class="st21" d="M460.4,188.6c0-3.4,2.7-6.1,6.1-6.1c3.4,0,6.1,2.7,6.1,6.1s-2.7,6.1-6.1,6.1
					C463.2,194.7,460.4,192,460.4,188.6z"/>
				<circle class="st22" cx="472.2" cy="187.4" r="4.1"/>
			</g>
			<g>
				<path class="st19" d="M540.9,188.8c0-21.5,17.4-38.9,39-38.9s39,17.4,39,38.9c0,21.5-17.4,39-39,39
					C558.3,227.8,540.9,210.4,540.9,188.8z"/>
				<path class="st20" d="M551.5,189.3c0-16.3,13.2-29.4,29.4-29.4c16.3,0,29.4,13.2,29.4,29.4s-13.2,29.4-29.4,29.4
					C564.7,218.7,551.5,205.5,551.5,189.3z"/>
				<circle class="st21" cx="581.4" cy="188.4" r="11.5"/>
				<path class="st22" d="M584.2,186.2c0-4.3,3.5-7.7,7.7-7.7c4.3,0,7.7,3.5,7.7,7.7s-3.5,7.7-7.7,7.7
					C587.7,193.9,584.2,190.5,584.2,186.2z"/>
			</g>
			<g>
				<rect x="456.5" y="250.2" class="st19" width="17.3" height="17.3"/>
				<rect x="484.8" y="250.2" class="st23" width="17.3" height="17.3"/>
				<rect x="513.2" y="250.2" class="st19" width="17.3" height="17.3"/>
				<rect x="541.6" y="250.2" class="st24" width="17.3" height="17.3"/>
				<rect x="570" y="250.2" class="st19" width="17.3" height="17.3"/>
			</g>
			<g>
				<path class="st4" d="M686.7,389.3c0.1,4.8,4.4,8.6,9.6,8.6l0,0c5.2-0.1,9.4-4,9.3-8.8l-0.8-51.2c-0.1-4.8-4.4-8.6-9.6-8.6l0,0
					c-5.2,0.1-9.4,4-9.3,8.8L686.7,389.3z"/>
				<path class="st4" d="M755.1,425.2c4.8,0.3,8.9-3.7,9.2-9l0,0c0.3-5.2-3.4-9.6-8.2-9.9l-51.2-2.8c-4.8-0.3-8.9,3.7-9.2,9l0,0
					c-0.3,5.2,3.4,9.6,8.2,9.9L755.1,425.2z"/>
				
					<ellipse transform="matrix(-1.489984e-02 -0.9999 0.9999 -1.489984e-02 299.7824 1111.9988)" class="st5" cx="697.7" cy="408.3" rx="12.2" ry="13.2"/>
				<path class="st6" d="M788.7,429c0,0-26.9,6.3-30.5-10.3c-3.7-16.7,8.2-23.8,25.2-27.5c0,0,6.5,0.3,7.4,4.5
					c0.9,4.2-11.5,2-13.9,5.8c-2.4,3.8,4.9,5.4,12.9,3.7c8-1.8,8.7,8,10.1,14.5C801.4,426.1,798,426.9,788.7,429z"/>
				<path class="st7" d="M669.4,358c0.1,4.6,4.2,8.3,9.2,8.2l0,0c5-0.1,9-3.9,8.9-8.5l-0.3-22.8c-0.1-4.6-4.2-8.3-9.2-8.2l0,0
					c-5,0.1-9,3.9-9,8.5L669.4,358z"/>
			</g>
			<g>
				<g>
					<path class="st24" d="M476.4,269.7c-3.9,14.7-4.2,32.6,1,47c17.7-6.2,34.7-13.5,47.9-22.6C510.4,285.3,495.7,275.8,476.4,269.7
						z"/>
					<path class="st24" d="M571.8,318.3c3.9-14.7,4.2-32.6-1-47c-17.7,6.2-34.7,13.5-47.9,22.6C537.8,302.7,552.4,312.2,571.8,318.3
						z"/>
				</g>
				<path class="st25" d="M534.1,301.2c0,1.4-1.2,2.6-2.6,2.6h-14.7c-1.4,0-2.6-1.2-2.6-2.6v-14.7c0-1.4,1.2-2.6,2.6-2.6h14.7
					c1.4,0,2.6,1.2,2.6,2.6V301.2z"/>
			</g>
			<g>
				<rect x="478.2" y="400.5" class="st26" width="90.2" height="66.7"/>
				<line class="st27" x1="478.2" y1="444.9" x2="568.4" y2="444.9"/>
				<line class="st27" x1="478.2" y1="422.7" x2="568.4" y2="422.7"/>
				<line class="st27" x1="545.9" y1="400.5" x2="545.9" y2="467.2"/>
				<line class="st27" x1="523.3" y1="400.5" x2="523.3" y2="467.2"/>
				<line class="st27" x1="500.8" y1="400.5" x2="500.8" y2="467.2"/>
			</g>
			<rect x="612.1" y="312.1" class="st28" width="32" height="42.8"/>
			<g>
				<rect x="400.3" y="404.7" class="st28" width="64" height="58.2"/>
				<text transform="matrix(1 0 0 1 409.6767 456.7372)" class="st29 st30 st31">+</text>
			</g>
			<g>
				<path class="st19" d="M431.5,189.1c0-21.5,17.4-38.9,39-38.9s39,17.4,39,38.9c0,21.5-17.4,39-39,39
					C448.9,228,431.5,210.6,431.5,189.1z"/>
				<path class="st20" d="M442.1,189.5c0-16.3,13.2-29.4,29.4-29.4c16.3,0,29.4,13.2,29.4,29.4S487.8,219,471.5,219
					C455.3,219,442.1,205.8,442.1,189.5z"/>
				<circle class="st21" cx="472" cy="188.6" r="11.5"/>
				<path class="st22" d="M474.8,186.4c0-4.3,3.5-7.7,7.7-7.7c4.3,0,7.7,3.5,7.7,7.7s-3.5,7.7-7.7,7.7
					C478.3,194.2,474.8,190.7,474.8,186.4z"/>
			</g>
			
				<rect x="645" y="149.4" transform="matrix(-0.9973 7.369857e-02 -7.369857e-02 -0.9973 1314.1296 329.7089)" class="st19" width="12" height="79.4"/>
			
				<rect x="388.8" y="150" transform="matrix(-0.9956 -9.330354e-02 9.330354e-02 -0.9956 770.0955 415.5157)" class="st19" width="12" height="79.4"/>
		</g>
	</g>
</g>
</svg>
