<?xml version="1.0" encoding="utf-8"?>
<!-- Generator: Adobe Illustrator 19.0.0, SVG Export Plug-In . SVG Version: 6.00 Build 0)  -->
<svg version="1.1" id="Layer_1" xmlns="http://www.w3.org/2000/svg" xmlns:xlink="http://www.w3.org/1999/xlink" x="0px" y="0px"
	 viewBox="-433 435 32 32" style="enable-background:new -433 435 32 32;" xml:space="preserve">
<style type="text/css">
	.st0{fill:#FBD9B1;}
	.st1{fill:#EAE1DA;}
	.st2{fill:#E29C6E;}
	.st3{fill:#645247;}
	.st4{opacity:0.2;fill:#DDD5D0;enable-background:new    ;}
	.st5{fill:#E0B386;}
	.st6{fill:#EEE6E0;}
	.st7{fill:#779FAA;}
	.st8{fill:#333C51;}
	.st9{opacity:0.7;fill:#678B93;enable-background:new    ;}
	.st10{fill:#665342;}
	.st11{fill:#BA7C52;}
	.st12{fill:#F2CBA5;}
	.st13{fill:#F7ECE4;}
</style>
<g>
	<path class="st0" d="M-409.3,444.2c0,0-0.2-0.5,0.3-0.6l0.2-0.2c0,0,0.1-0.1,0.3-0.1c0,0,0.1,0,0.1-0.1c0,0,0.1,0,0.1,0.1
		c0,0,0,0,0,0S-409.1,444-409.3,444.2z"/>
	<rect x="-407.5" y="444.3" class="st1" width="0" height="0"/>
	<path class="st0" d="M-409,444.5c0,0,0.4-0.4,0.2-0.8c-0.1-0.1-0.1-0.1-0.1-0.1c-0.1,0-0.1,0.1-0.2,0.2c-0.4,0.3-0.2,0.7-0.6,0.9
		c-0.4,0.2-2.3,1-2.5,1c-0.2,0-0.3-0.4-0.1-0.6c0.2-0.2,0.9-0.7,0.3-1.8c-0.6-1.2-0.7-1.5-0.9-1.8s-0.7-0.7-0.7-0.9
		c0-0.2,0.1-0.3,0.4-0.4c-0.7-0.2-0.7-1.3-0.7-1.3c0.2-0.1,0.3-0.9,0.3-0.9c0-0.3,0.2-0.9,0.2-0.9c0.6-0.2,1.2-0.9,1.2-0.9
		s-0.1-1.4-1.7-1.1c-1.7,0.3-1.7,1.8-2,2c-0.3,0.1-0.3,0.5-0.4,0.7c-0.1,0.2-0.5,0.9-0.6,1.2c0,0,0.2-0.3,0.4-0.2
		c0.1,0.2,0.1,0.3,0,0.5c-0.1,0.2,0,0.6-0.1,0.8c-0.1,0.2-0.3,0.3-0.4,0.4c-0.1,0.1-0.5,0.4-1.2,0.9c-0.7,0.5-2,1.3-2.2,1.7
		c0,0,0.1,0.6,0.1,1.2c0,0.6,0.3,1.2,0.6,1.9c0.3,0.6,0.6,1.3,0.6,1.6c0,0.3,0.4,0.7,0.2,1c-0.2,0.2-0.2,0.3,0.1,0.3
		c0,0-0.4,0.5-0.4,1.2c0,0.7,0.4,1.5,0,2.4c-0.4,0.9-0.6,1.4-0.8,2c-0.2,0.6-0.1,1.7-0.6,2.3c-0.5,0.7-1.1,0.9-2,2
		c-0.9,1-1.4,2.9-2.3,3.7c0,0,0.2,1.2,1,1.2c0.1-0.3,0.3-0.6,0.6-1c0.9-0.9,3.2-2.8,3.5-3.1c0.3-0.2,0.7-0.5,1.3-1.4
		c0.7-1,2.7-4.2,2.7-4.5c0,0,0.7,0,1.6,0.4c0.9,0.4,2,1.4,1.5,1.5c-0.5,0.1-1.5,0.8-2.7,1.8c-0.7,0.5-1.2,0.9-1.7,1.1
		c0.1,0.4,0.2,1.2,0.4,1.6c0.1-0.1,0.2-0.3,0.3-0.4c0.5-0.3,2-1.1,3.8-1.5c1.8-0.4,3.6-1,3.5-2c-0.1-1-1-1.8-1.7-2.6
		c-0.7-0.8-3.3-3.2-3.2-3.6c0.1-0.4,0.4-2.3,0.4-2.6c0-0.2,0,0.3,0.4,0.2c0.4,0,0.9-0.4,1.5-0.7c0.6-0.3,1.7-1.5,2.2-1.6
		c0.2,0,0.4,0,0.5-0.1C-408.8,445.1-409.2,444.9-409,444.5z M-417.3,446.9c-0.2,0.3-0.5,0.9-0.5,0.9s-0.6-1.4-0.6-2.3
		c0-0.9-0.1-2-0.1-2l1-0.4c0,0,0.2,1.5,0.5,2.1C-416.8,445.8-417.1,446.6-417.3,446.9z"/>
	<path class="st0" d="M-413.3,437c0,0-0.3,0.7-0.2,0.9c0,0-0.1,0.7-0.3,0.9c0,0,0,1.1,0.7,1.3c0.1,0,0.1,0,0.2,0c0.4,0,1,0,1-0.5
		c0,0-0.1-0.2,0-0.4c0.1-0.1-0.1-0.3,0-0.3c0.1,0,0-0.4,0.2-0.4s0.4,0,0.2-0.4c-0.2-0.4-0.4-0.6-0.4-0.9c0-0.2,0-0.8-0.3-1.1
		C-412.1,436.1-412.7,436.9-413.3,437z"/>
	<path class="st2" d="M-424.8,462.5c-0.9,0.9-1.7,1.2-1.7,1.5c0,0.4,0.4,0.6,0.9,1.2c0.5,0.6,1.2,1.8,1.9,1.8c0.7,0,1.3-0.1,1.3-0.4
		c0-0.3-0.1-0.4-0.6-0.5c0,0-0.2-0.1-0.3-0.1c-0.2-0.1-0.2-0.1-0.3-0.2c-0.1-0.2-0.1-0.3-0.1-0.4c-0.1-0.1-0.1-0.4-0.1-0.4
		s0-0.3-0.1-0.3c-0.1,0-0.2-0.1-0.1-0.2c0.1-0.1,0-0.3,0.2-0.7C-424.6,463.7-424.8,462.5-424.8,462.5z"/>
	<path class="st2" d="M-417.7,458.6c-0.5,0-1.2,0.1-1.2,0.9c0,0,0,0.1,0,0.1c0-0.1,0-0.9,0.3-0.4c0,0,0.2,0.2,0.5,1
		c0,0,0.3,0.6,0.3,1c0,0,0.6,2.1,1.1,2c0.1-0.1,0.1-0.3,0-0.6c-0.1-0.4,0-1,0-1.5c0-0.4,0-0.8,0.2-1.2c-0.2-0.4-0.3-1.2-0.4-1.6
		C-417.2,458.6-417.5,458.6-417.7,458.6z"/>
	<path class="st3" d="M-417.8,461.3c0-0.4-0.3-1-0.3-1c-0.3-0.8-0.5-1-0.5-1c-0.3-0.5-0.3,0.3-0.3,0.4c0,0.7,0.5,1,0.7,1.8
		c0.2,0.9,1,1.8,1.3,1.8c0.1,0,0.2,0,0.2,0C-417.1,463.4-417.8,461.3-417.8,461.3z"/>
	<polygon class="st1" points="-407.5,444.3 -407.5,444.3 -407.5,444.3 	"/>
	<path class="st1" d="M-408.1,444.2c0,0,0.1,0.1,0.1,0.1c0,0,0-0.1,0-0.1C-408.1,444.2-408.1,444.2-408.1,444.2z"/>
	<path class="st4" d="M-408.1,444.2c0,0,0.1,0.1,0.1,0.1c0,0,0-0.1,0-0.1C-408.1,444.2-408.1,444.2-408.1,444.2z"/>
	<path class="st1" d="M-408.6,443.8L-408.6,443.8C-408.6,443.8-408.6,443.8-408.6,443.8L-408.6,443.8z"/>
	<path class="st4" d="M-408.6,443.8L-408.6,443.8C-408.6,443.8-408.6,443.8-408.6,443.8L-408.6,443.8z"/>
	<path class="st1" d="M-408.4,444C-408.3,444-408.3,444.1-408.4,444C-408.3,444-408.3,444-408.4,444C-408.3,444-408.3,444-408.4,444
		z"/>
	<path class="st4" d="M-408.4,444C-408.3,444-408.3,444.1-408.4,444C-408.3,444-408.3,444-408.4,444C-408.3,444-408.3,444-408.4,444
		z"/>
	<path class="st1" d="M-407.6,444.4c0.1,0,0.1-0.1,0.1-0.1l0-0.1C-407.6,444.3-407.7,444.3-407.6,444.4
		C-407.7,444.4-407.7,444.4-407.6,444.4z"/>
	<path class="st5" d="M-407.6,444.4c0.1,0,0.1-0.1,0.1-0.1l0-0.1C-407.6,444.3-407.7,444.3-407.6,444.4
		C-407.7,444.4-407.7,444.4-407.6,444.4z"/>
	<path class="st1" d="M-407.6,444.4C-407.7,444.4-407.7,444.4-407.6,444.4c-0.1,0-0.1,0-0.1,0c-0.1,0-0.2-0.1-0.3-0.1
		c0,0-0.1-0.1-0.1-0.1c-0.1,0-0.1-0.1-0.1-0.1c0,0,0,0-0.1-0.1c-0.2,0-0.2-0.1-0.2-0.2l0,0c-0.1,0-0.1,0-0.2-0.1
		c0.1,0.4-0.2,0.8-0.2,0.8c-0.2,0.3,0.2,0.6,0.3,0.7c0.2-0.1,0.4-0.2,0.6-0.4c0.3-0.2,0.5-0.3,0.5-0.6l0,0
		C-407.5,444.3-407.6,444.3-407.6,444.4z"/>
	<path class="st0" d="M-407.6,444.4C-407.7,444.4-407.7,444.4-407.6,444.4c-0.1,0-0.1,0-0.1,0c-0.1,0-0.2-0.1-0.3-0.1
		c0,0-0.1-0.1-0.1-0.1c-0.1,0-0.1-0.1-0.1-0.1c0,0,0,0-0.1-0.1c-0.2,0-0.2-0.1-0.2-0.2l0,0c-0.1,0-0.1,0-0.2-0.1
		c-0.2,0.4-0.4,0.7-0.4,0.7c-0.2,0.3,0.4,0.7,0.5,0.8c0.2-0.1,0.4-0.2,0.6-0.4c0.3-0.2,0.5-0.3,0.5-0.6l0,0
		C-407.5,444.3-407.6,444.3-407.6,444.4z"/>
	<path class="st6" d="M-407.5,444.1L-407.5,444.1L-407.5,444.1C-407.5,444.1-407.5,444.1-407.5,444.1L-407.5,444.1z"/>
	<path class="st0" d="M-407.6,444.3c0.1,0,0.1-0.1,0.2-0.2c-0.1-0.1-0.1-0.2-0.2-0.3c-0.1-0.1-0.2-0.3-0.2-0.3l0,0v0
		c0,0-0.2-0.1-0.3-0.2c-0.1,0-0.1,0-0.2,0.1c0,0,0,0-0.1,0c0,0-0.1,0-0.1,0c-0.1,0.1-0.1,0.1-0.2,0.1
		C-408.8,443.6-407.9,444.4-407.6,444.3z"/>
	<path class="st6" d="M-408.8,443.6c0,0,0,0.1,0.1,0.1C-408.8,443.7-408.8,443.7-408.8,443.6z"/>
	<path class="st0" d="M-408.6,443.8C-408.6,443.8-408.6,443.8-408.6,443.8c0.1,0.1,0.1,0.1,0.2,0.2c0,0,0,0,0.1,0c0,0,0,0,0,0
		c0,0,0.1,0.1,0.1,0.1c0,0,0.1,0,0.1,0c0,0,0,0,0,0.1c0.1,0.1,0.2,0.1,0.3,0.1c0,0,0.1,0,0.3-0.2l0-0.1l0,0c0,0-0.1,0.1-0.2,0.2
		c-0.3,0.1-1.2-0.7-1.2-0.7S-408.7,443.7-408.6,443.8L-408.6,443.8z"/>
	<path class="st0" d="M-407.8,444.4C-407.8,444.4-407.7,444.4-407.8,444.4c-0.1,0-0.1-0.1-0.3-0.1
		C-408,444.3-407.9,444.4-407.8,444.4z"/>
	<path class="st0" d="M-408.4,444c-0.1-0.1-0.2-0.1-0.2-0.2C-408.6,443.9-408.5,444-408.4,444z"/>
	<path class="st0" d="M-408.6,443.8c-0.1-0.1-0.2-0.2-0.2-0.2c0,0.1,0,0.1,0,0.1C-408.8,443.8-408.7,443.8-408.6,443.8z"/>
	<path class="st7" d="M-418.8,441.8c0,0,0.9,0.7,0.9,1.4l0.4-0.2c0,0-0.1,1.4,0.5,2.4c0,0,0.1,0.9-0.6,2l-0.2,0.4c0,0,1.6,3.4,4,2.1
		l0.5-2.5l0.9-2.1c0,0,1.2-1,0.5-1.8l-0.9-1.8c0,0-0.1-1-0.8-1.2c0,0-0.3,0.3-1.3-0.3c0,0-0.7-0.2-1.7-0.2L-418.8,441.8z"/>
	<path class="st0" d="M-413.8,438.8c0,0-0.7,1.5-2,1.2c0,0,0.5,0.4,1,0.2c0,0,1.6,1.6,1.4,0.5c0,0-0.1-0.4,0.3-0.6
		C-413.1,440.1-413.8,439-413.8,438.8z"/>
	<path class="st8" d="M-417.8,447.8c0,0-1.9,0.6-1.2,4l-0.7,2c0,0-0.7,1.6-0.6,2.5c0,0-1,1.1-1.6,1.9c0,0,0,2,1.6,2
		c0,0,1.8-1.2,2.4-2.7c0,0,2.4-3.2,2.1-3.7c0,0,1.3,0.8,1.8,1.1l1.4,0.7c0,0-1.5,0.5-1.8,1c0,0,2.7,0.3,3.8,1c0,0,2.9-0.8,0.9-3.1
		c0,0-1-1.6-2.4-2.7l-1.8-1.9C-413.7,449.9-416.3,450.4-417.8,447.8z"/>
	<path class="st9" d="M-417.4,440.7c0,0,1-0.1,1.8-0.4c0,0,0.9,1.2,1.4,0.5l-0.6-0.6l-1.7-0.2L-417.4,440.7z"/>
	<path class="st10" d="M-411.8,436.5c0,0-0.7,0.5-1.5,0.6c0,0,0,0-0.1,0.8c0,0-0.4-0.4-0.2,0.7c0,0-0.3,0.7-0.4,1.1
		c-0.2,0.5-0.7,1.1-1.9,0.9c0,0-0.7,0.3-1.5-0.4c0,0-0.5,0.2-1-0.3c0,0,1.8-1.4,2.3-3.2c0,0,0.5-1.3,2-1.5
		C-413.9,435.1-412.1,434.5-411.8,436.5z"/>
	<path class="st11" d="M-425.2,464.3c0,0,0.6,0.6,1.2,0.5v0.2c0,0-0.6,0.2-1.4-0.5L-425.2,464.3z"/>
	<path class="st11" d="M-424.9,465.2c0,0,0.5,0.4,0.9,0.2l0,0.2c0,0-0.4,0.3-1-0.1L-424.9,465.2z"/>
	<path class="st3" d="M-426.4,463.8c0,0,0.5,0.9,0.8,1.4l-0.8-0.8C-426.4,464.5-426.7,464.1-426.4,463.8z"/>
	<path class="st3" d="M-425.3,464.6c0,0,0.6,0.7,1.4,0.5V465C-424,465-424.2,465.3-425.3,464.6z"/>
	<path class="st3" d="M-424.9,465.4c0,0,0.6,0.5,1,0.1C-423.9,465.5-424.2,465.7-424.9,465.4z"/>
	<path class="st11" d="M-417.2,460.1c0,0,0.3,0.9,0.5,0.7l0,0.2c0,0-0.5-0.1-0.7-0.8L-417.2,460.1"/>
	<path class="st11" d="M-416.7,461.4c0,0-0.3-0.1-0.3-0.4l-0.1,0.2c0,0,0.2,0.5,0.4,0.5L-416.7,461.4z"/>
	<path class="st3" d="M-417.1,461.2L-417.1,461.2c0-0.1,0.2,0.4,0.4,0.4l0,0.1C-416.7,461.6-417,461.6-417.1,461.2z"/>
	<path class="st3" d="M-417.4,460.2L-417.4,460.2c0-0.1,0.2,0.7,0.7,0.8l0,0.1C-416.7,461.1-417.2,461-417.4,460.2"/>
	<path class="st12" d="M-408.6,443.8c0,0,0.2-0.3,0.3-0.3C-408.2,443.5-408.5,443.7-408.6,443.8z"/>
	<path class="st12" d="M-408.3,444.1c0,0,0.1-0.3,0.3-0.4C-408,443.7-408.2,443.9-408.3,444.1z"/>
	<path class="st12" d="M-408,444.2c0,0,0.1-0.3,0.3-0.3C-407.7,443.9-408,444-408,444.2z"/>
	<path class="st13" d="M-408,444.2c0,0,0.1,0.2,0.1,0.2c0,0,0.1,0,0.2-0.1c0,0-0.1-0.2-0.2-0.2C-407.8,444.1-408,444.1-408,444.2z"
		/>
	<path class="st13" d="M-408.2,443.9L-408.2,443.9c-0.1,0.1,0,0.2,0.1,0.2c0,0,0.1,0,0.1-0.1C-408,444-408.1,443.9-408.2,443.9z"/>
	<path class="st13" d="M-408.4,443.8C-408.4,443.8-408.5,443.8-408.4,443.8c-0.1,0.1,0,0.2,0.1,0.2c0,0,0.1-0.1,0.1-0.1
		C-408.3,443.8-408.3,443.7-408.4,443.8z"/>
	<path class="st13" d="M-408.7,443.5c0,0-0.1,0.1-0.1,0.1c0,0,0.1,0.1,0.2,0.1c0,0,0.1,0,0.1-0.1L-408.7,443.5z"/>
	<path class="st12" d="M-408.4,443.3c0,0-0.4,0.2-0.5,0.3c0,0-0.1,0.3-0.1,0.4c0,0,0.1-0.4,0.1-0.4
		C-408.8,443.6-408.5,443.4-408.4,443.3z"/>
	<path class="st5" d="M-408.8,443.7c0,0,0.1,0.2,0.2,0.2c0,0,0.1,0.2,0.3,0.2c0,0,0.1,0.2,0.3,0.2c0,0,0,0.2,0.3,0.2
		c0,0-0.3,0.1-0.3-0.1c0,0-0.2-0.1-0.3-0.2c0,0-0.2,0-0.3-0.2C-408.6,443.9-408.8,443.9-408.8,443.7z"/>
</g>
</svg>
