<?xml version="1.0" encoding="UTF-8" standalone="no"?>
<!-- Generator: Adobe Illustrator 19.0.0, SVG Export Plug-In . SVG Version: 6.00 Build 0)  -->

<svg
   xmlns:dc="http://purl.org/dc/elements/1.1/"
   xmlns:cc="http://creativecommons.org/ns#"
   xmlns:rdf="http://www.w3.org/1999/02/22-rdf-syntax-ns#"
   xmlns:svg="http://www.w3.org/2000/svg"
   xmlns="http://www.w3.org/2000/svg"
   xmlns:sodipodi="http://sodipodi.sourceforge.net/DTD/sodipodi-0.dtd"
   xmlns:inkscape="http://www.inkscape.org/namespaces/inkscape"
   version="1.1"
   id="Layer_1"
   x="0px"
   y="0px"
   viewBox="0 0 612 792"
   style="enable-background:new 0 0 612 792;"
   xml:space="preserve"
   inkscape:version="0.91 r13725"
   sodipodi:docname="1.svg"><metadata
     id="metadata129"><rdf:RDF><cc:Work
         rdf:about=""><dc:format>image/svg+xml</dc:format><dc:type
           rdf:resource="http://purl.org/dc/dcmitype/StillImage" /><dc:title></dc:title></cc:Work></rdf:RDF></metadata><defs
     id="defs127" /><sodipodi:namedview
     pagecolor="#ffffff"
     bordercolor="#666666"
     borderopacity="1"
     objecttolerance="10"
     gridtolerance="10"
     guidetolerance="10"
     inkscape:pageopacity="0"
     inkscape:pageshadow="2"
     inkscape:window-width="640"
     inkscape:window-height="480"
     id="namedview125"
     showgrid="false"
     inkscape:zoom="0.2979798"
     inkscape:cx="306"
     inkscape:cy="396"
     inkscape:window-x="0"
     inkscape:window-y="0"
     inkscape:window-maximized="0"
     inkscape:current-layer="Layer_1" /><style
     type="text/css"
     id="style3">
	.st0{fill:none;stroke:#327968;stroke-width:2;stroke-miterlimit:10;}
	.st1{fill:#54301F;}
	.st2{fill:#ED8346;}
	.st3{fill:#E5564E;}
	.st4{fill:none;stroke:#AE7040;stroke-width:0.75;stroke-miterlimit:10;}
	.st5{fill:#AE7040;}
	.st6{fill:#F0994E;}
	.st7{fill:#F6E8E1;}
	.st8{fill:#4C2D1E;}
	.st9{fill:#65B2A6;}
	.st10{fill:#E55447;}
	.st11{fill:#317F6F;}
	.st12{fill:#EB7A3C;}
	.st13{fill:#4F2E20;}
	.st14{fill:#60AC9B;}
	.st15{fill:#4F271E;}
	.st16{fill:none;stroke:#987465;stroke-miterlimit:10;}
	.st17{fill:none;stroke:#987465;stroke-miterlimit:10;stroke-dasharray:2.0029,2.0029;}
	.st18{fill:none;stroke:#987465;stroke-miterlimit:10;stroke-dasharray:2.0028,2.0028;}
	.st19{fill:none;stroke:#987465;stroke-miterlimit:10;stroke-dasharray:2.0017,2.0017;}
	.st20{fill:none;stroke:#987465;stroke-miterlimit:10;stroke-dasharray:1.9882,1.9882;}
	.st21{fill:none;stroke:#7BA89F;stroke-miterlimit:10;stroke-dasharray:1.9999,1.9999;}
	.st22{fill:#4B2E1F;}
	.st23{fill:#EB7C44;}
	.st24{fill:#88C6BC;}
	.st25{fill:#E5504D;}
	.st26{fill:none;stroke:#F4C35C;stroke-miterlimit:10;}
	.st27{fill:#F5F8F7;}
	.st28{fill:#E75C4D;}
	.st29{fill:#693225;}
	.st30{fill:#B15D35;}
	.st31{fill:#E8BE28;}
	.st32{fill:none;stroke:#EA783C;stroke-miterlimit:10;}
	.st33{fill:#E54F4D;stroke:#FFFFFF;stroke-miterlimit:10;}
	.st34{fill:#452826;}
	.st35{fill:#FDF2ED;}
	.st36{fill:#FFFFFF;}
	.st37{fill:#58B1B2;}
	.st38{fill:#66CADD;}
	.st39{fill:#F4C154;}
	.st40{fill:#E35041;}
</style><g
     id="XMLID_110_"><line
       id="XMLID_136_"
       class="st0"
       x1="109"
       y1="227.9"
       x2="127"
       y2="224.6" /><g
       id="XMLID_125_"><path
         id="XMLID_133_"
         class="st1"
         d="M102.4,227.1c-0.7,14.4-4.1,26-7.9,27.5c-0.9-0.1-1.7-0.3-2.5-0.7c-3.2-3-5.2-14.2-4.6-27.5    c0.6-13.6,3.8-24.8,7.3-27.2c0.7-0.2,1.3-0.3,2-0.3C100.6,200.1,103.1,212.3,102.4,227.1z" /><path
         id="XMLID_130_"
         class="st2"
         d="M106.9,212.7c-6.6-1.2-13,3.6-14.3,10.8c-1.3,7.1,3.1,13.9,9.7,15" /><path
         id="XMLID_127_"
         class="st3"
         d="M94.7,254.6c-0.1,0-0.1,0-0.2,0c3.8-1.4,7.2-13.1,7.9-27.5c0.7-14.8-1.8-27-5.7-28.2    c0.2,0,0.4,0,0.5,0c7.6,0.4,13.2,13.1,12.5,28.5C109.1,242.7,102.3,254.9,94.7,254.6z" /></g></g><g
     id="XMLID_115_"><line
       id="XMLID_124_"
       class="st0"
       x1="443.4"
       y1="227.3"
       x2="425.7"
       y2="232.5" /><g
       id="XMLID_118_"><path
         id="XMLID_123_"
         class="st1"
         d="M449.9,227.5c-0.8-14.3,1.4-26.3,5.1-28.1c0.9,0,1.8,0.1,2.6,0.4c3.5,2.7,6.6,13.6,7.3,26.9    c0.8,13.6-1.2,25.1-4.5,27.8c-0.6,0.3-1.3,0.4-1.9,0.5C454.5,254.2,450.7,242.3,449.9,227.5z" /><path
         id="XMLID_122_"
         class="st2"
         d="M446.9,242.2c6.7,0.5,12.6-4.9,13.1-12.2c0.5-7.2-4.4-13.5-11.1-14" /><path
         id="XMLID_121_"
         class="st3"
         d="M454.8,199.3c0.1,0,0.1,0,0.2,0c-3.6,1.8-5.9,13.8-5.1,28.1c0.8,14.8,4.6,26.7,8.5,27.5    c-0.2,0-0.4,0.1-0.5,0.1c-7.6,0.4-14.4-11.7-15.3-27.1C441.8,212.6,447.2,199.8,454.8,199.3z" /></g></g><path
     id="XMLID_10_"
     class="st4"
     d="M277.7,140.5c0,0-1.3-3.9,1-4.4c2.3-0.5,11.6-1.7,11.5-5.4" /><g
     id="XMLID_167_"><g
       id="XMLID_169_"><path
         id="XMLID_86_"
         class="st5"
         d="M276.9,82l0-0.5c-1-0.1-1.9-0.4-2.5-0.9c-0.6-0.5-0.9-1.1-0.9-1.8c0-0.6,0.4-1.2,1.1-1.7    c0.7-0.4,1.6-0.7,2.6-0.6c0.4,0,1.4,0.3,2.6,0.6c1.7,0.5,3.8,1.3,5.5,1.9c0.9,0.3,1.6,0.6,2.1,0.8c0.5,0.2,0.8,0.3,0.8,0.3    l0.2-0.5l-0.1-0.5c0,0-0.6,0.2-1.5,0.4c-1.4,0.3-3.5,0.9-5.4,1.3c-1,0.2-1.9,0.4-2.7,0.5c-0.8,0.1-1.4,0.2-1.8,0.2L276.9,82l0,0.5    c0.7,0,1.7-0.1,2.9-0.3c3.6-0.7,8.9-2.1,8.9-2.1l1.5-0.4l-1.5-0.6c0,0-2.3-0.9-4.8-1.8c-1.3-0.5-2.6-0.9-3.8-1.3    c-1.2-0.4-2.2-0.6-2.8-0.7c-1.2-0.1-2.3,0.2-3.2,0.8c-0.9,0.6-1.5,1.5-1.5,2.5c-0.1,1,0.4,2,1.2,2.6c0.8,0.7,1.9,1.1,3.1,1.2    L276.9,82z" /><path
         id="XMLID_85_"
         class="st5"
         d="M287.1,79.7c1.6,0.5,3,1.1,4,2c0.9,0.8,1.4,1.8,1.4,3c-0.1,1.2-0.7,2-1.8,2.7    c-1.1,0.7-2.5,1.2-3.9,1.4l0.2,1c1.5-0.2,3.1-0.7,4.3-1.5c1.2-0.8,2.2-2,2.3-3.6c0.1-1.5-0.6-2.8-1.7-3.8c-1.1-1-2.6-1.7-4.4-2.2    L287.1,79.7z" /><path
         id="XMLID_84_"
         class="st5"
         d="M286.6,88.9c1.6,0.5,3,1.1,4,2c0.9,0.8,1.4,1.8,1.4,3l1,0.1c0.1-1.5-0.6-2.8-1.7-3.8    c-1.1-1-2.7-1.7-4.4-2.2L286.6,88.9z" /><path
         id="XMLID_83_"
         class="st5"
         d="M293,75.2c-0.1,1.2-0.7,2-1.8,2.7c-1.1,0.7-2.5,1.2-3.9,1.4l0.2,1c1.5-0.2,3.1-0.7,4.3-1.5    c1.2-0.8,2.2-2,2.3-3.6L293,75.2z" /><path
         id="XMLID_82_"
         class="st5"
         d="M276.3,91.2l0-0.5c-1-0.1-1.9-0.4-2.5-0.9c-0.6-0.5-0.9-1.1-0.9-1.8c0-0.6,0.4-1.2,1.1-1.7    c0.7-0.4,1.6-0.7,2.6-0.6c0.4,0,1.4,0.3,2.6,0.6c1.7,0.5,3.8,1.3,5.5,1.9c0.8,0.3,1.6,0.6,2.1,0.8c0.5,0.2,0.8,0.3,0.8,0.3    l0.2-0.5l-0.1-0.5c0,0-0.6,0.2-1.5,0.4c-1.4,0.3-3.5,0.9-5.4,1.3c-1,0.2-1.9,0.4-2.7,0.5c-0.8,0.1-1.4,0.2-1.8,0.2L276.3,91.2    l0,0.5c0.7,0,1.7-0.1,2.9-0.3c3.6-0.7,8.9-2.1,8.9-2.1l1.5-0.4l-1.5-0.6c0,0-2.3-0.9-4.8-1.8c-1.3-0.5-2.6-0.9-3.8-1.3    c-1.2-0.4-2.2-0.6-2.8-0.7c-1.2-0.1-2.3,0.2-3.2,0.8c-0.9,0.6-1.5,1.4-1.5,2.5c-0.1,1,0.4,2,1.2,2.6c0.8,0.7,1.9,1.1,3.1,1.2    L276.3,91.2z" /><path
         id="XMLID_81_"
         class="st5"
         d="M275.8,100.6l0-0.5c-1-0.1-1.9-0.4-2.5-0.9c-0.6-0.5-0.9-1.1-0.9-1.8c0-0.6,0.4-1.2,1.1-1.7    c0.7-0.4,1.6-0.7,2.6-0.6c0.4,0,1.4,0.3,2.6,0.6c1.7,0.5,3.8,1.3,5.5,1.9c0.8,0.3,1.6,0.6,2.1,0.8c0.5,0.2,0.8,0.3,0.8,0.3    l0.2-0.5l-0.1-0.5c0,0-0.6,0.2-1.5,0.4c-1.4,0.3-3.5,0.9-5.4,1.3c-1,0.2-1.9,0.4-2.7,0.5c-0.8,0.1-1.4,0.2-1.8,0.2L275.8,100.6    l0,0.5c0.7,0,1.7-0.1,2.9-0.3c3.6-0.7,8.9-2.1,8.9-2.1l1.5-0.4l-1.5-0.6c0,0-2.3-0.9-4.8-1.8c-1.3-0.5-2.6-0.9-3.8-1.3    c-1.2-0.4-2.2-0.6-2.8-0.7c-1.2-0.1-2.3,0.2-3.2,0.8c-0.9,0.6-1.5,1.4-1.5,2.5c-0.1,1,0.4,2,1.2,2.6c0.8,0.7,1.9,1.1,3.1,1.2    L275.8,100.6z" /><path
         id="XMLID_80_"
         class="st5"
         d="M286,98.2c1.6,0.5,3,1.1,4,2c0.9,0.8,1.4,1.8,1.4,3c-0.1,1.2-0.7,2-1.8,2.7    c-1.1,0.7-2.5,1.2-3.9,1.4l0.2,1c1.5-0.2,3.1-0.7,4.3-1.5c1.2-0.8,2.2-2,2.3-3.6c0.1-1.5-0.6-2.8-1.7-3.8c-1.1-1-2.7-1.7-4.4-2.2    L286,98.2z" /><path
         id="XMLID_79_"
         class="st5"
         d="M285.5,107.5c1.6,0.5,3,1.1,4,2c0.9,0.8,1.4,1.8,1.4,3l1,0.1c0.1-1.5-0.6-2.8-1.7-3.8    c-1.1-1-2.7-1.7-4.4-2.2L285.5,107.5z" /><path
         id="XMLID_78_"
         class="st5"
         d="M291.9,93.8c-0.1,1.2-0.7,2-1.8,2.7c-1.1,0.7-2.5,1.2-3.9,1.4l0.2,1c1.5-0.2,3.1-0.7,4.3-1.5    c1.2-0.8,2.2-2,2.3-3.6L291.9,93.8z" /><path
         id="XMLID_77_"
         class="st5"
         d="M275.2,109.8l0-0.5c-1-0.1-1.9-0.4-2.5-0.9c-0.6-0.5-0.9-1.1-0.9-1.8c0-0.6,0.4-1.2,1.1-1.7    c0.7-0.4,1.6-0.7,2.6-0.6c0.4,0,1.4,0.3,2.6,0.6c1.7,0.5,3.8,1.3,5.5,1.9c0.8,0.3,1.6,0.6,2.1,0.8c0.5,0.2,0.8,0.3,0.8,0.3    l0.2-0.5l-0.1-0.5c0,0-0.6,0.2-1.5,0.4c-1.4,0.3-3.5,0.9-5.4,1.3c-1,0.2-1.9,0.4-2.7,0.5c-0.8,0.1-1.4,0.2-1.8,0.2L275.2,109.8    l0,0.5c0.7,0,1.7-0.1,2.9-0.3c3.6-0.7,8.9-2.1,8.9-2.1l1.5-0.4L287,107c0,0-2.3-0.9-4.8-1.8c-1.3-0.5-2.6-0.9-3.8-1.3    c-1.2-0.4-2.2-0.6-2.8-0.7c-1.2-0.1-2.3,0.2-3.2,0.8c-0.9,0.6-1.5,1.4-1.5,2.5c-0.1,1,0.4,2,1.2,2.6c0.8,0.7,1.9,1.1,3.1,1.2    L275.2,109.8z" /><path
         id="XMLID_76_"
         class="st5"
         d="M274.7,119.1l0-0.5c-1-0.1-1.9-0.4-2.5-0.9c-0.6-0.5-0.9-1.1-0.9-1.8c0-0.6,0.4-1.2,1.1-1.7    c0.7-0.4,1.6-0.7,2.6-0.6c0.4,0,1.4,0.3,2.6,0.6c1.7,0.5,3.8,1.3,5.5,1.9c0.8,0.3,1.6,0.6,2.1,0.8c0.5,0.2,0.8,0.3,0.8,0.3    l0.2-0.5l-0.1-0.5c0,0-0.6,0.2-1.5,0.4c-1.4,0.3-3.5,0.9-5.4,1.3c-1,0.2-1.9,0.4-2.7,0.5c-0.8,0.1-1.4,0.2-1.8,0.2L274.7,119.1    l0,0.5c0.7,0,1.7-0.1,2.9-0.3c3.6-0.7,8.9-2.1,8.9-2.1l1.5-0.4l-1.5-0.6c0,0-2.3-0.9-4.8-1.8c-1.3-0.5-2.6-0.9-3.8-1.3    c-1.2-0.4-2.2-0.6-2.8-0.7c-1.2-0.1-2.3,0.2-3.2,0.8c-0.9,0.6-1.5,1.5-1.5,2.5c-0.1,1,0.4,2,1.2,2.6c0.8,0.7,1.9,1.1,3.1,1.2    L274.7,119.1z" /><path
         id="XMLID_75_"
         class="st5"
         d="M284.9,116.8c1.6,0.5,3,1.1,4,2c0.9,0.8,1.4,1.8,1.4,3c-0.1,1.2-0.7,2-1.8,2.7    c-1.1,0.7-2.5,1.2-3.9,1.4l0.2,1c1.5-0.2,3.1-0.7,4.3-1.5c1.2-0.8,2.2-2,2.3-3.6c0.1-1.5-0.6-2.8-1.7-3.8c-1.1-1-2.7-1.7-4.4-2.2    L284.9,116.8z" /><path
         id="XMLID_74_"
         class="st5"
         d="M284.4,126.1c1.6,0.5,3,1.1,4,2c0.9,0.8,1.4,1.8,1.4,3l1,0.1c0.1-1.5-0.6-2.8-1.7-3.8    c-1.1-1-2.7-1.7-4.4-2.2L284.4,126.1z" /><path
         id="XMLID_73_"
         class="st5"
         d="M290.8,112.4c-0.1,1.2-0.7,2-1.8,2.7c-1.1,0.7-2.5,1.2-3.9,1.4l0.2,1c1.5-0.2,3.1-0.7,4.3-1.5    c1.2-0.8,2.2-2,2.3-3.6L290.8,112.4z" /><path
         id="XMLID_72_"
         class="st5"
         d="M274.2,128.4l0-0.5c-1-0.1-1.9-0.4-2.5-0.9c-0.6-0.5-0.9-1.1-0.9-1.8c0-0.6,0.4-1.2,1.1-1.7    c0.7-0.4,1.6-0.7,2.6-0.6c0.4,0,1.4,0.3,2.6,0.6c1.7,0.5,3.9,1.3,5.5,1.9c0.9,0.3,1.6,0.6,2.1,0.8c0.5,0.2,0.8,0.3,0.8,0.3    l0.2-0.5l-0.1-0.5c0,0-0.6,0.2-1.5,0.4c-1.4,0.3-3.5,0.9-5.4,1.3c-1,0.2-1.9,0.4-2.7,0.5c-0.8,0.1-1.4,0.2-1.8,0.2L274.2,128.4    l0,0.5c0.7,0,1.7-0.1,2.9-0.3c3.6-0.7,8.9-2.1,8.9-2.1l1.5-0.4l-1.5-0.6c0,0-2.3-0.9-4.8-1.8c-1.3-0.5-2.6-0.9-3.8-1.3    c-1.2-0.4-2.2-0.6-2.8-0.7c-1.2-0.1-2.3,0.2-3.2,0.8c-0.9,0.6-1.5,1.5-1.5,2.5c-0.1,1,0.4,2,1.2,2.6c0.8,0.7,1.9,1.1,3.1,1.2    L274.2,128.4z" /></g><circle
       id="XMLID_71_"
       class="st6"
       cx="293.6"
       cy="73.2"
       r="3.4" /></g><path
     id="XMLID_70_"
     class="st7"
     d="M136.2,462.4c0,5.7-4.6,10.4-10.4,10.4l0,0c-5.7,0-10.4-4.6-10.4-10.4v-61  c0-5.7,4.6-10.4,10.4-10.4l0,0c5.7,0,10.4,4.6,10.4,10.4V462.4z" /><path
     id="XMLID_69_"
     class="st7"
     d="M136.2,571.8c0,5.7-4.6,10.4-10.4,10.4l0,0c-5.7,0-10.4-4.6-10.4-10.4v-61  c0-5.7,4.6-10.4,10.4-10.4l0,0c5.7,0,10.4,4.6,10.4,10.4V571.8z" /><path
     id="XMLID_68_"
     class="st8"
     d="M110,485.2c0-8,6.5-14.5,14.5-14.5s14.5,6.5,14.5,14.5c0,8-6.5,14.5-14.5,14.5  S110,493.2,110,485.2z" /><path
     id="XMLID_67_"
     class="st9"
     d="M103.3,585.7c0,0-0.4-32.8,19.5-32.8s25,15.6,25,36.4c0,0-2,7.4-7,7.4c-5.1,0,0.6-13.9-3.1-17.6  c-3.7-3.7-7.5,4.3-7.5,14.1c0,9.8-11.3,8.1-19.1,8.1C103.4,601.2,103.3,597,103.3,585.7z" /><path
     id="XMLID_66_"
     class="st10"
     d="M154.6,424.9c0,5.5-4.5,9.9-10,9.9l0,0c-5.5,0-9.9-4.5-9.9-9.9v-27.2c0-5.5,4.5-10,9.9-10l0,0  c5.5,0,10,4.5,10,10V424.9z" /><path
     id="XMLID_65_"
     class="st7"
     d="M423.2,462.4c0,5.7,4.6,10.4,10.4,10.4l0,0c5.7,0,10.4-4.6,10.4-10.4v-61  c0-5.7-4.6-10.4-10.4-10.4l0,0c-5.7,0-10.4,4.6-10.4,10.4V462.4z" /><path
     id="XMLID_64_"
     class="st7"
     d="M423.2,571.8c0,5.7,4.6,10.4,10.4,10.4l0,0c5.7,0,10.4-4.6,10.4-10.4v-61  c0-5.7-4.6-10.4-10.4-10.4l0,0c-5.7,0-10.4,4.6-10.4,10.4V571.8z" /><path
     id="XMLID_63_"
     class="st8"
     d="M449.4,485.2c0-8-6.5-14.5-14.5-14.5c-8,0-14.5,6.5-14.5,14.5c0,8,6.5,14.5,14.5,14.5  C442.9,499.7,449.4,493.2,449.4,485.2z" /><path
     id="XMLID_62_"
     class="st9"
     d="M456,585.7c0,0,0.4-32.8-19.5-32.8c-19.9,0-25,15.6-25,36.4c0,0,2,7.4,7,7.4  c5.1,0-0.6-13.9,3.1-17.6c3.7-3.7,7.5,4.3,7.5,14.1c0,9.8,11.3,8.1,19.1,8.1C456,601.2,456,597,456,585.7z" /><path
     id="XMLID_61_"
     class="st10"
     d="M404.7,424.9c0,5.5,4.5,9.9,10,9.9l0,0c5.5,0,9.9-4.5,9.9-9.9v-27.2c0-5.5-4.5-10-9.9-10l0,0  c-5.5,0-10,4.5-10,10V424.9z" /><path
     id="XMLID_46_"
     class="st11"
     d="M406.3,551.9c0,12.3-10,22.2-22.2,22.2H175.3c-12.3,0-22.2-10-22.2-22.2V400.2  c0-12.3,10-22.2,22.2-22.2H384c12.3,0,22.2,10,22.2,22.2V551.9z" /><path
     id="XMLID_45_"
     class="st12"
     d="M131.3,256.2c0,6-4.9,10.9-10.9,10.9l0,0c-6,0-10.9-4.9-10.9-10.9v-47.6  c0-6,4.9-10.9,10.9-10.9l0,0c6,0,10.9,4.9,10.9,10.9V256.2z" /><path
     id="XMLID_44_"
     class="st12"
     d="M442.5,256.2c0,6-4.9,10.9-10.9,10.9l0,0c-6,0-10.9-4.9-10.9-10.9v-47.6  c0-6,4.9-10.9,10.9-10.9l0,0c6,0,10.9,4.9,10.9,10.9V256.2z" /><path
     id="XMLID_43_"
     class="st13"
     d="M330.1,366.4c0,5.2-4.2,9.4-9.4,9.4h-90.1c-5.2,0-9.4-4.2-9.4-9.4l0,0c0-5.2,4.2-9.4,9.4-9.4  h90.1C325.9,357.1,330.1,361.3,330.1,366.4L330.1,366.4z" /><g
     id="XMLID_134_"><path
       id="XMLID_135_"
       class="st14"
       d="M334.4,356.6H218.3c-1,0-1.9-0.3-2.7-0.9l-86.9-66.4c-1.1-0.8-1.8-2.1-1.8-3.5v-92.8   c0-1.6,0.8-3,2.1-3.8l91.9-55.9c0.7-0.4,1.5-0.6,2.3-0.6h106.9c0.8,0,1.6,0.2,2.2,0.6l89.7,52.5c1.4,0.8,2.2,2.3,2.2,3.8v105.1   c0,1.5-0.7,2.9-2,3.7l-85.4,57.4C336.2,356.4,335.3,356.6,334.4,356.6z" /></g><circle
     id="XMLID_41_"
     class="st15"
     cx="237.3"
     cy="297.8"
     r="8.9" /><circle
     id="XMLID_40_"
     class="st15"
     cx="259.6"
     cy="297.8"
     r="8.9" /><circle
     id="XMLID_39_"
     class="st15"
     cx="282.6"
     cy="297.8"
     r="8.9" /><circle
     id="XMLID_38_"
     class="st15"
     cx="282.6"
     cy="297.8"
     r="8.9" /><circle
     id="XMLID_37_"
     class="st15"
     cx="305.7"
     cy="297.8"
     r="8.9" /><circle
     id="XMLID_36_"
     class="st15"
     cx="305.7"
     cy="297.8"
     r="8.9" /><circle
     id="XMLID_24_"
     class="st15"
     cx="328.7"
     cy="297.8"
     r="8.9" /><g
     id="XMLID_113_"><g
       id="XMLID_114_"><g
         id="XMLID_107_"><g
           id="XMLID_138_"><polyline
             id="XMLID_146_"
             class="st16"
             points="414.5,292.9 415.4,292.4 415.4,291.4     " /><line
             id="XMLID_145_"
             class="st17"
             x1="415.4"
             y1="289.4"
             x2="415.4"
             y2="194.2" /><polyline
             id="XMLID_144_"
             class="st16"
             points="415.4,193.2 415.4,192.2 414.5,191.7     " /><polyline
             id="XMLID_143_"
             class="st18"
             points="412.8,190.7 328.9,141.6 224.4,141.6 137.5,194.5     " /><polyline
             id="XMLID_142_"
             class="st16"
             points="136.6,195 135.8,195.6 135.8,196.6     " /><line
             id="XMLID_141_"
             class="st19"
             x1="135.8"
             y1="198.6"
             x2="135.8"
             y2="281.6" /><polyline
             id="XMLID_140_"
             class="st16"
             points="135.8,282.6 135.8,283.6 136.6,284.2     " /><polyline
             id="XMLID_139_"
             class="st20"
             points="138.2,285.5 219.8,347.7 333,347.7 413.7,293.5     " /></g></g></g></g><g
     id="XMLID_22_"><path
       id="XMLID_25_"
       class="st21"
       d="M398.2,546.4c0,11.4-9.3,20.7-20.8,20.7H182c-11.5,0-20.8-9.3-20.8-20.7V405   c0-11.4,9.3-20.7,20.8-20.7h195.4c11.5,0,20.8,9.3,20.8,20.7V546.4z" /></g><g
     id="XMLID_35_"><path
       id="XMLID_21_"
       class="st22"
       d="M351,489.8c0,9.8-8,17.8-17.8,17.8H227c-9.8,0-17.8-8-17.8-17.8v-53.6c0-9.8,8-17.8,17.8-17.8   h106.2c9.8,0,17.8,8,17.8,17.8V489.8z" /><path
       id="XMLID_20_"
       class="st23"
       d="M226.7,524.6c0-6.5,5.2-11.7,11.7-11.7c6.5,0,11.7,5.2,11.7,11.7c0,6.5-5.2,11.7-11.7,11.7   C232,536.3,226.7,531.1,226.7,524.6z" /><path
       id="XMLID_19_"
       class="st24"
       d="M263.9,523.9c0-6.1,4.9-11,11-11c6.1,0,11,4.9,11,11c0,6.1-4.9,11-11,11   C268.8,534.9,263.9,530,263.9,523.9z" /><path
       id="XMLID_18_"
       class="st25"
       d="M302.9,523.9c0-6.7,5.5-12.2,12.2-12.2c6.7,0,12.2,5.5,12.2,12.2c0,6.7-5.5,12.2-12.2,12.2   C308.4,536.1,302.9,530.7,302.9,523.9z" /><line
       id="XMLID_17_"
       class="st26"
       x1="327.2"
       y1="524.3"
       x2="313.1"
       y2="524.3" /><g
       id="XMLID_8_"><path
         id="XMLID_33_"
         class="st27"
         d="M178.9,508.9c-7.9-0.1-14.3-6.7-14.2-14.6l1-63.3c0.1-7.9,6.7-14.3,14.6-14.2l15.4,0.2    c7.9,0.1,14.3,6.7,14.2,14.6l-1,63.3c-0.1,7.9-6.7,14.3-14.6,14.2L178.9,508.9z" /><g
         id="XMLID_28_"><circle
           id="XMLID_32_"
           class="st28"
           cx="194.3"
           cy="478"
           r="5" /><circle
           id="XMLID_31_"
           class="st29"
           cx="194"
           cy="493.5"
           r="5" /><circle
           id="XMLID_30_"
           class="st30"
           cx="179.9"
           cy="477.7"
           r="5" /><circle
           id="XMLID_29_"
           class="st31"
           cx="179.7"
           cy="493.3"
           r="5" /></g><g
         id="XMLID_11_"><path
           id="XMLID_27_"
           class="st32"
           d="M187.6,440.7c2.2,0,4,1.8,3.9,4.1c0,2.2-1.8,4-4.1,3.9c-2.2,0-4-1.8-3.9-4.1     C183.6,442.5,185.4,440.7,187.6,440.7z" /><circle
           id="XMLID_26_"
           class="st32"
           cx="187.6"
           cy="444.7"
           r="16.6" /><line
           id="XMLID_16_"
           class="st32"
           x1="203.7"
           y1="445.5"
           x2="191.6"
           y2="445.3" /><line
           id="XMLID_13_"
           class="st32"
           x1="186.5"
           y1="448.9"
           x2="178.9"
           y2="459.1" /><line
           id="XMLID_12_"
           class="st32"
           x1="186.4"
           y1="440.2"
           x2="179.5"
           y2="430.6" /></g></g></g><g
     id="XMLID_14_"><path
       id="XMLID_9_"
       class="st33"
       d="M208.3,231.1c0-15,12.2-27.2,27.2-27.2c15,0,27.2,12.2,27.2,27.2c0,15-12.2,27.2-27.2,27.2   C220.4,258.3,208.3,246.1,208.3,231.1z" /><path
       id="XMLID_5_"
       class="st34"
       d="M225.8,231.1c0-5.3,4.3-9.7,9.7-9.7c5.3,0,9.7,4.3,9.7,9.7c0,5.3-4.3,9.7-9.7,9.7   C230.1,240.7,225.8,236.4,225.8,231.1z" /><circle
       id="XMLID_4_"
       class="st35"
       cx="241.7"
       cy="226.7"
       r="4.7" /></g><g
     id="XMLID_2_"><path
       id="XMLID_6_"
       class="st33"
       d="M293.9,231.1c0-15,12.2-27.2,27.2-27.2c15,0,27.2,12.2,27.2,27.2c0,15-12.2,27.2-27.2,27.2   C306,258.3,293.9,246.1,293.9,231.1z" /><path
       id="XMLID_3_"
       class="st34"
       d="M311.4,231.1c0-5.3,4.3-9.7,9.7-9.7c5.3,0,9.7,4.3,9.7,9.7c0,5.3-4.3,9.7-9.7,9.7   C315.7,240.7,311.4,236.4,311.4,231.1z" /><circle
       id="XMLID_7_"
       class="st35"
       cx="327.3"
       cy="226.7"
       r="4.7" /></g><g
     id="XMLID_34_"><g
       id="XMLID_131_"><path
         id="XMLID_132_"
         class="st6"
         d="M297.5,446.3l1.1,0.3c0.4,0.1,0.7-0.2,0.8-0.6c0.1-0.4,0.2-0.9,0.2-1.3    c0-0.4-0.2-0.8-0.6-0.8c0,0-0.5-0.1-1.1-0.1c-0.6-0.1-1-0.7-1-1.3c0-0.7,0.5-1.3,1.1-1.3l1.1-0.1c0.4,0,0.6-0.4,0.6-0.8    c-0.1-0.4-0.1-0.9-0.2-1.3c-0.1-0.4-0.4-0.7-0.8-0.6c0,0-0.5,0.1-1.1,0.2c-0.6,0.1-1.2-0.3-1.4-1c-0.2-0.7,0.1-1.3,0.6-1.6l1-0.4    c0.3-0.1,0.5-0.5,0.3-0.9c-0.2-0.4-0.3-0.8-0.6-1.2c-0.2-0.4-0.6-0.5-0.9-0.4c0,0-0.4,0.2-1,0.5c-0.5,0.3-1.2,0-1.6-0.5    c-0.4-0.6-0.3-1.3,0.2-1.7l0.9-0.7c0.3-0.2,0.3-0.7,0-1c-0.3-0.3-0.6-0.7-0.9-1c-0.3-0.3-0.7-0.3-1-0.1c0,0-0.3,0.4-0.8,0.8    c-0.4,0.4-1.2,0.4-1.7,0c-0.5-0.4-0.7-1.2-0.3-1.6l0.6-0.9c0.2-0.3,0.1-0.7-0.3-1c-0.4-0.3-0.8-0.5-1.2-0.7    c-0.4-0.2-0.8-0.1-1,0.2c0,0-0.2,0.4-0.5,1c-0.3,0.5-1,0.7-1.6,0.5c-0.6-0.3-1-0.9-0.8-1.5l0.3-1c0.1-0.3-0.1-0.7-0.5-0.8    c-0.4-0.1-0.9-0.3-1.3-0.3c-0.4-0.1-0.8,0.1-0.9,0.5c0,0-0.1,0.5-0.2,1.1c-0.1,0.6-0.7,1-1.4,0.9c-0.7-0.1-1.2-0.6-1.2-1.2l0-1.1    c0-0.4-0.3-0.7-0.8-0.7c-0.5,0-0.9,0-1.4,0.1c-0.4,0-0.7,0.4-0.7,0.7c0,0,0.1,0.5,0.1,1.1c0.1,0.6-0.4,1.2-1.1,1.3    c-0.7,0.1-1.3-0.2-1.5-0.8l-0.3-1.1c-0.1-0.4-0.5-0.5-0.9-0.4c-0.4,0.1-0.9,0.3-1.3,0.5c-0.4,0.2-0.6,0.6-0.4,0.9    c0,0,0.2,0.5,0.5,1c0.3,0.6,0,1.2-0.6,1.6c-0.6,0.3-1.3,0.2-1.7-0.3l-0.6-0.9c-0.2-0.3-0.6-0.4-1-0.1c-0.4,0.2-0.7,0.6-1.1,0.8    c-0.3,0.3-0.4,0.7-0.2,1c0,0,0.3,0.4,0.7,0.8c0.4,0.5,0.3,1.2-0.2,1.7c-0.5,0.5-1.2,0.6-1.7,0.2l-0.8-0.7c-0.3-0.2-0.7-0.2-1,0.2    c-0.3,0.4-0.5,0.7-0.8,1.1c-0.2,0.4-0.2,0.8,0.1,1c0,0,0.4,0.3,1,0.6c0.5,0.3,0.7,1,0.4,1.6c-0.3,0.6-1,0.9-1.5,0.7l-1-0.4    c-0.3-0.1-0.7,0.1-0.9,0.5c-0.2,0.4-0.3,0.9-0.4,1.3c-0.1,0.4,0.1,0.8,0.4,0.9c0,0,0.5,0.1,1.1,0.3c0.6,0.1,0.9,0.8,0.8,1.5    c-0.1,0.7-0.6,1.2-1.3,1.1l-1.1-0.1c-0.4,0-0.7,0.3-0.7,0.7c0,0.4,0,0.9,0,1.4c0,0.4,0.3,0.8,0.7,0.7c0,0,0.5,0,1.1-0.1    c0.6,0,1.1,0.5,1.2,1.2c0.1,0.7-0.3,1.3-0.9,1.4l-1.1,0.2c-0.4,0.1-0.6,0.5-0.5,0.9c0.1,0.4,0.3,0.9,0.4,1.3    c0.1,0.4,0.5,0.6,0.9,0.5c0,0,0.5-0.2,1-0.4c0.6-0.2,1.2,0.1,1.5,0.8c0.3,0.6,0.1,1.3-0.4,1.6l-1,0.5c-0.3,0.2-0.4,0.6-0.2,1    l0.7,1.1c0.2,0.4,0.7,0.4,1,0.2c0,0,0.4-0.3,0.9-0.7c0.5-0.4,1.2-0.2,1.7,0.3c0.5,0.5,0.5,1.2,0.1,1.7l-0.8,0.8    c-0.2,0.2-0.2,0.7,0.1,1l1,0.9c0.3,0.3,0.8,0.2,1-0.1c0,0,0.3-0.4,0.6-0.9c0.4-0.5,1.1-0.6,1.7-0.2c0.6,0.3,0.9,1,0.6,1.6l-0.5,1    c-0.2,0.3,0,0.8,0.4,0.9l1.2,0.5c0.4,0.2,0.8,0,0.9-0.4c0,0,0.2-0.5,0.3-1.1c0.2-0.6,0.6-1,0.9-0.9c0.2,0.1,0.4,0.1,0.6,0.2    c0.2,0,0.4,0.1,0.6,0.1c0.3,0.1,0.5,0.6,0.4,1.2l-0.2,1.1c-0.1,0.3,0.2,0.7,0.6,0.8l1.4,0.1c0.4,0.1,0.8-0.3,0.8-0.6    c0,0,0-0.5,0-1.1c0-0.6,0.6-1.1,1.2-1.1c0.7,0,1.3,0.4,1.4,1l0.1,1.1c0,0.4,0.4,0.6,0.8,0.5l1.3-0.3c0.4-0.1,0.7-0.5,0.6-0.8    c0,0-0.1-0.5-0.3-1.1c-0.2-0.6,0.2-1.2,0.9-1.4c0.6-0.2,1.3,0,1.6,0.5l0.5,1c0.1,0.3,0.6,0.5,1,0.3l1.2-0.6c0.4-0.2,0.5-0.7,0.3-1    c0,0-0.3-0.4-0.6-0.9c-0.3-0.5-0.1-1.2,0.4-1.6c0.5-0.4,1.3-0.4,1.7,0l0.7,0.8c0.2,0.3,0.7,0.3,1,0c0.3-0.3,0.7-0.6,1-1    c0.3-0.3,0.3-0.8,0-1c0,0-0.4-0.3-0.8-0.7c-0.5-0.4-0.5-1.1-0.1-1.7c0.4-0.6,1.1-0.8,1.6-0.5l0.9,0.6c0.3,0.2,0.7,0,0.9-0.3    c0.2-0.4,0.4-0.8,0.6-1.2c0.2-0.4,0-0.8-0.3-1c0,0-0.5-0.2-1-0.4c-0.6-0.2-0.8-0.9-0.6-1.6C296.2,446.5,296.9,446.1,297.5,446.3z     M292.8,444.4l-8.5-2.1c0.1-1.6-0.8-3.2-2.3-3.8l2.1-8.5C290.3,431.8,294,438,292.8,444.4z M282.8,429.6l-2.1,8.5    c-1.6-0.1-3.2,0.8-3.8,2.3l-8.5-2.1C270.3,432.2,276.5,428.4,282.8,429.6z M268.1,439.6l8.5,2.1c-0.1,1.6,0.8,3.2,2.3,3.8    l-2.1,8.5C270.6,452.1,266.9,445.9,268.1,439.6z M278.1,454.3l2.1-8.5c1.6,0.1,3.2-0.8,3.8-2.3l8.5,2.1    C290.6,451.8,284.4,455.5,278.1,454.3z" /></g><g
       id="XMLID_126_"><g
         id="XMLID_128_"><path
           id="XMLID_129_"
           class="st36"
           d="M318.4,470.8l0.8,0.2c0.3,0.1,0.5-0.1,0.6-0.5c0.1-0.3,0.1-0.7,0.2-1     c0-0.3-0.2-0.6-0.4-0.6c0,0-0.4,0-0.8-0.1c-0.5,0-0.8-0.5-0.8-1c0-0.5,0.4-1,0.8-1l0.9,0c0.3,0,0.5-0.3,0.4-0.6     c0-0.3-0.1-0.7-0.1-1c-0.1-0.3-0.3-0.5-0.6-0.5c0,0-0.4,0.1-0.8,0.2c-0.5,0.1-0.9-0.2-1.1-0.7c-0.1-0.5,0.1-1,0.5-1.2l0.8-0.3     c0.3-0.1,0.4-0.4,0.2-0.7c-0.1-0.3-0.2-0.6-0.4-0.9c-0.2-0.3-0.5-0.4-0.7-0.3c0,0-0.3,0.2-0.7,0.4c-0.4,0.2-0.9,0-1.2-0.4     c-0.3-0.4-0.2-1,0.1-1.3l0.7-0.5c0.2-0.2,0.2-0.5,0-0.8c-0.2-0.3-0.4-0.5-0.7-0.8c-0.2-0.2-0.6-0.3-0.8-0.1c0,0-0.3,0.3-0.6,0.6     c-0.3,0.3-0.9,0.3-1.3,0c-0.4-0.3-0.5-0.9-0.3-1.3l0.5-0.7c0.2-0.2,0.1-0.6-0.2-0.7c-0.3-0.2-0.6-0.4-0.9-0.5     c-0.3-0.2-0.6-0.1-0.7,0.2c0,0-0.2,0.3-0.4,0.8c-0.2,0.4-0.8,0.6-1.2,0.4c-0.5-0.2-0.8-0.7-0.6-1.1l0.3-0.8     c0.1-0.3-0.1-0.6-0.4-0.6c-0.3-0.1-0.7-0.2-1-0.2c-0.3-0.1-0.6,0.1-0.7,0.4c0,0-0.1,0.4-0.1,0.8c-0.1,0.5-0.6,0.8-1.1,0.7     c-0.5-0.1-0.9-0.4-0.9-0.9l0-0.9c0-0.3-0.3-0.5-0.6-0.5c-0.4,0-0.7,0-1,0.1c-0.3,0-0.6,0.3-0.5,0.6c0,0,0,0.4,0.1,0.8     c0.1,0.5-0.3,0.9-0.8,1c-0.5,0.1-1-0.1-1.2-0.6l-0.2-0.8c-0.1-0.3-0.4-0.4-0.7-0.3c-0.3,0.1-0.7,0.2-1,0.4     c-0.3,0.1-0.4,0.4-0.3,0.7c0,0,0.2,0.3,0.4,0.8c0.2,0.4,0,0.9-0.5,1.2c-0.5,0.2-1,0.2-1.3-0.2l-0.5-0.7c-0.2-0.2-0.5-0.3-0.8-0.1     c-0.3,0.2-0.6,0.4-0.8,0.6c-0.3,0.2-0.3,0.5-0.1,0.8c0,0,0.3,0.3,0.6,0.6c0.3,0.4,0.2,0.9-0.1,1.3c-0.4,0.4-0.9,0.5-1.3,0.2     l-0.6-0.5c-0.2-0.2-0.6-0.1-0.8,0.1c-0.2,0.3-0.4,0.6-0.6,0.9c-0.2,0.3-0.1,0.6,0.1,0.8c0,0,0.3,0.2,0.7,0.4     c0.4,0.2,0.5,0.8,0.3,1.3c-0.2,0.5-0.7,0.7-1.2,0.5L292,462c-0.3-0.1-0.6,0.1-0.7,0.4c-0.1,0.3-0.2,0.7-0.3,1     c-0.1,0.3,0,0.6,0.3,0.7c0,0,0.4,0.1,0.8,0.2c0.5,0.1,0.7,0.6,0.6,1.1c-0.1,0.5-0.5,0.9-1,0.9l-0.8-0.1c-0.3,0-0.5,0.2-0.6,0.5     c0,0.3,0,0.7,0,1c0,0.3,0.2,0.6,0.5,0.6c0,0,0.4,0,0.9-0.1c0.5,0,0.9,0.4,0.9,0.9c0.1,0.5-0.2,1-0.7,1.1l-0.8,0.2     c-0.3,0.1-0.4,0.4-0.4,0.7c0.1,0.3,0.2,0.7,0.3,1c0.1,0.3,0.4,0.5,0.7,0.4c0,0,0.4-0.1,0.8-0.3c0.4-0.2,0.9,0.1,1.2,0.6     c0.2,0.5,0.1,1-0.3,1.3l-0.7,0.4c-0.2,0.1-0.3,0.5-0.2,0.8l0.6,0.9c0.2,0.3,0.5,0.3,0.8,0.2c0,0,0.3-0.2,0.7-0.5     c0.4-0.3,0.9-0.2,1.3,0.2c0.4,0.4,0.4,1,0.1,1.3l-0.6,0.6c-0.2,0.2-0.2,0.6,0.1,0.8l0.8,0.7c0.2,0.2,0.6,0.2,0.8-0.1     c0,0,0.2-0.3,0.5-0.7c0.3-0.4,0.8-0.4,1.3-0.2c0.5,0.3,0.7,0.8,0.4,1.2l-0.4,0.8c-0.1,0.2,0,0.6,0.3,0.7l1,0.4     c0.3,0.1,0.6,0,0.7-0.3c0,0,0.1-0.4,0.3-0.8c0.2-0.4,0.5-0.7,0.7-0.7c0.1,0,0.3,0.1,0.5,0.1c0.2,0,0.3,0.1,0.5,0.1     c0.3,0.1,0.4,0.5,0.3,0.9l-0.1,0.8c0,0.3,0.2,0.6,0.5,0.6l1,0.1c0.3,0,0.6-0.2,0.6-0.5c0,0,0-0.4,0-0.8c0-0.5,0.4-0.8,1-0.9     c0.5,0,1,0.3,1.1,0.7l0.1,0.8c0,0.3,0.3,0.5,0.7,0.4l1-0.2c0.3-0.1,0.5-0.4,0.4-0.6c0,0-0.1-0.4-0.2-0.8     c-0.1-0.4,0.2-0.9,0.7-1.1c0.5-0.2,1,0,1.2,0.4l0.4,0.8c0.1,0.2,0.5,0.4,0.7,0.2l0.9-0.5c0.3-0.2,0.4-0.5,0.2-0.7     c0,0-0.2-0.3-0.5-0.7c-0.3-0.4-0.1-0.9,0.3-1.3c0.4-0.3,1-0.3,1.3,0l0.6,0.6c0.2,0.2,0.5,0.2,0.8,0c0.2-0.2,0.5-0.5,0.7-0.7     c0.2-0.3,0.2-0.6,0-0.8c0,0-0.3-0.2-0.7-0.5c-0.4-0.3-0.4-0.9-0.1-1.3c0.3-0.4,0.8-0.6,1.3-0.3l0.7,0.4c0.2,0.1,0.6,0,0.7-0.3     c0.2-0.3,0.3-0.6,0.5-0.9c0.1-0.3,0-0.6-0.2-0.7c0,0-0.4-0.1-0.8-0.3c-0.4-0.2-0.6-0.7-0.5-1.2     C317.4,471,317.9,470.7,318.4,470.8z" /></g><path
         id="XMLID_92_"
         class="st37"
         d="M311.1,467.1c0.2,3.2-2.2,6-5.5,6.3c-3.2,0.2-6.1-2.2-6.3-5.5c-0.2-3.2,2.2-6.1,5.5-6.3    C308.1,461.4,310.9,463.8,311.1,467.1z" /></g><g
       id="XMLID_119_"><path
         id="XMLID_120_"
         class="st6"
         d="M266.3,464.9c-0.6,0.2-1.3,0-1.6-0.6c-0.2-0.6-0.4-1-0.4-1c-0.1-0.3-0.6-0.5-1-0.3    c-0.4,0.2-0.8,0.4-1.2,0.6c-0.4,0.2-0.5,0.6-0.3,0.9l0.6,0.9c0.3,0.5,0.1,1.2-0.5,1.6c-0.6,0.4-1.3,0.4-1.7-0.1    c-0.4-0.5-0.7-0.8-0.7-0.8c-0.2-0.3-0.7-0.3-1,0c-0.3,0.3-0.6,0.6-1,1c-0.3,0.3-0.3,0.7,0,1l0.8,0.7c0.5,0.4,0.5,1.1,0,1.7    c-0.4,0.5-1.1,0.7-1.6,0.4c-0.5-0.3-0.9-0.6-0.9-0.6c-0.3-0.2-0.7-0.1-1,0.3l-0.6,1.2c-0.2,0.4-0.1,0.8,0.3,1l1,0.5    c0.6,0.3,0.8,1,0.5,1.6c-0.2,0.6-0.9,1-1.4,0.9c-0.6-0.2-1.1-0.3-1.1-0.3c-0.3-0.1-0.8,0.1-0.8,0.6l-0.3,1.3    c-0.1,0.4,0.2,0.8,0.5,0.8l1.1,0.1c0.6,0.1,1,0.7,1,1.4c0,0.7-0.5,1.2-1.1,1.2c-0.6,0-1.1,0-1.1,0c-0.4,0-0.7,0.4-0.6,0.8l0.1,1.4    c0,0.4,0.4,0.7,0.8,0.6l1.1-0.2c0.6-0.1,1.1,0.1,1.2,0.4c0,0.2,0.1,0.4,0.1,0.6c0,0.2,0.1,0.4,0.2,0.6c0.1,0.3-0.3,0.7-0.9,0.9    c-0.6,0.2-1,0.3-1,0.3c-0.3,0.1-0.5,0.5-0.4,0.9l0.5,1.2c0.1,0.4,0.6,0.6,0.9,0.4l1-0.5c0.5-0.3,1.2,0,1.6,0.6    c0.4,0.6,0.3,1.3-0.2,1.7c-0.5,0.4-0.9,0.6-0.9,0.6c-0.3,0.2-0.4,0.7-0.1,1l0.9,1c0.3,0.3,0.7,0.3,1,0.1l0.8-0.8    c0.4-0.4,1.2-0.4,1.7,0.1c0.5,0.4,0.6,1.2,0.3,1.7c-0.4,0.5-0.7,0.9-0.7,0.9c-0.2,0.3-0.1,0.7,0.2,1l1.1,0.7    c0.4,0.2,0.8,0.1,1-0.2l0.5-1c0.3-0.5,1-0.7,1.6-0.4c0.6,0.3,1,0.9,0.8,1.5c-0.2,0.6-0.4,1-0.4,1c-0.1,0.3,0.1,0.7,0.5,0.9    c0.4,0.1,0.9,0.3,1.3,0.4c0.4,0.1,0.8-0.1,0.9-0.5l0.2-1.1c0.1-0.6,0.8-1,1.4-0.9c0.7,0.1,1.2,0.6,1.2,1.2c0,0.6-0.1,1.1-0.1,1.1    c0,0.4,0.3,0.7,0.7,0.7c0.5,0,0.9,0,1.4,0c0.4,0,0.7-0.4,0.7-0.7l-0.1-1.1c-0.1-0.6,0.4-1.1,1.1-1.3c0.7-0.1,1.3,0.2,1.5,0.8    c0.1,0.6,0.3,1.1,0.3,1.1c0.1,0.3,0.5,0.5,0.9,0.4c0.4-0.1,0.9-0.2,1.3-0.4c0.4-0.2,0.6-0.6,0.5-0.9l-0.4-1    c-0.2-0.6,0.1-1.2,0.7-1.5c0.6-0.3,1.3-0.2,1.6,0.3c0.3,0.5,0.6,1,0.6,1c0.2,0.3,0.6,0.4,1,0.1c0.4-0.3,0.8-0.5,1.1-0.8    c0.3-0.3,0.4-0.7,0.2-1l-0.7-0.8c-0.4-0.5-0.3-1.2,0.2-1.7c0.5-0.5,1.2-0.6,1.7-0.2c0.5,0.4,0.8,0.7,0.8,0.7    c0.3,0.2,0.7,0.2,1-0.2c0.3-0.4,0.6-0.7,0.8-1.1c0.2-0.3,0.2-0.8-0.1-1l-0.9-0.6c-0.5-0.3-0.6-1.1-0.3-1.7c0.3-0.6,1-0.9,1.6-0.6    c0.6,0.3,1,0.5,1,0.5c0.3,0.2,0.7,0,0.9-0.4c0.2-0.4,0.4-0.8,0.5-1.3c0.1-0.4,0-0.8-0.4-0.9l-1.1-0.3c-0.6-0.2-0.9-0.8-0.8-1.5    c0.1-0.7,0.7-1.1,1.3-1.1c0.6,0.1,1.1,0.1,1.1,0.1c0.4,0,0.7-0.3,0.7-0.7c0.1-0.4,0.1-0.9,0.1-1.4c0-0.4-0.3-0.8-0.7-0.8l-1.1,0    c-0.6,0-1.1-0.5-1.2-1.2c-0.1-0.7,0.3-1.3,0.9-1.4c0.6-0.1,1.1-0.2,1.1-0.2c0.4-0.1,0.6-0.4,0.5-0.9c-0.1-0.4-0.2-0.9-0.3-1.3    c-0.1-0.4-0.5-0.6-0.8-0.5l-1,0.3c-0.6,0.2-1.2-0.2-1.5-0.8c-0.3-0.6-0.1-1.3,0.5-1.6c0.5-0.3,1-0.5,1-0.5c0.3-0.2,0.4-0.6,0.2-1    c-0.2-0.4-0.4-0.8-0.7-1.2c-0.2-0.4-0.7-0.5-1-0.3l-0.9,0.6c-0.5,0.4-1.2,0.2-1.6-0.3c-0.4-0.5-0.5-1.3,0-1.7    c0.4-0.4,0.8-0.8,0.8-0.8c0.3-0.2,0.2-0.7-0.1-1c-0.3-0.3-0.7-0.6-1-0.9c-0.3-0.3-0.8-0.2-1,0l-0.7,0.9c-0.4,0.5-1.1,0.5-1.7,0.2    c-0.6-0.4-0.8-1.1-0.5-1.6c0.3-0.5,0.5-1,0.5-1c0.2-0.3,0-0.7-0.4-0.9c-0.4-0.2-0.8-0.4-1.2-0.6c-0.4-0.2-0.8,0-0.9,0.3l-0.4,1    c-0.2,0.6-0.9,0.8-1.5,0.6c-0.7-0.2-1.1-0.8-1-1.4c0.1-0.6,0.2-1.1,0.2-1.1c0.1-0.4-0.2-0.7-0.6-0.8c-0.4-0.1-0.9-0.1-1.3-0.2    c-0.4,0-0.8,0.2-0.8,0.6l-0.1,1.1c0,0.6-0.6,1.1-1.3,1.1c-0.7,0-1.3-0.4-1.3-1c-0.1-0.6-0.1-1.1-0.1-1.1c0-0.4-0.4-0.6-0.8-0.6    c-0.4,0.1-0.9,0.2-1.3,0.2c-0.4,0.1-0.7,0.4-0.6,0.8l0.3,1.1C267.4,464.1,266.9,464.7,266.3,464.9z M283.5,476.9L275,479    c-0.7-1.5-2.2-2.4-3.8-2.3l-2.1-8.5C275.4,467,281.6,470.7,283.5,476.9z M275.2,492.5l-2.1-8.5c1.5-0.7,2.4-2.2,2.3-3.8l8.5-2.1    C285,484.4,281.3,490.7,275.2,492.5z M259.5,484.2l8.5-2.1c0.7,1.5,2.2,2.4,3.8,2.3l2.1,8.5C267.6,494.1,261.3,490.3,259.5,484.2z     M267.8,468.5l2.1,8.5c-1.5,0.7-2.4,2.2-2.3,3.8l-8.5,2.1C257.9,476.6,261.7,470.4,267.8,468.5z" /></g><g
       id="XMLID_87_"><g
         id="XMLID_88_"><path
           id="XMLID_116_"
           class="st36"
           d="M242,443.7c-0.5,0.2-1,0-1.2-0.5c-0.2-0.4-0.3-0.8-0.3-0.8c-0.1-0.3-0.4-0.4-0.7-0.2     c-0.3,0.1-0.6,0.3-0.9,0.5c-0.3,0.2-0.4,0.5-0.3,0.7l0.4,0.7c0.2,0.4,0.1,1-0.4,1.3c-0.4,0.3-1,0.3-1.3-0.1     c-0.3-0.4-0.5-0.6-0.5-0.6c-0.2-0.2-0.5-0.2-0.8,0c-0.3,0.2-0.5,0.5-0.7,0.7c-0.2,0.2-0.2,0.6,0,0.8l0.6,0.6     c0.3,0.3,0.3,0.9,0,1.3c-0.3,0.4-0.9,0.6-1.3,0.3c-0.4-0.3-0.7-0.5-0.7-0.5c-0.2-0.2-0.6-0.1-0.7,0.2l-0.5,0.9     c-0.2,0.3-0.1,0.6,0.2,0.7l0.8,0.4c0.4,0.2,0.6,0.7,0.4,1.2c-0.2,0.5-0.7,0.8-1.1,0.7c-0.5-0.1-0.8-0.2-0.8-0.2     c-0.3-0.1-0.6,0.1-0.6,0.4l-0.2,1c-0.1,0.3,0.1,0.6,0.4,0.6l0.8,0.1c0.5,0.1,0.8,0.5,0.8,1.1c0,0.5-0.4,1-0.9,1     c-0.5,0-0.8,0-0.8,0c-0.3,0-0.5,0.3-0.5,0.6l0.1,1c0,0.3,0.3,0.5,0.6,0.5l0.8-0.1c0.5-0.1,0.9,0.1,0.9,0.3c0,0.2,0.1,0.3,0.1,0.5     c0,0.2,0.1,0.3,0.1,0.5c0.1,0.3-0.2,0.6-0.7,0.7c-0.4,0.1-0.8,0.3-0.8,0.3c-0.3,0.1-0.4,0.4-0.3,0.7l0.4,1     c0.1,0.3,0.5,0.4,0.7,0.3l0.8-0.4c0.4-0.2,1,0,1.2,0.4c0.3,0.4,0.2,1-0.2,1.3c-0.4,0.3-0.7,0.5-0.7,0.5c-0.2,0.2-0.3,0.5-0.1,0.8     l0.7,0.8c0.2,0.3,0.6,0.3,0.8,0.1l0.6-0.6c0.3-0.3,0.9-0.3,1.3,0.1c0.4,0.3,0.5,0.9,0.2,1.3c-0.3,0.4-0.5,0.7-0.5,0.7     c-0.2,0.2-0.1,0.6,0.2,0.8l0.9,0.6c0.3,0.2,0.6,0.1,0.8-0.2l0.4-0.7c0.2-0.4,0.8-0.5,1.3-0.3c0.5,0.2,0.7,0.7,0.6,1.2     c-0.2,0.4-0.3,0.8-0.3,0.8c-0.1,0.3,0.1,0.6,0.4,0.7c0.3,0.1,0.7,0.2,1,0.3c0.3,0.1,0.6-0.1,0.7-0.4l0.2-0.8     c0.1-0.5,0.6-0.7,1.1-0.7c0.5,0.1,0.9,0.5,0.9,0.9c0,0.5,0,0.9,0,0.9c0,0.3,0.2,0.5,0.6,0.5c0.3,0,0.7,0,1,0     c0.3,0,0.6-0.3,0.5-0.6l-0.1-0.8c0-0.5,0.3-0.9,0.9-1c0.5-0.1,1,0.2,1.1,0.6c0.1,0.5,0.2,0.8,0.2,0.8c0.1,0.3,0.4,0.4,0.7,0.3     c0.3-0.1,0.7-0.2,1-0.3c0.3-0.1,0.5-0.4,0.4-0.7l-0.3-0.8c-0.2-0.4,0.1-0.9,0.5-1.2c0.5-0.2,1-0.1,1.3,0.3     c0.2,0.4,0.4,0.7,0.4,0.7c0.1,0.2,0.5,0.3,0.8,0.1c0.3-0.2,0.6-0.4,0.9-0.6c0.3-0.2,0.3-0.6,0.1-0.8l-0.5-0.6     c-0.3-0.4-0.2-0.9,0.2-1.3c0.4-0.4,0.9-0.4,1.3-0.1c0.3,0.3,0.6,0.6,0.6,0.6c0.2,0.2,0.5,0.1,0.8-0.1c0.2-0.3,0.5-0.5,0.6-0.8     c0.2-0.3,0.1-0.6-0.1-0.8l-0.7-0.5c-0.4-0.3-0.5-0.8-0.2-1.3c0.3-0.5,0.8-0.7,1.2-0.5c0.4,0.2,0.8,0.4,0.8,0.4     c0.3,0.1,0.6,0,0.7-0.3c0.1-0.3,0.3-0.6,0.4-1c0.1-0.3,0-0.6-0.3-0.7l-0.8-0.2c-0.5-0.1-0.7-0.6-0.6-1.1c0.1-0.5,0.5-0.9,1-0.8     c0.5,0.1,0.8,0.1,0.8,0.1c0.3,0,0.5-0.2,0.6-0.5c0-0.3,0.1-0.7,0.1-1c0-0.3-0.2-0.6-0.5-0.6l-0.9,0c-0.5,0-0.9-0.4-0.9-0.9     c0-0.5,0.3-1,0.7-1.1c0.5-0.1,0.8-0.1,0.8-0.1c0.3,0,0.5-0.3,0.4-0.7c-0.1-0.3-0.1-0.7-0.2-1c-0.1-0.3-0.4-0.5-0.6-0.4l-0.8,0.3     c-0.4,0.1-0.9-0.1-1.1-0.6c-0.2-0.5-0.1-1,0.4-1.2c0.4-0.2,0.8-0.4,0.8-0.4c0.3-0.1,0.3-0.5,0.2-0.7c-0.2-0.3-0.3-0.6-0.5-0.9     c-0.2-0.3-0.5-0.4-0.7-0.2l-0.7,0.5c-0.4,0.3-0.9,0.1-1.3-0.3c-0.3-0.4-0.4-1,0-1.3c0.3-0.3,0.6-0.6,0.6-0.6     c0.2-0.2,0.2-0.5-0.1-0.8c-0.2-0.3-0.5-0.5-0.8-0.7c-0.3-0.2-0.6-0.2-0.8,0l-0.5,0.7c-0.3,0.4-0.9,0.4-1.3,0.1     c-0.4-0.3-0.6-0.8-0.4-1.2c0.2-0.4,0.4-0.7,0.4-0.7c0.1-0.2,0-0.6-0.3-0.7c-0.3-0.2-0.6-0.3-0.9-0.4c-0.3-0.1-0.6,0-0.7,0.2     l-0.3,0.8c-0.2,0.4-0.7,0.6-1.2,0.5c-0.5-0.1-0.8-0.6-0.8-1.1c0.1-0.5,0.2-0.8,0.2-0.8c0.1-0.3-0.2-0.6-0.5-0.6     c-0.3-0.1-0.7-0.1-1-0.1c-0.3,0-0.6,0.2-0.6,0.4l0,0.9c0,0.5-0.5,0.8-1,0.8c-0.5,0-1-0.3-1-0.8c0-0.5-0.1-0.8-0.1-0.8     c0-0.3-0.3-0.5-0.6-0.4c-0.3,0-0.7,0.1-1,0.2c-0.3,0.1-0.5,0.3-0.5,0.6l0.2,0.8C242.8,443.1,242.5,443.5,242,443.7z" /></g><path
         id="XMLID_137_"
         class="st37"
         d="M246.4,449.9c-3.2-0.2-6,2.2-6.3,5.5c-0.2,3.2,2.2,6,5.5,6.3c3.2,0.2,6.1-2.2,6.3-5.5    C252.1,452.9,249.6,450.1,246.4,449.9z" /></g></g><rect
     id="XMLID_102_"
     x="170.9"
     y="574.1"
     class="st38"
     width="60.2"
     height="185.7" /><path
     id="XMLID_101_"
     class="st39"
     d="M244.8,656.7c0,11.5-9.3,20.8-20.8,20.8h-47.6c-11.5,0-20.8-9.3-20.8-20.8l0,0  c0-11.5,9.3-20.8,20.8-20.8H224C235.5,635.9,244.8,645.2,244.8,656.7L244.8,656.7z" /><path
     id="XMLID_100_"
     class="st40"
     d="M201.3,738.8c26.5,0,47.9,17.5,47.9,43.9h-95.8C153.4,756.3,174.8,738.8,201.3,738.8z" /><rect
     id="XMLID_99_"
     x="331"
     y="574.1"
     class="st38"
     width="60.2"
     height="185.7" /><path
     id="XMLID_98_"
     class="st39"
     d="M405,656.7c0,11.5-9.3,20.8-20.8,20.8h-47.6c-11.5,0-20.8-9.3-20.8-20.8l0,0  c0-11.5,9.3-20.8,20.8-20.8h47.6C395.7,635.9,405,645.2,405,656.7L405,656.7z" /><path
     id="XMLID_97_"
     class="st40"
     d="M361.4,738.8c26.5,0,47.9,17.5,47.9,43.9h-95.8C313.5,756.3,335,738.8,361.4,738.8z" /><g
     id="XMLID_1_" /><g
     id="XMLID_47_" /><g
     id="XMLID_48_" /><g
     id="XMLID_49_" /><g
     id="XMLID_50_" /><g
     id="XMLID_51_" /></svg>