<?xml version="1.0" encoding="utf-8"?>
<!-- Generator: Adobe Illustrator 19.0.0, SVG Export Plug-In . SVG Version: 6.00 Build 0)  -->
<svg version="1.1" id="Capa_1" xmlns="http://www.w3.org/2000/svg" xmlns:xlink="http://www.w3.org/1999/xlink" x="0px" y="0px"
	 viewBox="94 -4 800 800" style="enable-background:new 94 -4 800 800;" xml:space="preserve">
<style type="text/css">
	.st0{fill:#6EAA6F;}
	.st1{fill:#483224;}
	.st2{fill:#7AB098;}
	.st3{fill:#517C6B;}
	.st4{fill:#D58455;}
	.st5{fill:#463023;}
	.st6{fill:#80B0A5;}
	.st7{fill:#C85449;}
	.st8{fill:#76AADB;}
	.st9{fill:#A0BCDF;stroke:#DB9600;stroke-miterlimit:10;}
	.st10{fill:#533726;}
	.st11{fill:#E7C264;}
	.st12{fill:#AA4057;}
	.st13{fill:none;stroke:#99654B;stroke-miterlimit:10;}
	.st14{fill:#483125;}
	.st15{fill:#537E70;}
	.st16{fill:#D8D9DD;}
	.st17{fill:#E6C05C;}
	.st18{fill:#C65044;}
	.st19{fill:#E8C761;}
	.st20{fill:#B84E47;}
	.st21{fill:#402B25;}
	.st22{fill:#FFFDFC;}
	.st23{fill:#C64832;}
	.st24{fill:#CB6120;}
	.st25{fill:#C64832;stroke:#453124;stroke-miterlimit:10;}
	.st26{fill:none;stroke:#453124;stroke-miterlimit:10;}
	.st27{fill:#D17843;}
	.st28{fill:#A01127;}
	.st29{font-family:'MyriadPro-Regular';}
	.st30{font-size:40.2856px;}
</style>
<g>
	<g>
		<path class="st0" d="M544.6,496.5c0,7.2-5.6,13.1-12.5,13.1H410.3c-6.9,0-12.5-5.9-12.5-13.1v-74.4c0-7.2,5.6-13.1,12.5-13.1
			h121.8c6.9,0,12.5,5.9,12.5,13.1L544.6,496.5L544.6,496.5z"/>
		<g>
			<rect x="503.9" y="279.9" class="st1" width="1.9" height="49.9"/>
			<g>
				<g>
					<path class="st2" d="M490.3,266.3c-0.5-0.4-0.5-1-0.2-1.5l0,0c3.4-4.2,8.6-6.9,14.5-6.9l0,0c4.9,0,9.3,1.9,12.7,5l0,0
						c0.4,0.4,0.5,1.1,0.1,1.5l0,0c-0.4,0.4-1.1,0.5-1.5,0.1l0,0c-3-2.7-6.9-4.4-11.2-4.4l0,0c-5.2,0-9.8,2.4-12.8,6.1l0,0
						c-0.2,0.3-0.5,0.4-0.8,0.4l0,0C490.7,266.5,490.5,266.4,490.3,266.3L490.3,266.3z"/>
				</g>
				<g>
					<path class="st2" d="M493.1,268.7c-0.5-0.4-0.5-1-0.2-1.5l0,0c2.7-3.4,6.9-5.6,11.6-5.6l0,0c3.9,0,7.5,1.5,10.1,4l0,0
						c0.4,0.4,0.5,1.1,0,1.5l0,0c-0.4,0.4-1.1,0.5-1.5,0.1l0,0c-2.3-2.1-5.3-3.4-8.7-3.4l0,0c-4,0-7.6,1.9-9.9,4.8l0,0v0
						c-0.2,0.3-0.5,0.4-0.8,0.4l0,0C493.6,269,493.3,268.9,493.1,268.7L493.1,268.7z"/>
				</g>
				<g>
					<path class="st2" d="M496.1,271.1c-0.5-0.4-0.5-1-0.2-1.5l0,0c2-2.6,5.2-4.2,8.7-4.2l0,0c3,0,5.7,1.2,7.7,3.1l0,0
						c0.4,0.4,0.4,1.1,0,1.5l0,0c-0.4,0.4-1.1,0.4-1.5,0l0,0c-1.6-1.6-3.8-2.5-6.2-2.5l0,0c-2.8,0-5.4,1.3-7,3.4l0,0h0
						c-0.2,0.3-0.5,0.4-0.8,0.4l0,0C496.5,271.3,496.3,271.3,496.1,271.1L496.1,271.1z"/>
				</g>
				<circle class="st1" cx="504.6" cy="276.5" r="6.2"/>
			</g>
		</g>
		<ellipse class="st3" cx="503.6" cy="313.7" rx="11.7" ry="8.8"/>
		<path class="st4" d="M388.7,453.3c0,2.7-2.2,4.9-4.9,4.9l0,0c-2.7,0-4.9-2.2-4.9-4.9v-28.7c0-2.7,2.2-4.9,4.9-4.9l0,0
			c2.7,0,4.9,2.2,4.9,4.9V453.3z"/>
		<path class="st4" d="M388.7,504.7c0,2.7-2.2,4.9-4.9,4.9l0,0c-2.7,0-4.9-2.2-4.9-4.9V476c0-2.7,2.2-4.9,4.9-4.9l0,0
			c2.7,0,4.9,2.2,4.9,4.9V504.7z"/>
		<circle class="st5" cx="383.2" cy="464" r="6.8"/>
		<path class="st6" d="M373.3,511.2c0,0-0.2-15.4,9.2-15.4c9.4,0,11.8,7.3,11.8,17.1c0,0-0.9,3.5-3.3,3.5s0.3-6.5-1.5-8.3
			c-1.7-1.7-3.5,2-3.5,6.6c0,4.6-5.3,3.8-9,3.8C373.3,518.5,373.3,516.5,373.3,511.2z"/>
		<path class="st7" d="M397.4,435.6c0,2.6-2.1,4.7-4.7,4.7l0,0c-2.6,0-4.7-2.1-4.7-4.7v-12.8c0-2.6,2.1-4.7,4.7-4.7l0,0
			c2.6,0,4.7,2.1,4.7,4.7V435.6z"/>
		<polygon class="st8" points="530.6,402 408.3,402 416.4,312.3 521,312.3 		"/>
		<path class="st9" d="M531.9,404.2c0,2.8-3.7,5.1-8.4,5.1H413.1c-4.6,0-8.4-2.3-8.4-5.1v-2.3c0-2.8,3.7-5.1,8.4-5.1h110.4
			c4.6,0,8.4,2.3,8.4,5.1L531.9,404.2L531.9,404.2z"/>
		<g>
			<path class="st10" d="M444.5,438.6c-0.1-0.2-2.5-3.2-0.7-6.9l0.3-0.6c2.2-4.5,7.2-14.9,25.2-15.1h0.4c18,0.2,23.1,10.6,25.2,15.1
				l0.3,0.6c1.8,3.7-0.6,6.8-0.6,6.9l-8.8,12.7l-16.3,0l-16.3,0L444.5,438.6z"/>
			<path class="st11" d="M469.4,417l0.3,0c17.4,0.2,22.1,9.9,24.3,14.5l0.3,0.6c1.5,3.1-0.4,5.7-0.5,5.8l0,0.1l0,0.1l-8.5,12.2
				l-15.7,0l-15.7,0l-8.5-12.2l0-0.1l0-0.1c0,0-2.1-2.6-0.5-5.8l0.3-0.6c2.2-4.7,6.9-14.4,24.3-14.5L469.4,417 M469.7,415
				c-0.1,0-0.1,0-0.2,0s-0.1,0-0.2,0v0c-19.5,0.2-24.3,11.9-26.4,16.2c-2.1,4.3,0.8,7.9,0.8,7.9l9.1,13l16.8,0l16.8,0l9.1-13
				c0,0,2.9-3.6,0.8-7.9C494,427,489.2,415.2,469.7,415L469.7,415L469.7,415z"/>
		</g>
		<path class="st12" d="M411.6,360.9c-0.2,2.6-2.6,4.5-5.3,4.3l0,0c-2.7-0.3-4.6-2.6-4.4-5.2l1.9-20.7c0.2-2.6,2.6-4.5,5.3-4.3l0,0
			c2.7,0.3,4.6,2.6,4.4,5.2L411.6,360.9z"/>
		<path class="st12" d="M535.6,359.6c0.2,2.6-1.8,4.9-4.5,5.1l0,0c-2.7,0.2-5-1.8-5.2-4.4l-1.5-20.8c-0.2-2.6,1.8-4.9,4.5-5.1l0,0
			c2.7-0.2,5,1.8,5.2,4.4L535.6,359.6z"/>
		<path class="st13" d="M485.8,98"/>
		<polyline class="st11" points="466.5,449.8 462.3,433.6 475.2,449.9 		"/>
		<path class="st14" d="M493.9,495.8c0,2.4-2,4.4-4.4,4.4h-42.3c-2.4,0-4.4-2-4.4-4.4l0,0c0-2.4,2-4.4,4.4-4.4h42.3
			C491.9,491.4,493.9,493.4,493.9,495.8L493.9,495.8z"/>
		<rect x="419.8" y="510.7" class="st15" width="28.2" height="87"/>
		<path class="st16" d="M516,350.8c0,6.9-5.6,12.5-12.5,12.5h-68.7c-6.9,0-12.5-5.6-12.5-12.5v-4.4c0-6.9,5.6-12.5,12.5-12.5h68.7
			c6.9,0,12.5,5.6,12.5,12.5V350.8z"/>
		<path class="st17" d="M454.5,549.3c0,5.4-4.4,9.8-9.8,9.8h-22.3c-5.4,0-9.8-4.4-9.8-9.8l0,0c0-5.4,4.4-9.8,9.8-9.8h22.3
			C450.1,539.6,454.5,543.9,454.5,549.3L454.5,549.3z"/>
		<path class="st18" d="M434.1,587.8c12.4,0,22.4,8.2,22.4,20.6h-44.9C411.6,596,421.7,587.8,434.1,587.8z"/>
		<rect x="494.9" y="510.7" class="st15" width="28.2" height="87"/>
		<path class="st17" d="M529.5,549.3c0,5.4-4.4,9.8-9.8,9.8h-22.3c-5.4,0-9.8-4.4-9.8-9.8l0,0c0-5.4,4.4-9.8,9.8-9.8h22.3
			C525.2,539.6,529.5,543.9,529.5,549.3L529.5,549.3z"/>
		<path class="st18" d="M509.1,587.8c12.4,0,22.4,8.2,22.4,20.6h-44.9C486.7,596,496.7,587.8,509.1,587.8z"/>
		<g>
			<circle class="st19" cx="439.4" cy="349.1" r="10.7"/>
			<circle class="st20" cx="439.7" cy="349.2" r="8.1"/>
			<circle class="st21" cx="439.8" cy="349" r="3.2"/>
			<circle class="st22" cx="442.7" cy="348.4" r="2.1"/>
		</g>
		<g>
			<path class="st19" d="M478.1,349.1c0-11.1,9-20.1,20.1-20.1c11.1,0,20.1,9,20.1,20.1c0,11.1-9,20.1-20.1,20.1
				C487.1,369.2,478.1,360.2,478.1,349.1z"/>
			<path class="st20" d="M483.6,349.3c0-8.4,6.8-15.2,15.2-15.2c8.4,0,15.2,6.8,15.2,15.2s-6.8,15.2-15.2,15.2
				C490.4,364.5,483.6,357.7,483.6,349.3z"/>
			<circle class="st21" cx="499" cy="348.9" r="5.9"/>
			<path class="st22" d="M500.5,347.7c0-2.2,1.8-4,4-4c2.2,0,4,1.8,4,4s-1.8,4-4,4C502.3,351.7,500.5,349.9,500.5,347.7z"/>
		</g>
		<g>
			<rect x="434.6" y="380.7" class="st19" width="8.9" height="8.9"/>
			<rect x="449.3" y="380.7" class="st19" width="8.9" height="8.9"/>
			<rect x="463.9" y="380.7" class="st19" width="8.9" height="8.9"/>
			<rect x="478.5" y="380.7" class="st19" width="8.9" height="8.9"/>
			<rect x="493.2" y="380.7" class="st19" width="8.9" height="8.9"/>
		</g>
		<g>
			<path class="st4" d="M559.4,403.8c1.2-2.4,4.1-3.4,6.5-2.3l0,0c2.4,1.2,3.4,4.1,2.3,6.5l-12.4,25.8c-1.2,2.4-4.1,3.4-6.5,2.3l0,0
				c-2.4-1.2-3.4-4.1-2.3-6.5L559.4,403.8z"/>
			<path class="st4" d="M581.7,357.4c1.2-2.4,4.1-3.4,6.5-2.3l0,0c2.4,1.2,3.4,4.1,2.3,6.5L578,387.5c-1.2,2.4-4.1,3.4-6.5,2.3l0,0
				c-2.4-1.2-3.4-4.1-2.3-6.5L581.7,357.4z"/>
			<circle class="st5" cx="569" cy="396.5" r="6.8"/>
			<path class="st6" d="M598.4,358.3c0,0-6.5,14-15,9.9s-7.4-11.7-3.2-20.5c0,0,2.3-2.7,4.5-1.7s-3.1,5.8-2.3,8.1
				c0.8,2.3,4-0.3,6-4.4c2-4.1,6.4-1.1,9.7,0.5C601.6,351.7,600.8,353.5,598.4,358.3z"/>
			<path class="st7" d="M543.9,415.9c1.1-2.3,3.9-3.3,6.2-2.2l0,0c2.3,1.1,3.3,3.9,2.2,6.2l-5.5,11.5c-1.1,2.3-3.9,3.3-6.2,2.2l0,0
				c-2.3-1.1-3.3-3.9-2.2-6.2L543.9,415.9z"/>
		</g>
		<g>
			<g>
				<path class="st23" d="M444.9,390.8c-2,7.6-2.2,16.8,0.5,24.2c9.1-3.2,17.9-7,24.7-11.6C462.4,398.8,454.9,393.9,444.9,390.8z"/>
				<path class="st23" d="M494.1,415.8c2-7.6,2.2-16.8-0.5-24.2c-9.1,3.2-17.9,7-24.7,11.6C476.5,407.8,484.1,412.6,494.1,415.8z"/>
			</g>
			<path class="st24" d="M474.6,407c0,0.7-0.6,1.3-1.3,1.3h-7.6c-0.7,0-1.3-0.6-1.3-1.3v-7.6c0-0.7,0.6-1.3,1.3-1.3h7.6
				c0.7,0,1.3,0.6,1.3,1.3V407z"/>
		</g>
		<g>
			<rect x="445.9" y="458.1" class="st25" width="46.5" height="34.4"/>
			<line class="st26" x1="445.9" y1="481.1" x2="492.3" y2="481.1"/>
			<line class="st26" x1="445.9" y1="469.6" x2="492.3" y2="469.6"/>
			<line class="st26" x1="480.7" y1="458.1" x2="480.7" y2="492.5"/>
			<line class="st26" x1="469.1" y1="458.1" x2="469.1" y2="492.5"/>
			<line class="st26" x1="457.5" y1="458.1" x2="457.5" y2="492.5"/>
		</g>
		<rect x="514.8" y="412.6" class="st27" width="16.5" height="22.1"/>
		<g>
			<rect x="405.7" y="460.3" class="st27" width="33" height="30"/>
			<text transform="matrix(1 0 0 1 410.5346 487.1376)" class="st28 st29 st30">+</text>
		</g>
		<g>
			<path class="st19" d="M421.8,349.2c0-11.1,9-20.1,20.1-20.1s20.1,9,20.1,20.1c0,11.1-9,20.1-20.1,20.1
				C430.7,369.3,421.8,360.3,421.8,349.2z"/>
			<path class="st20" d="M427.2,349.5c0-8.4,6.8-15.2,15.2-15.2c8.4,0,15.2,6.8,15.2,15.2s-6.8,15.2-15.2,15.2
				C434,364.6,427.2,357.8,427.2,349.5z"/>
			<circle class="st21" cx="442.6" cy="349" r="5.9"/>
			<path class="st22" d="M444.1,347.9c0-2.2,1.8-4,4-4c2.2,0,4,1.8,4,4s-1.8,4-4,4C445.9,351.8,444.1,350.1,444.1,347.9z"/>
		</g>
		
			<rect x="531.8" y="328.8" transform="matrix(-0.9973 7.369857e-02 -7.369857e-02 -0.9973 1094.0094 658.1395)" class="st19" width="6.2" height="40.9"/>
		
			<rect x="399.8" y="329.1" transform="matrix(-0.9956 -9.330354e-02 9.330354e-02 -0.9956 771.3392 735.1645)" class="st19" width="6.2" height="40.9"/>
	</g>
</g>
</svg>
