<?xml version="1.0" encoding="utf-8"?>
<!-- Generator: Adobe Illustrator 19.0.0, SVG Export Plug-In . SVG Version: 6.00 Build 0)  -->
<svg version="1.1" id="Layer_1" xmlns="http://www.w3.org/2000/svg" xmlns:xlink="http://www.w3.org/1999/xlink" x="0px" y="0px"
	 viewBox="370 -275 1200 800" style="enable-background:new 370 -275 1200 800;" xml:space="preserve">
<style type="text/css">
	.st0{fill:#965EA6;stroke:#965EA6;stroke-width:2.3973;stroke-linejoin:round;stroke-miterlimit:1;}
	.st1{fill:#4C72B8;stroke:#4C72B8;stroke-width:14;stroke-linejoin:round;stroke-miterlimit:1;}
	.st2{fill:#4C75BA;stroke:#4C75BA;stroke-width:14;stroke-linejoin:round;stroke-miterlimit:1;}
	.st3{fill:#4F71B7;stroke:#4F71B7;stroke-width:14;stroke-linejoin:round;stroke-miterlimit:1;}
	.st4{fill:#5375B9;stroke:#5375B9;stroke-width:14;stroke-linejoin:round;stroke-miterlimit:1;}
	.st5{fill:#484C86;stroke:#484C86;stroke-width:14;stroke-linejoin:round;stroke-miterlimit:1;}
	.st6{fill:#49508D;stroke:#49508D;stroke-width:14;stroke-linejoin:round;stroke-miterlimit:1;}
	.st7{fill:#4E508E;stroke:#4E508E;stroke-width:14;stroke-linejoin:round;stroke-miterlimit:1;}
	.st8{fill:#4661AD;stroke:#4661AD;stroke-width:14;stroke-linejoin:round;stroke-miterlimit:1;}
	.st9{fill:#495FAB;stroke:#495FAB;stroke-width:14;stroke-linejoin:round;stroke-miterlimit:1;}
	.st10{fill:#455494;stroke:#455494;stroke-width:14;stroke-linejoin:round;stroke-miterlimit:1;}
	.st11{fill:#465CA5;stroke:#465CA5;stroke-width:14;stroke-linejoin:round;stroke-miterlimit:1;}
	.st12{fill:#4965AF;stroke:#4965AF;stroke-width:14;stroke-linejoin:round;stroke-miterlimit:1;}
	.st13{fill:#465290;stroke:#465290;stroke-width:14;stroke-linejoin:round;stroke-miterlimit:1;}
	.st14{fill:#4B67B0;stroke:#4B67B0;stroke-width:14;stroke-linejoin:round;stroke-miterlimit:1;}
	.st15{fill:#4B579B;stroke:#4B579B;stroke-width:14;stroke-linejoin:round;stroke-miterlimit:1;}
	.st16{fill:#4A5BA4;stroke:#4A5BA4;stroke-width:14;stroke-linejoin:round;stroke-miterlimit:1;}
	.st17{fill:#4759A1;stroke:#4759A1;stroke-width:14;stroke-linejoin:round;stroke-miterlimit:1;}
	.st18{fill:#4E67B0;stroke:#4E67B0;stroke-width:14;stroke-linejoin:round;stroke-miterlimit:1;}
	.st19{fill:#5479BC;stroke:#5479BC;stroke-width:14;stroke-linejoin:round;stroke-miterlimit:1;}
	.st20{fill:#52579C;stroke:#52579C;stroke-width:14;stroke-linejoin:round;stroke-miterlimit:1;}
	.st21{fill:#5066AF;stroke:#5066AF;stroke-width:14;stroke-linejoin:round;stroke-miterlimit:1;}
	.st22{fill:#505DA9;stroke:#505DA9;stroke-width:14;stroke-linejoin:round;stroke-miterlimit:1;}
	.st23{fill:#526DB4;stroke:#526DB4;stroke-width:14;stroke-linejoin:round;stroke-miterlimit:1;}
	.st24{fill:#5274B9;stroke:#5274B9;stroke-width:14;stroke-linejoin:round;stroke-miterlimit:1;}
	.st25{fill:#5163AD;stroke:#5163AD;stroke-width:14;stroke-linejoin:round;stroke-miterlimit:1;}
	.st26{fill:#515495;stroke:#515495;stroke-width:14;stroke-linejoin:round;stroke-miterlimit:1;}
	.st27{fill:#506AB2;stroke:#506AB2;stroke-width:14;stroke-linejoin:round;stroke-miterlimit:1;}
	.st28{fill:#505FAB;stroke:#505FAB;stroke-width:14;stroke-linejoin:round;stroke-miterlimit:1;}
	.st29{fill:#4E60AC;stroke:#4E60AC;stroke-width:14;stroke-linejoin:round;stroke-miterlimit:1;}
	.st30{fill:#5172B7;stroke:#5172B7;stroke-width:14;stroke-linejoin:round;stroke-miterlimit:1;}
	.st31{fill:#5363AD;stroke:#5363AD;stroke-width:14;stroke-linejoin:round;stroke-miterlimit:1;}
	.st32{fill:#5169B1;stroke:#5169B1;stroke-width:14;stroke-linejoin:round;stroke-miterlimit:1;}
	.st33{fill:#536EB5;stroke:#536EB5;stroke-width:14;stroke-linejoin:round;stroke-miterlimit:1;}
	.st34{fill:#5160AC;stroke:#5160AC;stroke-width:14;stroke-linejoin:round;stroke-miterlimit:1;}
	.st35{fill:#595596;stroke:#595596;stroke-width:14;stroke-linejoin:round;stroke-miterlimit:1;}
	.st36{fill:#5B5192;stroke:#5B5192;stroke-width:14;stroke-linejoin:round;stroke-miterlimit:1;}
	.st37{fill:#534F8D;stroke:#534F8D;stroke-width:14;stroke-linejoin:round;stroke-miterlimit:1;}
	.st38{fill:#555BA4;stroke:#555BA4;stroke-width:14;stroke-linejoin:round;stroke-miterlimit:1;}
	.st39{fill:#57599F;stroke:#57599F;stroke-width:14;stroke-linejoin:round;stroke-miterlimit:1;}
	.st40{fill:#566BB2;stroke:#566BB2;stroke-width:14;stroke-linejoin:round;stroke-miterlimit:1;}
	.st41{fill:#5566AF;stroke:#5566AF;stroke-width:14;stroke-linejoin:round;stroke-miterlimit:1;}
	.st42{fill:#5760AB;stroke:#5760AB;stroke-width:14;stroke-linejoin:round;stroke-miterlimit:1;}
	.st43{fill:#5A5CA7;stroke:#5A5CA7;stroke-width:14;stroke-linejoin:round;stroke-miterlimit:1;}
	.st44{fill:#5564AE;stroke:#5564AE;stroke-width:14;stroke-linejoin:round;stroke-miterlimit:1;}
	.st45{fill:#5766AF;stroke:#5766AF;stroke-width:14;stroke-linejoin:round;stroke-miterlimit:1;}
	.st46{fill:#5867AF;stroke:#5867AF;stroke-width:14;stroke-linejoin:round;stroke-miterlimit:1;}
	.st47{fill:#5961AC;stroke:#5961AC;stroke-width:14;stroke-linejoin:round;stroke-miterlimit:1;}
	.st48{fill:#546FB5;stroke:#546FB5;stroke-width:14;stroke-linejoin:round;stroke-miterlimit:1;}
	.st49{fill:#5863AD;stroke:#5863AD;stroke-width:14;stroke-linejoin:round;stroke-miterlimit:1;}
	.st50{fill:#5E579C;stroke:#5E579C;stroke-width:14;stroke-linejoin:round;stroke-miterlimit:1;}
	.st51{fill:#4F6BB3;stroke:#4F6BB3;stroke-width:14;stroke-linejoin:round;stroke-miterlimit:1;}
	.st52{fill:#5C65AE;stroke:#5C65AE;stroke-width:14;stroke-linejoin:round;stroke-miterlimit:1;}
	.st53{fill:#625294;stroke:#625294;stroke-width:14;stroke-linejoin:round;stroke-miterlimit:1;}
	.st54{fill:#5869B1;stroke:#5869B1;stroke-width:14;stroke-linejoin:round;stroke-miterlimit:1;}
	.st55{fill:#556DB4;stroke:#556DB4;stroke-width:14;stroke-linejoin:round;stroke-miterlimit:1;}
	.st56{fill:#576BB2;stroke:#576BB2;stroke-width:14;stroke-linejoin:round;stroke-miterlimit:1;}
	.st57{fill:#5A63AD;stroke:#5A63AD;stroke-width:14;stroke-linejoin:round;stroke-miterlimit:1;}
	.st58{fill:#655BA7;stroke:#655BA7;stroke-width:14;stroke-linejoin:round;stroke-miterlimit:1;}
	.st59{fill:#6759A0;stroke:#6759A0;stroke-width:14;stroke-linejoin:round;stroke-miterlimit:1;}
	.st60{fill:#5B63AD;stroke:#5B63AD;stroke-width:14;stroke-linejoin:round;stroke-miterlimit:1;}
	.st61{fill:#5D61AC;stroke:#5D61AC;stroke-width:14;stroke-linejoin:round;stroke-miterlimit:1;}
	.st62{fill:#556CB3;stroke:#556CB3;stroke-width:14;stroke-linejoin:round;stroke-miterlimit:1;}
	.st63{fill:#665396;stroke:#665396;stroke-width:14;stroke-linejoin:round;stroke-miterlimit:1;}
	.st64{fill:#5069B2;stroke:#5069B2;stroke-width:14;stroke-linejoin:round;stroke-miterlimit:1;}
	.st65{fill:#6760AA;stroke:#6760AA;stroke-width:14;stroke-linejoin:round;stroke-miterlimit:1;}
	.st66{fill:#6263AD;stroke:#6263AD;stroke-width:14;stroke-linejoin:round;stroke-miterlimit:1;}
	.st67{fill:#6B61AB;stroke:#6B61AB;stroke-width:14;stroke-linejoin:round;stroke-miterlimit:1;}
	.st68{fill:#536CB3;stroke:#536CB3;stroke-width:14;stroke-linejoin:round;stroke-miterlimit:1;}
	.st69{fill:#6F5EA9;stroke:#6F5EA9;stroke-width:14;stroke-linejoin:round;stroke-miterlimit:1;}
	.st70{fill:#6D589D;stroke:#6D589D;stroke-width:14;stroke-linejoin:round;stroke-miterlimit:1;}
	.st71{fill:#5968B0;stroke:#5968B0;stroke-width:14;stroke-linejoin:round;stroke-miterlimit:1;}
	.st72{fill:#675597;stroke:#675597;stroke-width:14;stroke-linejoin:round;stroke-miterlimit:1;}
	.st73{fill:#5369B2;stroke:#5369B2;stroke-width:14;stroke-linejoin:round;stroke-miterlimit:1;}
	.st74{fill:#5F5190;stroke:#5F5190;stroke-width:14;stroke-linejoin:round;stroke-miterlimit:1;}
	.st75{fill:#615190;stroke:#615190;stroke-width:14;stroke-linejoin:round;stroke-miterlimit:1;}
	.st76{fill:#6065AE;stroke:#6065AE;stroke-width:14;stroke-linejoin:round;stroke-miterlimit:1;}
	.st77{fill:#6662AC;stroke:#6662AC;stroke-width:14;stroke-linejoin:round;stroke-miterlimit:1;}
	.st78{fill:#5866AF;stroke:#5866AF;stroke-width:14;stroke-linejoin:round;stroke-miterlimit:1;}
	.st79{fill:#5665AE;stroke:#5665AE;stroke-width:14;stroke-linejoin:round;stroke-miterlimit:1;}
	.st80{fill:#5B66AF;stroke:#5B66AF;stroke-width:14;stroke-linejoin:round;stroke-miterlimit:1;}
	.st81{fill:#5E65AE;stroke:#5E65AE;stroke-width:14;stroke-linejoin:round;stroke-miterlimit:1;}
	.st82{fill:#795AA1;stroke:#795AA1;stroke-width:14;stroke-linejoin:round;stroke-miterlimit:1;}
	.st83{fill:#79569B;stroke:#79569B;stroke-width:14;stroke-linejoin:round;stroke-miterlimit:1;}
	.st84{fill:#7F59A0;stroke:#7F59A0;stroke-width:14;stroke-linejoin:round;stroke-miterlimit:1;}
	.st85{fill:#6362AC;stroke:#6362AC;stroke-width:14;stroke-linejoin:round;stroke-miterlimit:1;}
	.st86{fill:#5D62AC;stroke:#5D62AC;stroke-width:14;stroke-linejoin:round;stroke-miterlimit:1;}
	.st87{fill:#675394;stroke:#675394;stroke-width:14;stroke-linejoin:round;stroke-miterlimit:1;}
	.st88{fill:#665192;stroke:#665192;stroke-width:14;stroke-linejoin:round;stroke-miterlimit:1;}
	.st89{fill:#5560AB;stroke:#5560AB;stroke-width:14;stroke-linejoin:round;stroke-miterlimit:1;}
	.st90{fill:#6F5598;stroke:#6F5598;stroke-width:14;stroke-linejoin:round;stroke-miterlimit:1;}
	.st91{fill:#6F5498;stroke:#6F5498;stroke-width:14;stroke-linejoin:round;stroke-miterlimit:1;}
	.st92{fill:#685191;stroke:#685191;stroke-width:14;stroke-linejoin:round;stroke-miterlimit:1;}
	.st93{fill:#815EA8;stroke:#815EA8;stroke-width:14;stroke-linejoin:round;stroke-miterlimit:1;}
	.st94{fill:#705394;stroke:#705394;stroke-width:14;stroke-linejoin:round;stroke-miterlimit:1;}
	.st95{fill:#875DA7;stroke:#875DA7;stroke-width:14;stroke-linejoin:round;stroke-miterlimit:1;}
	.st96{fill:#6A5FAA;stroke:#6A5FAA;stroke-width:14;stroke-linejoin:round;stroke-miterlimit:1;}
	.st97{fill:#7560AA;stroke:#7560AA;stroke-width:14;stroke-linejoin:round;stroke-miterlimit:1;}
	.st98{fill:#765395;stroke:#765395;stroke-width:14;stroke-linejoin:round;stroke-miterlimit:1;}
	.st99{fill:#7160AA;stroke:#7160AA;stroke-width:14;stroke-linejoin:round;stroke-miterlimit:1;}
	.st100{fill:#825FA9;stroke:#825FA9;stroke-width:14;stroke-linejoin:round;stroke-miterlimit:1;}
	.st101{fill:#5A5EAA;stroke:#5A5EAA;stroke-width:14;stroke-linejoin:round;stroke-miterlimit:1;}
	.st102{fill:#8F5FA7;stroke:#8F5FA7;stroke-width:14;stroke-linejoin:round;stroke-miterlimit:1;}
	.st103{fill:#745FA9;stroke:#745FA9;stroke-width:14;stroke-linejoin:round;stroke-miterlimit:1;}
	.st104{fill:#945CA6;stroke:#945CA6;stroke-width:14;stroke-linejoin:round;stroke-miterlimit:1;}
	.st105{fill:#6F5FA9;stroke:#6F5FA9;stroke-width:14;stroke-linejoin:round;stroke-miterlimit:1;}
	.st106{fill:#83559A;stroke:#83559A;stroke-width:14;stroke-linejoin:round;stroke-miterlimit:1;}
	.st107{fill:#605EAA;stroke:#605EAA;stroke-width:14;stroke-linejoin:round;stroke-miterlimit:1;}
	.st108{fill:#825EA8;stroke:#825EA8;stroke-width:14;stroke-linejoin:round;stroke-miterlimit:1;}
	.st109{fill:#88579E;stroke:#88579E;stroke-width:14;stroke-linejoin:round;stroke-miterlimit:1;}
	.st110{fill:#645EAA;stroke:#645EAA;stroke-width:14;stroke-linejoin:round;stroke-miterlimit:1;}
	.st111{fill:#A060A7;stroke:#A060A7;stroke-width:14;stroke-linejoin:round;stroke-miterlimit:1;}
	.st112{fill:#695CA8;stroke:#695CA8;stroke-width:14;stroke-linejoin:round;stroke-miterlimit:1;}
	.st113{fill:#965EA6;stroke:#965EA6;stroke-width:14;stroke-linejoin:round;stroke-miterlimit:1;}
	.st114{fill:#595BA4;stroke:#595BA4;stroke-width:14;stroke-linejoin:round;stroke-miterlimit:1;}
	.st115{fill:#665AA4;stroke:#665AA4;stroke-width:14;stroke-linejoin:round;stroke-miterlimit:1;}
	.st116{fill:#9F5DA5;stroke:#9F5DA5;stroke-width:14;stroke-linejoin:round;stroke-miterlimit:1;}
	.st117{fill:#725DA8;stroke:#725DA8;stroke-width:14;stroke-linejoin:round;stroke-miterlimit:1;}
	.st118{fill:#985AA2;stroke:#985AA2;stroke-width:14;stroke-linejoin:round;stroke-miterlimit:1;}
	.st119{fill:#5D59A1;stroke:#5D59A1;stroke-width:14;stroke-linejoin:round;stroke-miterlimit:1;}
	.st120{fill:#7F5DA7;stroke:#7F5DA7;stroke-width:14;stroke-linejoin:round;stroke-miterlimit:1;}
	.st121{fill:#AB61A7;stroke:#AB61A7;stroke-width:14;stroke-linejoin:round;stroke-miterlimit:1;}
	.st122{fill:#805396;stroke:#805396;stroke-width:14;stroke-linejoin:round;stroke-miterlimit:1;}
	.st123{fill:#855DA7;stroke:#855DA7;stroke-width:14;stroke-linejoin:round;stroke-miterlimit:1;}
	.st124{fill:#B060A6;stroke:#B060A6;stroke-width:14;stroke-linejoin:round;stroke-miterlimit:1;}
	.st125{fill:#AC62A7;stroke:#AC62A7;stroke-width:14;stroke-linejoin:round;stroke-miterlimit:1;}
	.st126{fill:#B362A7;stroke:#B362A7;stroke-width:14;stroke-linejoin:round;stroke-miterlimit:1;}
	.st127{fill:#905CA6;stroke:#905CA6;stroke-width:14;stroke-linejoin:round;stroke-miterlimit:1;}
	.st128{fill:#875398;stroke:#875398;stroke-width:14;stroke-linejoin:round;stroke-miterlimit:1;}
	.st129{fill:#98579E;stroke:#98579E;stroke-width:14;stroke-linejoin:round;stroke-miterlimit:1;}
	.st130{fill:#A25BA4;stroke:#A25BA4;stroke-width:14;stroke-linejoin:round;stroke-miterlimit:1;}
	.st131{fill:#6F59A2;stroke:#6F59A2;stroke-width:14;stroke-linejoin:round;stroke-miterlimit:1;}
	.st132{fill:#A860A7;stroke:#A860A7;stroke-width:14;stroke-linejoin:round;stroke-miterlimit:1;}
	.st133{fill:#5A569B;stroke:#5A569B;stroke-width:14;stroke-linejoin:round;stroke-miterlimit:1;}
	.st134{fill:#B463A7;stroke:#B463A7;stroke-width:14;stroke-linejoin:round;stroke-miterlimit:1;}
	.st135{fill:#7859A1;stroke:#7859A1;stroke-width:14;stroke-linejoin:round;stroke-miterlimit:1;}
	.st136{fill:#6F579F;stroke:#6F579F;stroke-width:14;stroke-linejoin:round;stroke-miterlimit:1;}
	.st137{fill:#9E5EA6;stroke:#9E5EA6;stroke-width:14;stroke-linejoin:round;stroke-miterlimit:1;}
	.st138{fill:#5F5497;stroke:#5F5497;stroke-width:14;stroke-linejoin:round;stroke-miterlimit:1;}
	.st139{fill:#69559B;stroke:#69559B;stroke-width:14;stroke-linejoin:round;stroke-miterlimit:1;}
	.st140{fill:#585191;stroke:#585191;stroke-width:14;stroke-linejoin:round;stroke-miterlimit:1;}
	.st141{fill:#B15EA5;stroke:#B15EA5;stroke-width:14;stroke-linejoin:round;stroke-miterlimit:1;}
	.st142{fill:#BD63A7;stroke:#BD63A7;stroke-width:14;stroke-linejoin:round;stroke-miterlimit:1;}
	.st143{fill:#BA63A7;stroke:#BA63A7;stroke-width:14;stroke-linejoin:round;stroke-miterlimit:1;}
	.st144{fill:#BD62A6;stroke:#BD62A6;stroke-width:14;stroke-linejoin:round;stroke-miterlimit:1;}
	.st145{fill:#B660A5;stroke:#B660A5;stroke-width:14;stroke-linejoin:round;stroke-miterlimit:1;}
	.st146{fill:#7A589F;stroke:#7A589F;stroke-width:14;stroke-linejoin:round;stroke-miterlimit:1;}
	.st147{fill:#96559C;stroke:#96559C;stroke-width:14;stroke-linejoin:round;stroke-miterlimit:1;}
	.st148{fill:#A559A3;stroke:#A559A3;stroke-width:14;stroke-linejoin:round;stroke-miterlimit:1;}
	.st149{fill:#BB61A6;stroke:#BB61A6;stroke-width:14;stroke-linejoin:round;stroke-miterlimit:1;}
	.st150{fill:#B55EA5;stroke:#B55EA5;stroke-width:14;stroke-linejoin:round;stroke-miterlimit:1;}
	.st151{fill:#AA5FA6;stroke:#AA5FA6;stroke-width:14;stroke-linejoin:round;stroke-miterlimit:1;}
	.st152{fill:#AF60A6;stroke:#AF60A6;stroke-width:14;stroke-linejoin:round;stroke-miterlimit:1;}
	.st153{fill:#B35FA5;stroke:#B35FA5;stroke-width:14;stroke-linejoin:round;stroke-miterlimit:1;}
	.st154{fill:#9F5CA5;stroke:#9F5CA5;stroke-width:14;stroke-linejoin:round;stroke-miterlimit:1;}
	.st155{fill:#75579E;stroke:#75579E;stroke-width:14;stroke-linejoin:round;stroke-miterlimit:1;}
	.st156{fill:#6F5599;stroke:#6F5599;stroke-width:14;stroke-linejoin:round;stroke-miterlimit:1;}
	.st157{fill:#8558A0;stroke:#8558A0;stroke-width:14;stroke-linejoin:round;stroke-miterlimit:1;}
	.st158{fill:#7C569D;stroke:#7C569D;stroke-width:14;stroke-linejoin:round;stroke-miterlimit:1;}
	.st159{fill:#A558A2;stroke:#A558A2;stroke-width:14;stroke-linejoin:round;stroke-miterlimit:1;}
	.st160{fill:#6A5295;stroke:#6A5295;stroke-width:14;stroke-linejoin:round;stroke-miterlimit:1;}
	.st161{fill:#6E5397;stroke:#6E5397;stroke-width:14;stroke-linejoin:round;stroke-miterlimit:1;}
	.st162{fill:#755399;stroke:#755399;stroke-width:14;stroke-linejoin:round;stroke-miterlimit:1;}
	.st163{fill:#8D59A0;stroke:#8D59A0;stroke-width:14;stroke-linejoin:round;stroke-miterlimit:1;}
	.st164{fill:#98559D;stroke:#98559D;stroke-width:14;stroke-linejoin:round;stroke-miterlimit:1;}
	.st165{fill:#AF5DA5;stroke:#AF5DA5;stroke-width:14;stroke-linejoin:round;stroke-miterlimit:1;}
	.st166{fill:#B75EA5;stroke:#B75EA5;stroke-width:14;stroke-linejoin:round;stroke-miterlimit:1;}
	.st167{fill:#584E8E;stroke:#584E8E;stroke-width:14;stroke-linejoin:round;stroke-miterlimit:1;}
	.st168{fill:#B25CA4;stroke:#B25CA4;stroke-width:14;stroke-linejoin:round;stroke-miterlimit:1;}
	.st169{fill:#B35DA4;stroke:#B35DA4;stroke-width:14;stroke-linejoin:round;stroke-miterlimit:1;}
	.st170{fill:#A55AA4;stroke:#A55AA4;stroke-width:14;stroke-linejoin:round;stroke-miterlimit:1;}
	.st171{fill:#584C8B;stroke:#584C8B;stroke-width:14;stroke-linejoin:round;stroke-miterlimit:1;}
	.st172{fill:#87549C;stroke:#87549C;stroke-width:14;stroke-linejoin:round;stroke-miterlimit:1;}
	.st173{fill:#A95AA3;stroke:#A95AA3;stroke-width:14;stroke-linejoin:round;stroke-miterlimit:1;}
	.st174{fill:#A057A2;stroke:#A057A2;stroke-width:14;stroke-linejoin:round;stroke-miterlimit:1;}
	.st175{fill:#5F4E8E;stroke:#5F4E8E;stroke-width:14;stroke-linejoin:round;stroke-miterlimit:1;}
	.st176{fill:#97569F;stroke:#97569F;stroke-width:14;stroke-linejoin:round;stroke-miterlimit:1;}
	.st177{fill:#8C549C;stroke:#8C549C;stroke-width:14;stroke-linejoin:round;stroke-miterlimit:1;}
	.st178{fill:#99559E;stroke:#99559E;stroke-width:14;stroke-linejoin:round;stroke-miterlimit:1;}
	.st179{fill:#685092;stroke:#685092;stroke-width:14;stroke-linejoin:round;stroke-miterlimit:1;}
	.st180{fill:#8A5198;stroke:#8A5198;stroke-width:14;stroke-linejoin:round;stroke-miterlimit:1;}
	.st181{fill:#A358A2;stroke:#A358A2;stroke-width:14;stroke-linejoin:round;stroke-miterlimit:1;}
	.st182{fill:#885097;stroke:#885097;stroke-width:14;stroke-linejoin:round;stroke-miterlimit:1;}
	.st183{fill:#90539B;stroke:#90539B;stroke-width:14;stroke-linejoin:round;stroke-miterlimit:1;}
	.st184{fill:#785196;stroke:#785196;stroke-width:14;stroke-linejoin:round;stroke-miterlimit:1;}
	.st185{fill:#604E8E;stroke:#604E8E;stroke-width:14;stroke-linejoin:round;stroke-miterlimit:1;}
	.st186{fill:#9C569F;stroke:#9C569F;stroke-width:14;stroke-linejoin:round;stroke-miterlimit:1;}
	.st187{fill:#7D4D93;stroke:#7D4D93;stroke-width:14;stroke-linejoin:round;stroke-miterlimit:1;}
	.st188{fill:#715094;stroke:#715094;stroke-width:14;stroke-linejoin:round;stroke-miterlimit:1;}
	.st189{fill:#754B90;stroke:#754B90;stroke-width:14;stroke-linejoin:round;stroke-miterlimit:1;}
	.st190{fill:#5D4B8A;stroke:#5D4B8A;stroke-width:14;stroke-linejoin:round;stroke-miterlimit:1;}
	.st191{fill:#93549D;stroke:#93549D;stroke-width:14;stroke-linejoin:round;stroke-miterlimit:1;}
	.st192{fill:#835198;stroke:#835198;stroke-width:14;stroke-linejoin:round;stroke-miterlimit:1;}
	.st193{fill:#794C92;stroke:#794C92;stroke-width:14;stroke-linejoin:round;stroke-miterlimit:1;}
	.st194{fill:#875199;stroke:#875199;stroke-width:14;stroke-linejoin:round;stroke-miterlimit:1;}
	.st195{fill:#865097;stroke:#865097;stroke-width:14;stroke-linejoin:round;stroke-miterlimit:1;}
	.st196{fill:#604B8A;stroke:#604B8A;stroke-width:14;stroke-linejoin:round;stroke-miterlimit:1;}
	.st197{fill:#6C4F92;stroke:#6C4F92;stroke-width:14;stroke-linejoin:round;stroke-miterlimit:1;}
	.st198{fill:#734A90;stroke:#734A90;stroke-width:14;stroke-linejoin:round;stroke-miterlimit:1;}
	.st199{fill:#724F92;stroke:#724F92;stroke-width:14;stroke-linejoin:round;stroke-miterlimit:1;}
	.st200{fill:#8A5199;stroke:#8A5199;stroke-width:14;stroke-linejoin:round;stroke-miterlimit:1;}
	.st201{fill:#885098;stroke:#885098;stroke-width:14;stroke-linejoin:round;stroke-miterlimit:1;}
	.st202{fill:#674D8E;stroke:#674D8E;stroke-width:14;stroke-linejoin:round;stroke-miterlimit:1;}
	.st203{fill:#864F97;stroke:#864F97;stroke-width:14;stroke-linejoin:round;stroke-miterlimit:1;}
	.st204{fill:#654B8C;stroke:#654B8C;stroke-width:14;stroke-linejoin:round;stroke-miterlimit:1;}
	.st205{fill:#714D91;stroke:#714D91;stroke-width:14;stroke-linejoin:round;stroke-miterlimit:1;}
	.st206{fill:#784F94;stroke:#784F94;stroke-width:14;stroke-linejoin:round;stroke-miterlimit:1;}
	.st207{fill:#6A4C8E;stroke:#6A4C8E;stroke-width:14;stroke-linejoin:round;stroke-miterlimit:1;}
	.st208{fill:#7D4D94;stroke:#7D4D94;stroke-width:14;stroke-linejoin:round;stroke-miterlimit:1;}
	.st209{fill:#774B92;stroke:#774B92;stroke-width:14;stroke-linejoin:round;stroke-miterlimit:1;}
	.st210{fill:#554885;stroke:#554885;stroke-width:14;stroke-linejoin:round;stroke-miterlimit:1;}
	.st211{fill:#815097;stroke:#815097;stroke-width:14;stroke-linejoin:round;stroke-miterlimit:1;}
	.st212{opacity:0.76;fill:#FFFFFF;enable-background:new    ;}
	.st213{font-family:'BodoniSvtyTwoSCITCTT-Book';}
	.st214{font-size:30px;}
	.st215{fill:#EE2424;}
	.st216{font-family:'Arial-Black';}
	.st217{font-size:60px;}
	.st218{fill:#E88F24;}
	.st219{font-family:'StencilStd';}
	.st220{font-size:72px;}
	.st221{opacity:0.91;fill:#2C1E0F;enable-background:new    ;}
	.st222{font-family:'CooperBlackStd';}
	.st223{font-size:24px;}
</style>
<polygon class="st0" points="867.2,20.5 961.4,25.4 894.2,-36.8 "/>
<g id="Layer_3">
	<polygon class="st1" points="1842.6,489.6 1648.4,233.1 1535.8,626.2 	"/>
	<polygon class="st2" points="1842.6,489.6 1535.8,626.2 1696.4,662.2 	"/>
	<polygon class="st3" points="1648.4,233.1 1495,266.7 1535.8,626.2 	"/>
	<polygon class="st4" points="1535.8,626.2 1495,266.7 1396.7,429.7 	"/>
	<polygon class="st5" points="1667.6,-191.2 1511.8,-524.5 1420.7,-385.4 	"/>
	<polygon class="st6" points="1667.6,-191.2 1420.7,-385.4 1516.6,-172.1 	"/>
	<polygon class="st7" points="1516.6,-172.1 1420.7,-385.4 1425.5,-239.2 	"/>
	<polygon class="st8" points="1689.2,67.7 1497.4,120.4 1667.6,211.5 	"/>
	<polygon class="st9" points="1689.2,67.7 1497.4,94 1497.4,120.4 	"/>
	<polygon class="st10" points="1679.6,-160.1 1516.6,-172.1 1653.2,-37.8 	"/>
	<polygon class="st11" points="1689.2,67.7 1653.2,14.9 1497.4,94 	"/>
	<polygon class="st12" points="1667.6,211.5 1497.4,120.4 1648.4,233.1 	"/>
	<polygon class="st13" points="1679.6,-160.1 1667.6,-191.2 1516.6,-172.1 	"/>
	<polygon class="st14" points="1648.4,233.1 1497.4,120.4 1495,266.7 	"/>
	<polygon class="st15" points="1653.2,-37.8 1516.6,-172.1 1423.1,-4.2 	"/>
	<polygon class="st16" points="1653.2,-37.8 1423.1,-4.2 1497.4,94 	"/>
	<polygon class="st17" points="1653.2,14.9 1653.2,-37.8 1497.4,94 	"/>
	<polygon class="st18" points="1497.4,120.4 1478.2,254.7 1495,266.7 	"/>
	<polygon class="st19" points="1535.8,626.2 1396.7,429.7 1490.2,650.2 	"/>
	<polygon class="st20" points="1516.6,-172.1 1356,-78.6 1423.1,-4.2 	"/>
	<polygon class="st21" points="1497.4,120.4 1403.9,194.7 1478.2,254.7 	"/>
	<polygon class="st22" points="1497.4,94 1423.1,-4.2 1415.9,48.5 	"/>
	<polygon class="st23" points="1495,266.7 1411.1,257.1 1396.7,429.7 	"/>
	<polygon class="st24" points="1490.2,650.2 1396.7,429.7 1267.3,508.8 	"/>
	<polygon class="st25" points="1497.4,120.4 1463.8,110.8 1403.9,194.7 	"/>
	<polygon class="st26" points="1516.6,-172.1 1425.5,-239.2 1356,-78.6 	"/>
	<polygon class="st27" points="1495,266.7 1478.2,254.7 1411.1,257.1 	"/>
	<polygon class="st28" points="1497.4,94 1415.9,48.5 1463.8,110.8 	"/>
	<polygon class="st29" points="1497.4,94 1463.8,110.8 1497.4,120.4 	"/>
	<polygon class="st30" points="1490.2,650.2 1267.3,508.8 1248.1,691 	"/>
	<polygon class="st31" points="1463.8,110.8 1394.3,139.6 1403.9,194.7 	"/>
	<polygon class="st32" points="1478.2,254.7 1403.9,194.7 1411.1,257.1 	"/>
	<polygon class="st33" points="1411.1,257.1 1329.6,398.5 1396.7,429.7 	"/>
	<polygon class="st34" points="1463.8,110.8 1415.9,48.5 1394.3,139.6 	"/>
	<polygon class="st35" points="1425.5,-239.2 1195.3,-172.1 1356,-78.6 	"/>
	<polygon class="st36" points="1425.5,-239.2 1228.9,-306.3 1195.3,-172.1 	"/>
	<polygon class="st37" points="1425.5,-239.2 1420.7,-385.4 1228.9,-306.3 	"/>
	<polygon class="st38" points="1423.1,-4.2 1310.4,-54.6 1415.9,48.5 	"/>
	<polygon class="st39" points="1423.1,-4.2 1356,-78.6 1310.4,-54.6 	"/>
	<polygon class="st40" points="1411.1,257.1 1224.1,302.6 1329.6,398.5 	"/>
	<polygon class="st41" points="1411.1,257.1 1403.9,194.7 1329.6,182.7 	"/>
	<polygon class="st42" points="1415.9,48.5 1255.3,82.1 1394.3,139.6 	"/>
	<polygon class="st43" points="1415.9,48.5 1310.4,-54.6 1255.3,82.1 	"/>
	<polygon class="st44" points="1403.9,194.7 1394.3,139.6 1329.6,182.7 	"/>
	<polygon class="st45" points="1411.1,257.1 1329.6,182.7 1308,182.7 	"/>
	<polygon class="st46" points="1411.1,257.1 1308,182.7 1224.1,302.6 	"/>
	<polygon class="st47" points="1394.3,139.6 1255.3,82.1 1293.6,163.6 	"/>
	<polygon class="st48" points="1396.7,429.7 1329.6,398.5 1267.3,508.8 	"/>
	<polygon class="st49" points="1394.3,139.6 1293.6,163.6 1329.6,182.7 	"/>
	<polygon class="st23" points="1267.3,508.8 1228.9,530.4 1248.1,691 	"/>
	<polygon class="st50" points="1356,-78.6 1195.3,-172.1 1310.4,-54.6 	"/>
	<polygon class="st51" points="1248.1,691 1228.9,530.4 1238.5,686.2 	"/>
	<polygon class="st52" points="1308,182.7 1267.3,182.7 1224.1,302.6 	"/>
	<polygon class="st53" points="1228.9,-306.3 1185.7,-272.7 1195.3,-172.1 	"/>
	<polygon class="st54" points="1329.6,398.5 1224.1,302.6 1200.1,393.7 	"/>
	<polygon class="st55" points="1329.6,398.5 1202.5,451.2 1267.3,508.8 	"/>
	<polygon class="st56" points="1329.6,398.5 1200.1,393.7 1202.5,451.2 	"/>
	<polygon class="st57" points="1329.6,182.7 1293.6,163.6 1308,182.7 	"/>
	<polygon class="st58" points="1310.4,-54.6 1101.8,7.7 1255.3,82.1 	"/>
	<polygon class="st59" points="1310.4,-54.6 1195.3,-172.1 1101.8,7.7 	"/>
	<polygon class="st60" points="1308,182.7 1293.6,163.6 1267.3,182.7 	"/>
	<polygon class="st61" points="1293.6,163.6 1255.3,82.1 1267.3,182.7 	"/>
	<polygon class="st62" points="1267.3,508.8 1202.5,451.2 1214.5,504 	"/>
	<polygon class="st63" points="1195.3,-172.1 1185.7,-272.7 1161.8,-234.4 	"/>
	<polygon class="st64" points="1238.5,686.2 1228.9,530.4 1118.6,643 	"/>
	<polygon class="st65" points="1267.3,182.7 1255.3,82.1 1044.3,163.6 	"/>
	<polygon class="st66" points="1267.3,182.7 1058.7,252.3 1224.1,302.6 	"/>
	<polygon class="st67" points="1267.3,182.7 1044.3,163.6 1058.7,252.3 	"/>
	<polygon class="st68" points="1267.3,508.8 1214.5,504 1228.9,530.4 	"/>
	<polygon class="st69" points="1255.3,82.1 1101.8,7.7 1044.3,163.6 	"/>
	<polygon class="st70" points="1195.3,-172.1 1173.8,-179.3 1101.8,7.7 	"/>
	<polygon class="st71" points="1202.5,451.2 1200.1,393.7 1185.7,420.1 	"/>
	<polygon class="st72" points="1195.3,-172.1 1161.8,-234.4 1173.8,-179.3 	"/>
	<polygon class="st73" points="1228.9,530.4 1214.5,504 1118.6,643 	"/>
	<polygon class="st74" points="1228.9,-306.3 1228.9,-323.1 1185.7,-272.7 	"/>
	<polygon class="st75" points="1228.9,-323.1 1137.8,-339.9 1185.7,-272.7 	"/>
	<polygon class="st76" points="1224.1,302.6 1058.7,252.3 1200.1,393.7 	"/>
	<polygon class="st77" points="1200.1,393.7 1058.7,252.3 1022.7,305 	"/>
	<polygon class="st78" points="1214.5,504 1202.5,451.2 1001.2,477.6 	"/>
	<polygon class="st79" points="1214.5,504 1001.2,477.6 1118.6,643 	"/>
	<polygon class="st80" points="1202.5,451.2 1185.7,420.1 1001.2,477.6 	"/>
	<polygon class="st81" points="1200.1,393.7 1022.7,305 1185.7,420.1 	"/>
	<polygon class="st82" points="1173.8,-179.3 986.8,-28.2 1101.8,7.7 	"/>
	<polygon class="st83" points="1173.8,-179.3 1001.2,-224.8 960.4,-174.5 	"/>
	<polygon class="st84" points="1173.8,-179.3 960.4,-174.5 986.8,-28.2 	"/>
	<polygon class="st85" points="1185.7,420.1 1022.7,305 998.8,420.1 	"/>
	<polygon class="st86" points="1185.7,420.1 998.8,420.1 1001.2,477.6 	"/>
	<polygon class="st87" points="1185.7,-272.7 1106.6,-275.1 1161.8,-234.4 	"/>
	<polygon class="st88" points="1185.7,-272.7 1137.8,-339.9 1106.6,-275.1 	"/>
	<polygon class="st89" points="1118.6,643 1001.2,477.6 982,590.3 	"/>
	<polygon class="st90" points="1173.8,-179.3 1161.8,-234.4 1001.2,-224.8 	"/>
	<polygon class="st91" points="1161.8,-234.4 1106.6,-275.1 1001.2,-224.8 	"/>
	<polygon class="st92" points="1137.8,-339.9 1080.3,-335.1 1106.6,-275.1 	"/>
	<polygon class="st93" points="1101.8,7.7 955.6,26.9 1044.3,163.6 	"/>
	<polygon class="st94" points="1106.6,-275.1 1080.3,-335.1 1001.2,-224.8 	"/>
	<polygon class="st95" points="1101.8,7.7 986.8,-28.2 955.6,26.9 	"/>
	<polygon class="st96" points="1022.7,305 970,357.8 998.8,420.1 	"/>
	<polygon class="st97" points="1058.7,252.3 1044.3,163.6 1005.9,204.3 	"/>
	<polygon class="st98" points="1080.3,-335.1 914.8,-342.3 1001.2,-224.8 	"/>
	<polygon class="st99" points="1058.7,252.3 1005.9,204.3 1022.7,305 	"/>
	<polygon class="st100" points="1044.3,163.6 955.6,26.9 1005.9,204.3 	"/>
	<polygon class="st101" points="1001.2,477.6 922,516 982,590.3 	"/>
	<polygon class="st102" points="1005.9,204.3 955.6,26.9 821.4,166 	"/>
	<polygon class="st103" points="1022.7,305 1005.9,204.3 934,312.2 	"/>
	<polygon class="st104" points="986.8,-28.2 960.4,-174.5 893.3,-40.2 	"/>
	<polygon class="st105" points="1022.7,305 934,312.2 970,357.8 	"/>
	<polygon class="st106" points="1001.2,-224.8 914.8,-342.3 876.5,-239.2 	"/>
	<polygon class="st107" points="1001.2,477.6 998.8,420.1 922,516 	"/>
	<polygon class="st108" points="1005.9,204.3 821.4,166 934,312.2 	"/>
	<polygon class="st109" points="1001.2,-224.8 876.5,-239.2 960.4,-174.5 	"/>
	<polygon class="st110" points="998.8,420.1 970,357.8 922,516 	"/>
	<polygon class="st111" points="955.6,26.9 871.7,14.9 821.4,166 	"/>
	<polygon class="st112" points="970,357.8 835.7,364.9 922,516 	"/>
	<polygon class="st113" points="986.8,-28.2 893.3,-40.2 955.6,26.9 	"/>
	<polygon class="st114" points="982,590.3 922,516 823.8,640.6 	"/>
	<polygon class="st115" points="922,516 835.7,364.9 823.8,492 	"/>
	<polygon class="st116" points="960.4,-174.5 816.6,-121.7 893.3,-40.2 	"/>
	<polygon class="st117" points="970,357.8 934,312.2 835.7,364.9 	"/>
	<polygon class="st118" points="960.4,-174.5 876.5,-239.2 816.6,-121.7 	"/>
	<polygon class="st119" points="922,516 823.8,492 823.8,640.6 	"/>
	<polygon class="st120" points="934,312.2 821.4,166 835.7,364.9 	"/>
	<polygon class="st121" points="871.7,14.9 797.4,24.5 821.4,166 	"/>
	<polygon class="st122" points="914.8,-342.3 823.8,-395 876.5,-239.2 	"/>
	<polygon class="st123" points="835.7,364.9 821.4,166 713.5,309.8 	"/>
	<polygon class="st124" points="893.3,-40.2 816.6,-121.7 761.4,-83.4 	"/>
	<polygon class="st125" points="893.3,-40.2 797.4,24.5 871.7,14.9 	"/>
	<polygon class="st126" points="893.3,-40.2 761.4,-83.4 797.4,24.5 	"/>
	<polygon class="st127" points="821.4,166 699.1,223.5 713.5,309.8 	"/>
	<polygon class="st125" points="821.4,166 797.4,24.5 747,89.2 	"/>
	<polygon class="st128" points="876.5,-239.2 823.8,-395 653.5,-325.5 	"/>
	<polygon class="st129" points="876.5,-239.2 653.5,-325.5 754.2,-167.3 	"/>
	<polygon class="st130" points="876.5,-239.2 754.2,-167.3 816.6,-121.7 	"/>
	<polygon class="st131" points="835.7,364.9 730.3,384.1 823.8,492 	"/>
	<polygon class="st132" points="821.4,166 747,89.2 744.6,127.6 	"/>
	<polygon class="st133" points="823.8,492 751.8,667 823.8,640.6 	"/>
	<polygon class="st134" points="797.4,24.5 744.6,70.1 747,89.2 	"/>
	<polygon class="st135" points="835.7,364.9 713.5,309.8 730.3,384.1 	"/>
	<polygon class="st136" points="823.8,492 730.3,384.1 711.1,396.1 	"/>
	<polygon class="st137" points="821.4,166 744.6,127.6 699.1,223.5 	"/>
	<polygon class="st138" points="823.8,492 562.4,496.8 751.8,667 	"/>
	<polygon class="st139" points="823.8,492 711.1,396.1 562.4,496.8 	"/>
	<polygon class="st140" points="751.8,667 562.4,496.8 639.2,679 	"/>
	<polygon class="st141" points="816.6,-121.7 754.2,-167.3 761.4,-83.4 	"/>
	<polygon class="st142" points="797.4,24.5 761.4,-83.4 660.7,-11.4 	"/>
	<polygon class="st143" points="797.4,24.5 660.7,-11.4 744.6,70.1 	"/>
	<polygon class="st144" points="761.4,-83.4 660.7,-69 660.7,-11.4 	"/>
	<polygon class="st145" points="761.4,-83.4 754.2,-167.3 665.5,-88.2 	"/>
	<polygon class="st146" points="730.3,384.1 713.5,309.8 691.9,353 	"/>
	<polygon class="st147" points="754.2,-167.3 653.5,-325.5 572,-279.9 	"/>
	<polygon class="st148" points="754.2,-167.3 572,-279.9 644,-107.3 	"/>
	<polygon class="st149" points="761.4,-83.4 665.5,-88.2 660.7,-69 	"/>
	<polygon class="st150" points="754.2,-167.3 644,-107.3 665.5,-88.2 	"/>
	<polygon class="st151" points="747,89.2 579.2,146.8 744.6,127.6 	"/>
	<polygon class="st152" points="747,89.2 744.6,70.1 579.2,146.8 	"/>
	<polygon class="st153" points="744.6,70.1 660.7,-11.4 579.2,146.8 	"/>
	<polygon class="st154" points="744.6,127.6 579.2,146.8 699.1,223.5 	"/>
	<polygon class="st155" points="730.3,384.1 691.9,353 711.1,396.1 	"/>
	<polygon class="st156" points="711.1,396.1 691.9,353 562.4,496.8 	"/>
	<polygon class="st157" points="713.5,309.8 699.1,223.5 524.1,319.4 	"/>
	<polygon class="st158" points="713.5,309.8 524.1,319.4 691.9,353 	"/>
	<polygon class="st159" points="644,-107.3 572,-279.9 600.8,-104.9 	"/>
	<polygon class="st160" points="691.9,353 536.1,480 562.4,496.8 	"/>
	<polygon class="st161" points="691.9,353 497.7,388.9 536.1,480 	"/>
	<polygon class="st162" points="691.9,353 524.1,319.4 497.7,388.9 	"/>
	<polygon class="st163" points="699.1,223.5 579.2,146.8 524.1,319.4 	"/>
	<polygon class="st164" points="600.8,-104.9 572,-279.9 514.5,-203.2 	"/>
	<polygon class="st165" points="660.7,-11.4 567.2,-28.2 579.2,146.8 	"/>
	<polygon class="st166" points="660.7,-11.4 660.7,-69 567.2,-28.2 	"/>
	<polygon class="st166" points="665.5,-88.2 644,-107.3 660.7,-69 	"/>
	<polygon class="st167" points="639.2,679 562.4,496.8 468.9,679 	"/>
	<polygon class="st168" points="660.7,-69 600.8,-104.9 567.2,-28.2 	"/>
	<polygon class="st169" points="660.7,-69 644,-107.3 600.8,-104.9 	"/>
	<polygon class="st170" points="579.2,146.8 567.2,-28.2 504.9,-21 	"/>
	<polygon class="st171" points="562.4,496.8 401.8,611.9 468.9,679 	"/>
	<polygon class="st172" points="579.2,146.8 433,163.6 524.1,319.4 	"/>
	<polygon class="st173" points="600.8,-104.9 533.7,-73.8 567.2,-28.2 	"/>
	<polygon class="st174" points="600.8,-104.9 514.5,-203.2 533.7,-73.8 	"/>
	<polygon class="st175" points="562.4,496.8 536.1,480 401.8,611.9 	"/>
	<polygon class="st176" points="579.2,146.8 504.9,-21 399.4,58.1 	"/>
	<polygon class="st177" points="579.2,146.8 399.4,58.1 433,163.6 	"/>
	<polygon class="st178" points="533.7,-73.8 514.5,-203.2 473.7,-90.6 	"/>
	<polygon class="st179" points="536.1,480 497.7,388.9 483.3,408.1 	"/>
	<polygon class="st180" points="572,-279.9 528.9,-330.3 514.5,-203.2 	"/>
	<polygon class="st181" points="567.2,-28.2 533.7,-73.8 504.9,-21 	"/>
	<polygon class="st182" points="528.9,-330.3 445,-222.4 514.5,-203.2 	"/>
	<polygon class="st183" points="514.5,-203.2 466.5,-198.4 473.7,-90.6 	"/>
	<polygon class="st184" points="524.1,319.4 433,163.6 423.4,341 	"/>
	<polygon class="st185" points="536.1,480 483.3,408.1 401.8,611.9 	"/>
	<polygon class="st186" points="533.7,-73.8 473.7,-90.6 504.9,-21 	"/>
	<polygon class="st180" points="514.5,-203.2 445,-222.4 466.5,-198.4 	"/>
	<polygon class="st187" points="528.9,-330.3 471.3,-407 445,-222.4 	"/>
	<polygon class="st188" points="524.1,319.4 423.4,341 497.7,388.9 	"/>
	<polygon class="st189" points="471.3,-407 349.1,-416.6 445,-222.4 	"/>
	<polygon class="st190" points="483.3,408.1 238.8,484.8 401.8,611.9 	"/>
	<polygon class="st191" points="504.9,-21 473.7,-90.6 399.4,58.1 	"/>
	<polygon class="st192" points="433,163.6 399.4,58.1 380.2,120.4 	"/>
	<polygon class="st193" points="445,-222.4 349.1,-416.6 409,-210.4 	"/>
	<polygon class="st194" points="473.7,-90.6 325.1,-9 399.4,58.1 	"/>
	<polygon class="st195" points="473.7,-90.6 358.7,-102.5 325.1,-9 	"/>
	<polygon class="st196" points="483.3,408.1 260.4,405.7 238.8,484.8 	"/>
	<polygon class="st197" points="497.7,388.9 423.4,341 483.3,408.1 	"/>
	<polygon class="st198" points="409,-210.4 349.1,-416.6 282,-284.7 	"/>
	<polygon class="st199" points="433,163.6 310.7,283.4 423.4,341 	"/>
	<polygon class="st200" points="473.7,-90.6 466.5,-198.4 409,-210.4 	"/>
	<polygon class="st201" points="473.7,-90.6 409,-210.4 358.7,-102.5 	"/>
	<polygon class="st202" points="483.3,408.1 423.4,341 260.4,405.7 	"/>
	<polygon class="st203" points="466.5,-198.4 445,-222.4 409,-210.4 	"/>
	<polygon class="st204" points="423.4,341 293.9,331.4 260.4,405.7 	"/>
	<polygon class="st205" points="433,163.6 272.4,201.9 310.7,283.4 	"/>
	<polygon class="st206" points="433,163.6 380.2,120.4 272.4,201.9 	"/>
	<polygon class="st207" points="423.4,341 310.7,283.4 293.9,331.4 	"/>
	<polygon class="st208" points="409,-210.4 291.5,-145.7 358.7,-102.5 	"/>
	<polygon class="st209" points="409,-210.4 282,-284.7 291.5,-145.7 	"/>
	<polygon class="st210" points="401.8,611.9 238.8,484.8 174.1,575.9 	"/>
	<polygon class="st211" points="399.4,58.1 325.1,-9 380.2,120.4 	"/>
</g>
<text transform="matrix(1 0 0 1 517.2568 172.2939)" class="st212 st213 st214">“TOWARDS THE CREATION OF HEALTHY HABITS, NOT RESTRICTING IT...”</text>
<text transform="matrix(1 0 0 1 802.3995 62.8785)" class="st215 st216 st217">COACH</text>
<text transform="matrix(1 0 0 1 1042.3994 62.8785)" class="st218 st219 st220">ME</text>
<text transform="matrix(1 0 0 1 629.7501 95.4471)" class="st221 st222 st223">BENVENUTO AL PANNELLO DI AMMINISTRAZIONE</text>
</svg>
